<svg width="323" height="323" viewBox="0 0 323 323" fill="none" xmlns="http://www.w3.org/2000/svg">
<g clip-path="url(#clip0_226_260)">
<path d="M0 161.5C0 72.306 72.306 0 161.5 0V0C250.694 0 323 72.306 323 161.5V161.5C323 250.694 250.694 323 161.5 323V323C72.306 323 0 250.694 0 161.5V161.5Z" fill="#BFDBFE"/>
<g clip-path="url(#clip1_226_260)">
<path d="M320.793 282.102C315.664 261.345 308.005 241.3 299.255 221.832C294.785 211.898 289.945 202.138 285.051 192.406C280.376 183.181 276.399 173.618 273.153 163.797C263.358 134.035 260.727 128.019 252.304 106.058C244.468 86.9284 228.321 71.237 208.623 64.7796C190.799 58.9379 170.47 60.9242 154.363 70.545C131.237 84.3536 119.416 110.848 109.063 135.733C107.564 139.337 105.507 143.422 101.682 144.179C97.6772 144.967 94.064 141.563 92.0317 138.011C88.4313 131.613 87.4399 124.069 89.2647 116.957C90.6251 111.78 93.4328 107.072 94.8939 101.917C96.3549 96.7617 96.159 90.5604 92.2983 86.8494C88.4376 83.1384 80.4006 84.5007 79.6034 89.8002C78.1914 79.5364 75.7726 67.7631 66.631 62.9186C59.8102 59.3003 51.0005 61.0713 44.9441 65.864C38.8878 70.6567 35.2665 77.9615 33.2668 85.4271C29.2211 100.489 31.1256 116.518 34.7251 131.684C42.3913 163.842 57.4221 193.774 78.6294 219.113L78.8498 219.255L78.9151 218.982C82.4982 204.464 86.8401 190.144 91.9228 176.082C92.0341 175.761 92.2075 175.465 92.433 175.211C92.6586 174.957 92.9319 174.75 93.2373 174.602C93.5428 174.453 93.8744 174.367 94.2132 174.347C94.5521 174.327 94.8915 174.374 95.2122 174.486C95.5329 174.597 95.8285 174.771 96.0821 174.997C96.3358 175.222 96.5426 175.496 96.6906 175.802C96.8387 176.108 96.9251 176.44 96.945 176.779C96.9649 177.119 96.9178 177.459 96.8065 177.78C91.8692 192.586 87.7636 207.658 84.5089 222.925L84.6476 223.015C75.8842 264.838 74.23 308.073 85.3142 349.082L269.167 348.957H269.385C269.385 348.908 269.371 348.859 269.366 348.807C269.353 348.666 269.345 348.518 269.341 348.366C269.472 346.606 269.582 344.846 269.673 343.085C269.91 338.571 270.016 334.053 269.945 329.544C269.875 323.881 269.5 318.227 268.821 312.605C268.416 309.785 267.975 306.654 267.39 303.847C265.733 295.101 263.037 286.589 259.702 278.287C256.669 270.889 253.218 263.671 249.363 256.667C248.261 254.487 251.267 252.67 252.666 254.76C254.195 257.272 255.646 259.754 257.019 262.206C257.456 262.986 257.885 263.762 258.306 264.536C271.058 287.968 276.888 309.428 277.533 335.939C277.631 339.887 277.612 343.946 277.484 348.142L277.585 348.208L278.028 348.137C281.644 347.393 285.334 346.584 288.971 345.603C299.903 342.652 310.361 338.156 316.956 329.241C326.65 316.144 324.705 297.932 320.793 282.102ZM223.279 159.971C223.279 160.165 223.279 160.361 223.247 160.554C222.765 165.718 221.886 170.794 218.766 175.137C216.839 177.81 214.383 179.908 210.816 179.562C206.936 179.186 204.387 176.785 203.102 173.268C199.968 164.674 201.41 156.533 206.686 149.307C210.922 143.503 218.156 144.495 221.318 150.994C222.67 153.789 223.342 156.866 223.279 159.971ZM194.859 200.893C190.647 209.509 183.053 212.427 176.488 212.718C163.429 212.675 154.799 206.53 152.404 197.234C151.629 194.22 151.316 191.092 153.678 188.646C156.126 186.101 159.019 187.368 161.704 188.414C170.388 191.798 179.416 192.09 188.541 191.449C195.457 190.964 197.963 194.542 194.859 200.893ZM135.857 155.936C136.385 150.372 137.256 145.092 140.852 140.743C143.07 138.065 145.88 136.076 149.591 136.874C153.58 137.733 155.849 140.566 156.858 144.405C158.545 150.863 157.699 157.105 155.008 163.132C152.736 168.216 148.625 171.126 144.416 170.728C140.335 170.341 137.566 167.118 136.358 161.23C136.128 159.944 135.963 158.647 135.862 157.345C135.814 156.877 135.813 156.405 135.857 155.936Z" fill="white"/>
<path d="M84.5085 222.927C78.7813 250.111 76.1205 277.905 78.025 305.626C78.9833 319.917 81.3176 334.082 84.9955 347.924C85.1002 348.309 85.1551 348.705 85.1587 349.104C85.1739 350.29 84.7525 351.44 83.9749 352.334C83.1973 353.229 82.118 353.805 80.9431 353.953C79.7681 354.102 78.5798 353.811 77.6049 353.138C76.63 352.465 75.937 351.455 75.6579 350.303C65.2757 307.068 68.361 262.203 78.8412 219.246L78.9065 218.974C82.4897 204.455 86.8316 190.136 91.9143 176.074C92.0255 175.753 92.1989 175.457 92.4245 175.202C92.65 174.948 92.9233 174.741 93.2287 174.593C93.5342 174.445 93.8658 174.358 94.2046 174.338C94.5435 174.318 94.8829 174.366 95.2036 174.477C95.5243 174.588 95.8199 174.762 96.0735 174.988C96.3272 175.214 96.534 175.488 96.682 175.793C96.8301 176.099 96.9165 176.431 96.9364 176.771C96.9563 177.11 96.9092 177.45 96.798 177.771C91.863 192.582 87.7601 207.657 84.5085 222.927Z" fill="#93C5FD"/>
<path d="M277.478 348.147C277.478 348.175 277.478 348.202 277.478 348.229V348.273V348.586C277.138 353.763 269.996 353.79 269.395 348.954C269.395 348.905 269.382 348.856 269.376 348.804C269.363 348.662 269.355 348.515 269.352 348.363C269.482 346.603 269.593 344.842 269.684 343.082C269.92 338.568 270.026 334.05 269.956 329.541C269.886 323.878 269.511 318.223 268.832 312.601C268.427 309.781 267.986 306.651 267.401 303.844C265.744 295.098 263.048 286.586 259.712 278.284C256.68 270.886 253.228 263.668 249.373 256.664C248.271 254.484 251.278 252.667 252.676 254.757C254.205 257.269 255.656 259.751 257.029 262.203C257.467 262.982 257.896 263.759 258.316 264.533C271.068 287.965 276.899 309.424 277.544 335.936C277.623 339.892 277.606 343.951 277.478 348.147Z" fill="#93C5FD"/>
<path d="M155.008 163.131C152.736 168.216 148.625 171.126 144.416 170.728C140.335 170.341 137.565 167.118 136.357 161.23C136.127 159.944 135.962 158.647 135.862 157.344C135.816 156.876 135.816 156.404 135.862 155.936C136.39 150.372 137.261 145.091 140.857 140.743C143.075 138.065 145.885 136.076 149.596 136.874C153.585 137.732 155.854 140.566 156.863 144.405C158.545 150.862 157.699 157.105 155.008 163.131Z" fill="#3B82F6"/>
<path d="M223.279 159.971C223.279 160.164 223.279 160.361 223.246 160.554C222.765 165.717 221.886 170.793 218.765 175.136C216.839 177.809 214.382 179.907 210.815 179.561C206.936 179.185 204.386 176.785 203.102 173.267C199.968 164.674 201.41 156.532 206.685 149.307C210.921 143.503 218.156 144.495 221.317 150.993C222.67 153.789 223.342 156.865 223.279 159.971Z" fill="#3B82F6"/>
<path d="M194.858 200.893C190.647 209.508 183.053 212.426 176.488 212.718C163.428 212.674 154.798 206.53 152.404 197.233C151.629 194.22 151.316 191.092 153.677 188.645C156.126 186.1 159.018 187.367 161.703 188.414C170.388 191.798 179.415 192.089 188.541 191.449C195.457 190.964 197.963 194.541 194.858 200.893Z" fill="#3B82F6"/>
<path d="M269.213 81.7047C267.714 81.7974 266.552 81.0508 265.872 79.6885C263.869 75.6723 261.023 72.2883 258.031 69.016C256.73 67.5937 256.567 66.0188 257.614 64.5148C258.703 62.9427 260.319 62.4141 262.163 63.1525C262.896 63.427 263.577 63.8261 264.174 64.3322C267.967 67.7558 270.864 72.0596 272.608 76.8657C273.626 79.5849 272.004 81.7293 269.213 81.7047Z" fill="#3B82F6"/>
<path d="M249.572 76.2391C251.749 76.3153 253.397 77.5633 254.85 78.9855C257.971 82.0399 259.747 85.849 260.466 90.1213C260.866 92.4836 259.084 94.914 256.798 94.9984C255.185 95.0584 254.271 93.6879 253.941 92.3446C252.853 87.8979 250.434 84.4431 246.848 81.683C245.913 80.9609 245.254 79.8765 245.853 78.5714C246.571 76.9993 247.763 76.1192 249.572 76.2391Z" fill="#3B82F6"/>
</g>
</g>
<defs>
<clipPath id="clip0_226_260">
<path d="M0 161.5C0 72.306 72.306 0 161.5 0V0C250.694 0 323 72.306 323 161.5V161.5C323 250.694 250.694 323 161.5 323V323C72.306 323 0 250.694 0 161.5V161.5Z" fill="white"/>
</clipPath>
<clipPath id="clip1_226_260">
<rect width="293" height="293" fill="white" transform="translate(31 61)"/>
</clipPath>
</defs>
</svg>
