<svg width="323" height="323" viewBox="0 0 323 323" fill="none" xmlns="http://www.w3.org/2000/svg">
<g clip-path="url(#clip0_230_260)">
<path d="M0 161.5C0 72.306 72.306 0 161.5 0V0C250.694 0 323 72.306 323 161.5V161.5C323 250.694 250.694 323 161.5 323V323C72.306 323 0 250.694 0 161.5V161.5Z" fill="#BFDBFE"/>
<g clip-path="url(#clip1_230_260)">
<path d="M212.344 252.775C212.247 252.505 212.144 252.226 212.041 251.936C212.167 252.206 212.269 252.486 212.344 252.775Z" fill="white"/>
<path d="M250.816 192.301C250.768 193.681 250.598 195.054 250.306 196.404C250.306 196.441 250.285 196.48 250.27 196.529C250.556 195.135 250.738 193.722 250.816 192.301Z" fill="white"/>
<path d="M74.7369 148.722C73.7628 152.129 72.6551 155.463 71.0498 158.664C71.0074 158.743 70.9711 158.818 70.9377 158.894L74.7369 148.722Z" fill="white"/>
<path d="M286.812 247.357C286.384 239.099 283.778 231.22 281.326 223.352C279.343 217.117 276.914 211.032 274.058 205.144C271.403 199.617 268.775 194.097 266.626 188.371C263.212 179.286 260.139 170.071 258.081 160.56C256.734 154.309 255.305 148.071 254.136 141.785C253.168 136.534 252.756 131.186 251.709 125.956C250.956 122.216 251.014 118.386 250 114.682C249.317 112.196 249.126 109.556 248.808 107.021C247.637 98.0171 245.759 89.119 243.191 80.409C241.11 73.3562 238.215 66.5688 234.563 60.1836C230.886 53.676 227.032 47.2865 221.891 41.9477C216.429 36.2729 210.217 31.349 203.126 27.6213C194.307 23.0033 185.003 20.4384 175.08 19.3633C166.332 18.4185 157.856 19.3634 149.545 21.5891C139.333 24.2922 129.928 29.4169 122.128 36.5272C117.576 40.6335 113.361 44.9456 109.701 49.8332C104.239 57.1251 100.403 65.2922 96.7649 73.5774C93.7607 80.415 91.5182 87.5344 89.5245 94.6719C86.7084 104.752 84.0704 114.883 81.6104 125.066C79.8868 132.164 77.3924 138.996 75.4897 146.015C75.2439 146.924 74.9951 147.832 74.7372 148.722C73.7631 152.129 72.6554 155.463 71.0501 158.664C71.0076 158.743 70.9713 158.818 70.9379 158.894L70.6557 159.648L68.8349 163.888C70.3834 163.3 71.9835 162.858 73.6143 162.567C86.6356 159.43 94.8774 166.852 99.4777 178.217C105.872 181.627 110.099 188.256 111.786 195.157C113.667 202.697 112.79 210.791 109.777 217.908C105.098 228.07 97.7632 243.969 93.0233 254.246C92.8838 254.548 92.6862 254.819 92.4417 255.045C92.1972 255.27 91.9105 255.445 91.5982 255.56C91.2858 255.675 90.9537 255.727 90.6211 255.714C90.2885 255.701 89.9617 255.622 89.6595 255.483C89.3572 255.344 89.0854 255.147 88.8595 254.903C88.6336 254.659 88.4581 254.373 88.343 254.061C88.2279 253.749 88.1754 253.418 88.1886 253.086C88.2018 252.754 88.2804 252.428 88.4199 252.127C88.4411 252.127 97.4083 233.555 97.4325 233.542C99.8025 228.667 103.538 220.951 105.865 216.157C108.651 209.898 109.574 202.727 108.044 196.029C106.645 189.87 103.046 183.934 97.3414 180.964C96.9551 180.771 96.656 180.44 96.5039 180.037C93.6302 171.943 88.2803 164.433 78.9036 164.517C77.1064 164.538 75.3158 164.741 73.5597 165.123C62.2499 167.004 57.7133 175.149 58.2929 186.045C58.3702 187.486 58.5262 188.921 58.7602 190.345C58.8786 190.969 58.9969 191.596 59.1123 192.219C59.2943 193.058 59.5037 193.891 59.7404 194.709C59.7839 194.846 59.7846 194.993 59.742 195.13C59.6994 195.268 59.6155 195.389 59.5019 195.478C59.3884 195.566 59.2503 195.618 59.1063 195.626C58.9624 195.635 58.8194 195.599 58.6965 195.523C58.4207 195.947 58.0902 196.333 57.7134 196.671C51.183 202.727 45.3597 209.405 40.6288 216.993C36.338 223.882 33.3641 231.226 31.9288 239.272C30.7898 245.603 30.7202 252.08 31.7226 258.434C33.956 272.733 41.2753 284.207 51.9477 293.713C52.2714 294 52.5991 294.283 52.9309 294.564C69.3604 305.61 87.4226 314.019 106.46 319.486C106.46 309.267 106.46 299.047 106.46 288.825H106.384C106.384 276.713 106.384 264.6 106.384 252.487C106.384 247.372 108.151 245.022 113.06 243.178C118.395 241.174 124.003 241.149 129.553 240.756C145.667 239.537 161.857 239.74 177.936 241.361C180.943 241.664 183.978 242.112 186.9 243.102C191.133 244.541 193.166 247.124 193.254 251.581C193.348 256.502 193.348 256.502 198.413 256.448C210.575 256.324 221.005 264.273 224.449 275.968C227.453 286.179 227.092 296.178 222.325 305.644C217.415 315.434 209.183 320.455 198.049 320.376C192.908 320.337 192.89 319.922 193.194 323.901C211.627 320.597 229.467 314.581 246.131 306.05C251.182 303.451 256.369 301.126 261.671 299.085C252.692 302.371 242.341 302.18 233.859 297.756C231.742 296.632 229.782 295.237 228.027 293.607C227.894 293.48 227.781 293.333 227.693 293.171C227.537 292.872 227.477 292.533 227.523 292.199C227.569 291.865 227.717 291.554 227.948 291.308C228.1 291.147 228.283 291.018 228.487 290.93C228.69 290.841 228.909 290.795 229.131 290.794C229.353 290.792 229.573 290.836 229.778 290.922C229.982 291.008 230.167 291.134 230.321 291.293C231.143 292.139 232.025 292.925 232.958 293.646C238.351 297.807 245.218 299.6 252.094 299.367C252.258 299.367 252.419 299.367 252.579 299.345C253.01 299.327 253.441 299.3 253.875 299.261C254.309 299.221 254.664 299.188 255.059 299.139L255.411 299.097C255.687 299.061 255.963 299.024 256.239 298.982L256.828 298.888L257.241 298.815L257.483 298.77L258.005 298.667L258.366 298.591L258.646 298.531L259.161 298.413L259.738 298.27L260.196 298.149L260.315 298.119L260.481 298.074C264.851 296.888 268.934 294.827 272.48 292.017C273.897 290.855 275.176 289.534 276.291 288.08C276.449 287.878 276.595 287.669 276.753 287.457V287.441C276.835 287.326 276.917 287.208 276.995 287.09C277.002 287.08 277.01 287.07 277.02 287.063C277.03 287.056 277.041 287.051 277.053 287.048C277.065 287.046 277.078 287.046 277.09 287.048C277.102 287.051 277.113 287.056 277.123 287.063C277.675 286.379 278.204 285.672 278.71 284.943C279.954 283.129 281.058 281.223 282.012 279.241C286.927 269.1 287.373 258.253 286.812 247.357ZM127.921 137.4C120.692 137.309 115.737 134.35 112.639 128.4C111.361 125.944 111.728 124.161 113.643 122.892C115.631 121.58 117.931 122.068 119.551 124.291C120.534 125.635 121.472 126.968 122.992 127.776C126.886 129.844 130.834 129.29 134.026 126.162C134.648 125.557 135.219 124.884 135.886 124.33C137.54 122.949 139.224 122.977 140.826 124.427C142.316 125.787 142.993 127.328 141.737 129.272C138.347 134.438 133.653 137.264 127.921 137.4ZM174.586 161.738C171.245 165.229 166.874 167.563 162.111 168.4C159.968 168.79 157.786 168.963 156.427 169.132C148.34 169.099 141.958 166.646 136.399 162.007C135.73 161.446 135.116 160.823 134.563 160.148C132.706 157.886 132.688 155.727 134.46 154.106C136.639 152.114 138.708 152.096 140.908 154.321C143.691 157.147 146.977 158.758 150.846 159.678C157.468 161.262 163.258 159.793 168.526 155.724C170.953 153.846 172.647 153.67 174.352 155.181C176.655 157.222 176.786 159.46 174.586 161.738ZM201.745 132.131C198.562 137.548 193.591 139.959 188.089 140.416C180.746 140.192 175.775 137.015 172.446 131.21C171.903 130.304 171.741 129.22 171.994 128.195C172.248 127.17 172.897 126.286 173.8 125.735C175.821 124.457 177.493 125.108 178.807 126.831C179.86 128.215 180.743 129.714 182.296 130.641C186.906 133.4 191.294 132.494 194.944 128.015C197.433 124.963 200.813 125.441 202.294 128.957C202.822 130.244 202.3 131.192 201.748 132.131H201.745Z" fill="white"/>
<path d="M70.6554 159.663L70.9377 158.909C70.8223 159.152 70.7278 159.404 70.6554 159.663Z" fill="white"/>
<path d="M106.369 288.862C106.369 276.749 106.369 264.631 106.369 252.508C106.369 247.39 108.135 245.041 113.045 243.196C118.38 241.192 123.987 241.171 129.538 240.774C145.652 239.555 161.842 239.758 177.92 241.379C180.928 241.682 183.962 242.127 186.884 243.121C191.118 244.556 193.151 247.142 193.239 251.6C193.333 256.52 193.333 256.52 198.397 256.466C210.557 256.342 220.987 264.291 224.431 275.986C227.438 286.197 227.077 296.196 222.322 305.662C217.412 315.452 209.179 320.473 198.045 320.391C192.492 320.352 192.914 319.871 193.269 324.973C193.906 334.194 187.391 339.478 179.541 340.82C164.04 343.469 148.449 343.445 132.824 342.207C127.687 341.801 122.601 341.156 117.582 339.942C110.845 338.315 106.457 332.934 106.448 326.012C106.434 313.633 106.434 301.253 106.448 288.874L106.369 288.862ZM193.357 288.51H193.333C193.333 293.822 193.357 299.13 193.315 304.442C193.315 305.774 193.961 306.165 195.15 306.471C198.443 307.312 201.934 306.848 204.892 305.177C207.849 303.506 210.044 300.757 211.015 297.507C212.435 292.662 212.578 287.778 212.068 282.778C211.158 273.996 204.549 268.927 195.827 270.477C194.098 270.78 193.266 271.425 193.315 273.363C193.442 278.408 193.357 283.459 193.357 288.507V288.51ZM146.392 310.616C147.954 310.586 149.198 309.708 150.242 308.445C151.76 306.628 153.262 304.839 154.764 303.028C159.935 296.794 165.101 290.554 170.261 284.31C172.625 281.44 171.432 277.881 167.921 277.158C165.755 276.71 164.495 278.103 163.294 279.505C158.074 285.591 152.84 291.666 147.712 297.825C146.437 299.354 145.508 299.436 144.131 298.04C141.743 295.618 139.497 293.044 136.748 291.018C134.208 289.149 132.405 289.201 130.709 291.042C128.803 293.107 128.843 294.694 131.225 297.162C135.17 301.241 139.224 305.199 143.226 309.211C144.063 310.066 145.196 310.567 146.392 310.613V310.616Z" fill="#3B82F6"/>
<path d="M156.427 169.132C148.343 169.099 141.958 166.646 136.399 162.007C135.73 161.446 135.115 160.823 134.563 160.148C132.706 157.886 132.687 155.73 134.46 154.107C136.638 152.114 138.708 152.096 140.908 154.322C143.691 157.147 146.977 158.758 150.846 159.678C157.468 161.262 163.258 159.793 168.525 155.724C170.953 153.849 172.646 153.67 174.352 155.182C176.652 157.223 176.779 159.46 174.582 161.738C171.243 165.229 166.871 167.564 162.107 168.4C159.968 168.79 157.786 168.963 156.427 169.132Z" fill="#3B82F6"/>
<path d="M188.092 140.428C180.749 140.204 175.778 137.027 172.449 131.222C171.907 130.316 171.744 129.233 171.997 128.208C172.25 127.183 172.897 126.299 173.799 125.747C175.823 124.469 177.496 125.12 178.81 126.847C179.863 128.227 180.746 129.726 182.299 130.653C186.906 133.412 191.297 132.506 194.947 128.028C197.435 124.975 200.816 125.454 202.297 128.969C202.837 130.253 202.315 131.204 201.76 132.143C198.561 137.548 193.591 139.959 188.092 140.428Z" fill="#3B82F6"/>
<path d="M127.92 137.4C120.692 137.309 115.737 134.35 112.641 128.4C111.361 125.944 111.731 124.161 113.643 122.892C115.633 121.577 117.928 122.068 119.554 124.291C120.534 125.635 121.472 126.968 122.992 127.776C126.889 129.841 130.833 129.29 134.026 126.162C134.648 125.557 135.218 124.884 135.886 124.33C137.54 122.949 139.224 122.977 140.826 124.427C142.316 125.787 142.993 127.328 141.737 129.272C138.347 134.435 133.652 137.264 127.92 137.4Z" fill="#3B82F6"/>
<path d="M264.044 62.6031C262.372 62.7061 261.076 61.8764 260.317 60.3623C258.084 55.8987 254.91 52.1377 251.572 48.5008C250.121 46.9201 249.939 45.1698 251.108 43.5012C252.321 41.754 254.124 41.1635 256.181 41.9871C256.999 42.2939 257.757 42.7385 258.424 43.3014C262.657 47.1043 265.888 51.8882 267.831 57.2311C268.966 60.2321 267.16 62.6031 264.044 62.6031Z" fill="#3B82F6"/>
<path d="M242.137 56.5165C244.565 56.5982 246.407 57.9882 248.027 59.5689C251.505 62.9635 253.49 67.1939 254.288 71.9422C254.734 74.5676 252.746 77.2688 250.2 77.3627C248.398 77.4323 247.378 75.9061 247.014 74.4132C245.8 69.4711 243.102 65.6314 239.1 62.5638C238.056 61.7613 237.325 60.5561 237.989 59.1056C238.79 57.3583 240.119 56.3802 242.137 56.5165Z" fill="#3B82F6"/>
<path d="M193.357 288.507C193.357 283.456 193.442 278.405 193.315 273.366C193.266 271.428 194.098 270.789 195.827 270.481C204.548 268.93 211.17 274.002 212.068 282.781C212.578 287.781 212.435 292.668 211.015 297.51C210.044 300.76 207.849 303.509 204.892 305.18C201.934 306.851 198.443 307.315 195.15 306.474C193.961 306.171 193.305 305.777 193.315 304.445C193.357 299.133 193.333 293.825 193.333 288.514L193.357 288.507Z" fill="white"/>
<path d="M146.391 310.613C145.195 310.567 144.062 310.064 143.226 309.208C139.224 305.196 135.164 301.238 131.225 297.159C128.843 294.691 128.797 293.104 130.709 291.039C132.405 289.201 134.208 289.146 136.748 291.015C139.497 293.041 141.742 295.621 144.131 298.037C145.508 299.433 146.437 299.351 147.711 297.822C152.84 291.663 158.074 285.588 163.294 279.502C164.508 278.099 165.755 276.707 167.921 277.155C171.432 277.878 172.625 281.437 170.261 284.307C165.115 290.566 159.949 296.805 154.764 303.025C153.262 304.842 151.747 306.634 150.242 308.442C149.198 309.705 147.954 310.574 146.391 310.613Z" fill="white"/>
<path d="M109.764 217.92C105.085 228.083 97.7507 243.981 93.0108 254.258C92.8713 254.56 92.6737 254.831 92.4292 255.057C92.1847 255.282 91.898 255.457 91.5857 255.572C91.2733 255.687 90.9413 255.739 90.6086 255.726C90.276 255.713 89.9493 255.635 89.647 255.495C89.3447 255.356 89.0729 255.159 88.847 254.915C88.6212 254.671 88.4456 254.385 88.3305 254.073C88.2154 253.762 88.1629 253.43 88.1761 253.098C88.1893 252.766 88.2679 252.44 88.4074 252.139C88.4287 252.139 97.3958 233.567 97.4201 233.555C99.79 228.679 103.526 220.963 105.853 216.17C108.639 209.91 109.561 202.74 108.032 196.041C106.633 189.882 103.034 183.946 97.3289 180.976C96.9426 180.783 96.6435 180.452 96.4915 180.049C93.6178 171.955 88.2679 164.445 78.8911 164.53C77.0939 164.551 75.3034 164.753 73.5472 165.135C62.2375 167.016 57.7009 175.162 58.2805 186.057C58.3579 187.498 58.5138 188.933 58.7477 190.357C58.8479 190.984 58.9663 191.611 59.0998 192.232C59.2819 193.07 59.4913 193.903 59.728 194.721C59.7716 194.858 59.7721 195.005 59.7295 195.143C59.6869 195.28 59.6031 195.401 59.4895 195.49C59.3759 195.579 59.238 195.63 59.094 195.639C58.95 195.647 58.8069 195.611 58.684 195.535C58.5489 195.447 58.4474 195.316 58.3958 195.163C56.1806 188.025 55.4007 179.392 58.8661 172.512C61.0297 168.272 64.6136 165.493 68.8285 163.879C70.377 163.291 71.9771 162.849 73.6079 162.558C86.6292 159.421 94.871 166.843 99.4713 178.208C105.865 181.618 110.092 188.246 111.779 195.148C113.655 202.709 112.778 210.804 109.764 217.92Z" fill="#93C5FD"/>
<path d="M214.796 178.677C214.568 179.041 214.309 179.384 214.022 179.704C213.671 180.112 213.285 180.489 212.869 180.83C212.513 181.045 212.141 181.233 211.756 181.391C209.318 182.384 207.062 183.772 205.08 185.5C200.048 189.361 196.686 194.854 195.066 201.141C194.984 201.443 194.826 202.179 194.741 202.497C193.743 206.834 193.827 211.349 194.984 215.646C195.072 215.991 195.172 216.333 195.287 216.675C195.749 218.613 196.351 220.515 197.09 222.365C197.578 223.607 198.097 224.836 198.625 226.063C202.124 235.832 207.149 249.855 209.301 255.851C210.311 258.301 213.786 256.957 212.991 254.522C212.799 253.995 212.584 253.411 212.356 252.781C212.259 252.511 212.156 252.233 212.053 251.942C208.566 242.367 201.675 223.504 199.056 216.251C198.25 213.949 197.807 211.536 197.742 209.099C197.826 206.505 198.168 203.927 198.765 201.401C200.555 195.005 204.266 189.573 210.347 186.29C211.03 185.894 211.965 185.476 212.678 185.118C214.201 184.337 215.556 183.268 216.668 181.969C217.498 180.973 218.199 179.878 218.756 178.708C219.769 176.891 221.241 175.371 223.026 174.299C227.159 171.706 233.191 171.625 237.507 171.946C240.988 172.609 244.149 174.412 246.489 177.069C247.576 178.478 248.448 180.039 249.077 181.703C250.428 184.861 250.962 188.722 250.831 192.229C250.833 192.253 250.833 192.277 250.831 192.301C250.783 193.681 250.613 195.054 250.321 196.404C250.321 196.441 250.3 196.48 250.285 196.529C250.012 197.455 249.193 200.272 249.017 200.947C248.998 201.026 248.98 201.107 248.965 201.186L248.85 201.489C247.615 204.82 247.636 207.479 249.8 210.246L253.107 214.359C257.207 219.843 260.451 225.866 263.161 232.201C263.525 233.049 263.834 234.075 264.572 234.339C264.838 234.561 265.171 234.688 265.518 234.699C265.865 234.711 266.206 234.605 266.486 234.4C266.766 234.194 266.969 233.901 267.062 233.568C267.155 233.234 267.133 232.878 266.999 232.558C266.15 230.541 265.264 228.534 264.326 226.547C261.938 221.702 259.428 216.757 255.781 212.714C255.332 212.109 254.87 211.503 254.409 210.897C252.861 208.902 251.951 207.079 251.76 205.086C251.656 203.839 251.793 202.584 252.164 201.389C252.162 201.373 252.162 201.357 252.164 201.34C252.267 200.992 252.385 200.635 252.521 200.268C254.251 195.69 254.632 190.714 253.62 185.927C252.27 178.054 247.712 170.756 239.603 168.802C238.447 168.669 237.261 168.56 236.062 168.5C233.319 168.159 230.538 168.309 227.848 168.942C224.883 169.502 222.055 170.589 219.609 172.479C218.454 173.387 217.437 174.457 216.59 175.655C216.435 175.819 216.286 175.982 216.128 176.155L214.796 178.677Z" fill="#93C5FD"/>
<path d="M251.9 202.506C251.75 203.364 251.698 204.235 251.745 205.105C251.641 203.858 251.778 202.602 252.148 201.407C252.033 201.831 251.945 202.204 251.9 202.506Z" fill="#60A5FA"/>
<path d="M277.159 287.181C275.983 289.132 274.533 290.904 272.853 292.444C269.821 295.142 266.333 297.281 262.551 298.761H262.529L261.668 299.085C252.688 302.371 242.338 302.18 233.856 297.756C231.739 296.632 229.778 295.238 228.024 293.607C227.89 293.48 227.778 293.333 227.69 293.171C227.534 292.872 227.474 292.533 227.52 292.199C227.565 291.865 227.714 291.554 227.945 291.309C228.097 291.147 228.28 291.018 228.483 290.93C228.687 290.841 228.906 290.795 229.128 290.794C229.35 290.792 229.57 290.836 229.774 290.922C229.979 291.008 230.164 291.134 230.318 291.293C231.14 292.139 232.021 292.925 232.955 293.646C238.347 297.807 245.214 299.6 252.091 299.367C252.254 299.367 252.412 299.367 252.576 299.345C253.007 299.327 253.438 299.3 253.872 299.261C254.306 299.221 254.661 299.188 255.055 299.14L255.407 299.097C255.684 299.061 255.96 299.024 256.236 298.982L256.825 298.888L257.237 298.815L257.48 298.77L258.002 298.667C258.123 298.646 258.245 298.619 258.363 298.591L258.642 298.531L259.158 298.413L259.735 298.27L260.193 298.149L260.311 298.119L260.478 298.074C264.848 296.888 268.93 294.827 272.477 292.017C273.894 290.855 275.173 289.534 276.288 288.08C276.446 287.878 276.592 287.669 276.749 287.457V287.442C276.831 287.326 276.913 287.208 276.992 287.09C276.998 287.08 277.007 287.07 277.017 287.063C277.026 287.056 277.038 287.051 277.05 287.048C277.062 287.046 277.074 287.046 277.086 287.048C277.098 287.051 277.11 287.056 277.12 287.063C277.139 287.074 277.154 287.093 277.162 287.115C277.169 287.136 277.168 287.16 277.159 287.181Z" fill="#93C5FD"/>
</g>
</g>
<defs>
<clipPath id="clip0_230_260">
<path d="M0 161.5C0 72.306 72.306 0 161.5 0V0C250.694 0 323 72.306 323 161.5V161.5C323 250.694 250.694 323 161.5 323V323C72.306 323 0 250.694 0 161.5V161.5Z" fill="white"/>
</clipPath>
<clipPath id="clip1_230_260">
<rect width="256" height="324" fill="white" transform="translate(31 19)"/>
</clipPath>
</defs>
</svg>
