<svg width="323" height="323" viewBox="0 0 323 323" fill="none" xmlns="http://www.w3.org/2000/svg">
<g clip-path="url(#clip0_227_272)">
<path d="M0 161.5C0 72.306 72.306 0 161.5 0V0C250.694 0 323 72.306 323 161.5V161.5C323 250.694 250.694 323 161.5 323V323C72.306 323 0 250.694 0 161.5V161.5Z" fill="#BFDBFE"/>
<g clip-path="url(#clip1_227_272)">
<path d="M149.968 306.267L149.962 306.281C149.913 306.399 149.849 306.511 149.772 306.614C149.555 306.914 149.245 307.135 148.89 307.241C148.536 307.347 148.156 307.334 147.81 307.202L147.772 307.184L147.46 307.066C146.887 306.846 146.322 306.626 145.763 306.406C142.102 304.968 138.63 303.487 135.347 301.963C132.064 300.439 128.994 298.886 126.139 297.304L126.202 297.38L125.223 296.792C123.736 295.951 122.308 295.102 120.94 294.245C120.469 293.951 120.005 293.655 119.547 293.358L118.895 292.93C118.433 292.626 117.974 292.317 117.526 292.005L117.491 291.989L116.957 291.619L116.432 291.248L116.389 291.228L116.048 290.985L116.019 290.972L115.493 290.592L114.948 290.191L114.33 289.727C114.134 289.581 113.941 289.437 113.753 289.288L113.246 288.897L112.717 288.48L112.252 288.105L111.765 287.708C111.44 287.441 111.121 287.174 110.809 286.907L110.34 286.504L109.879 286.102L109.425 285.697L108.979 285.293L108.128 284.497C107.83 284.217 107.542 283.935 107.257 283.652L106.844 283.24L106.435 282.824C106.031 282.411 105.637 281.996 105.254 281.575L104.774 281.045C104.716 280.983 104.659 280.919 104.603 280.852L104.193 280.372C104.095 280.26 104.006 280.152 103.907 280.036C103.766 279.872 103.626 279.706 103.49 279.538C103.354 279.37 103.21 279.2 103.073 279.028C102.974 278.904 102.877 278.784 102.782 278.659L107.659 277.95L107.945 278.288C108.061 278.429 108.182 278.569 108.3 278.706C108.677 279.14 109.057 279.567 109.44 279.988L109.891 280.488C110.042 280.652 110.193 280.819 110.344 280.988L110.392 281.039C110.586 281.245 110.781 281.449 110.977 281.65L111.384 282.068L111.695 282.383L112.105 282.794L112.306 282.986C112.504 283.182 112.702 283.378 112.914 283.575C113.126 283.772 113.333 283.975 113.548 284.159L114.059 284.634L114.098 284.67L114.124 284.682L114.433 284.962L114.553 285.072C114.895 285.382 115.236 285.685 115.576 285.982C115.783 286.159 115.97 286.324 116.169 286.492C116.443 286.726 116.72 286.957 117.003 287.189C117.219 287.367 117.435 287.543 117.651 287.717L118.139 288.105L118.695 288.546C118.715 288.558 118.734 288.573 118.75 288.589L118.876 288.685L119.269 288.986L119.782 289.375L120.494 289.903L121.219 290.428C126.177 293.612 131.355 296.438 136.714 298.886C140.538 300.661 144.642 302.384 149.025 304.055C149.164 304.108 149.296 304.179 149.415 304.267C149.501 304.327 149.579 304.396 149.65 304.472C149.718 304.544 149.778 304.622 149.83 304.706C149.944 304.882 150.023 305.077 150.064 305.282C150.073 305.327 150.08 305.373 150.084 305.419C150.083 305.423 150.081 305.427 150.079 305.431C150.082 305.462 150.084 305.494 150.084 305.526C150.088 305.567 150.089 305.608 150.087 305.649C150.088 305.69 150.085 305.729 150.082 305.771C150.077 305.785 150.071 305.799 150.063 305.812C150.059 305.853 150.052 305.893 150.042 305.933C150.042 305.935 150.042 305.937 150.041 305.939C150.04 305.941 150.038 305.943 150.037 305.945C150.026 305.996 150.013 306.047 149.997 306.097C149.982 306.131 149.965 306.167 149.949 306.202C149.932 306.238 149.975 306.252 149.968 306.267Z" fill="white"/>
<path d="M64.1148 284.278C64.1136 284.283 64.1117 284.287 64.1093 284.29C64.1225 284.479 64.1518 284.666 64.1966 284.85L64.1148 284.278ZM156.774 167.023C156.717 167.072 156.657 167.119 156.597 167.167C156.696 167.091 156.79 167.013 156.886 166.933C156.85 166.965 156.813 166.995 156.774 167.023ZM155.185 189.456C155.099 189.318 155.025 189.179 154.938 189.037C155.017 189.178 155.096 189.319 155.184 189.459C155.362 189.75 155.543 190.031 155.736 190.295C155.544 190.029 155.363 189.747 155.185 189.456ZM202.267 162.39C202.578 161.816 202.919 161.251 203.288 160.695C202.919 161.243 202.579 161.808 202.267 162.39ZM199.968 169.213C199.901 169.588 199.845 169.965 199.797 170.343C199.857 169.97 199.918 169.584 199.968 169.213ZM205.962 185.147L205.706 185.075C205.789 185.114 205.88 185.13 205.961 185.15C206.191 185.211 206.425 185.261 206.661 185.298C206.425 185.264 206.191 185.213 205.962 185.147ZM220.623 165.432C220.649 165.861 220.664 166.29 220.668 166.717C220.665 166.295 220.649 165.867 220.621 165.437L220.623 165.432ZM220.664 167.312C220.656 167.654 220.637 167.993 220.62 168.336C220.642 168.001 220.656 167.659 220.66 167.322L220.664 167.312Z" fill="white"/>
<path d="M159.364 182.833L159.483 182.888L159.542 182.916C159.486 182.875 159.427 182.853 159.364 182.833Z" fill="white"/>
<path d="M149.646 304.476C149.712 304.549 149.772 304.627 149.826 304.71C149.774 304.626 149.713 304.548 149.646 304.476ZM149.989 306.227C150.006 306.191 150.023 306.155 150.038 306.122C150.023 306.174 150.005 306.224 149.985 306.274C149.975 306.252 149.968 306.235 149.975 306.22L149.989 306.227ZM147.776 307.189L147.814 307.207C148.16 307.338 148.539 307.352 148.894 307.246C149.249 307.139 149.559 306.919 149.776 306.618C149.546 306.914 149.227 307.128 148.867 307.23C148.506 307.331 148.123 307.315 147.774 307.182L147.776 307.189Z" fill="white"/>
<path d="M260.669 281.374C262.201 275.706 267.948 217.983 267.948 217.983C268.353 211.502 268.543 205.005 268.413 198.51C268.236 189.353 268.72 180.217 269.476 171.092C270.28 161.506 270.259 151.87 269.414 142.29L266.543 110.057C264.853 91.0808 254.315 73.9598 238.006 64.1843L237.372 63.8118C221.202 54.3732 204.486 52.3654 186.616 57.6539C173.387 61.5789 162.332 69.0006 152.26 78.1662C139.293 89.9692 129.321 104.11 119.985 118.813C115.955 125.161 112.202 131.657 108.517 138.19C107.686 139.66 106.859 141.132 106.037 142.606C105.693 143.221 105.348 143.835 105.006 144.447C104.195 145.894 103.384 147.341 102.572 148.787C129.636 163.086 141.043 196.266 128.109 224.453L128.489 224.574L128.739 224.658L128.865 224.699L129.115 224.783L129.208 224.826C129.282 224.86 129.364 224.881 129.442 224.909C130.496 225.247 131.574 225.634 132.685 226.075C132.947 226.179 133.213 226.285 133.476 226.395L133.733 226.515L134.458 226.822L134.596 226.886L134.929 227.041C135.369 227.245 135.821 227.437 136.273 227.647C140.646 229.676 145.449 232.413 150.733 235.88C152.803 237.24 154.958 238.466 157.183 239.552L157.438 239.67C157.59 239.741 157.745 239.813 157.897 239.883L158.135 239.994L158.373 240.104C158.518 240.172 158.663 240.239 158.813 240.291C159.072 240.411 159.34 240.512 159.606 240.618L159.919 240.743L160.163 240.839L160.408 240.935C160.759 241.069 161.114 241.202 161.471 241.33C165.603 242.827 169.859 243.955 174.191 244.702C193.648 247.283 209.263 238.997 210.159 238.511C210.353 238.405 210.567 238.339 210.786 238.316C211.006 238.293 211.229 238.313 211.44 238.376C211.652 238.439 211.849 238.543 212.021 238.682C212.192 238.822 212.335 238.994 212.44 239.188C212.545 239.383 212.611 239.596 212.633 239.816C212.656 240.037 212.635 240.259 212.572 240.472C212.509 240.684 212.404 240.882 212.265 241.054C212.125 241.226 211.953 241.369 211.759 241.475C211.631 241.545 211.346 241.698 210.921 241.909C210.423 242.478 209.508 242.822 208.843 243.128C202.65 245.969 195.997 247.666 189.207 248.136C183.216 248.83 177.158 248.651 171.222 247.604C163.986 246.317 157.056 243.69 150.786 239.86C148.948 238.869 147.133 237.794 145.343 236.635C142.809 234.992 140.177 233.434 137.496 231.952C136.3 231.341 135.138 230.783 134.01 230.279L133.601 230.089C133.511 230.048 133.416 230.003 133.325 229.961L133.116 229.864L132.952 229.788L132.752 229.695L132.386 229.543L131.971 229.371L131.673 229.253L131.58 229.21C130.678 228.853 129.8 228.53 128.947 228.243L128.606 228.154L128.596 228.126C127.925 227.91 127.262 227.712 126.607 227.534C125.624 227.271 124.672 227.055 123.75 226.886C121.729 226.504 119.667 226.391 117.616 226.551C117.478 226.562 117.341 226.577 117.204 226.591L117.152 226.596L116.937 226.624C116.771 226.646 116.605 226.667 116.443 226.685L115.952 226.764C115.403 226.863 114.862 226.983 114.334 227.136C114.196 227.173 114.058 227.213 113.921 227.254C113.716 227.315 113.512 227.38 113.308 227.454C113.186 227.493 113.065 227.535 112.945 227.575L112.832 227.619C112.708 227.662 112.585 227.709 112.476 227.763C112.435 227.776 112.396 227.793 112.356 227.809C112.246 227.854 112.135 227.898 112.026 227.946C111.917 227.994 111.835 228.029 111.736 228.073L111.685 228.095C111.551 228.155 111.418 228.218 111.281 228.282L111.201 228.323C111.068 228.386 110.936 228.452 110.803 228.521C110.67 228.59 110.504 228.672 110.35 228.76C110.054 228.913 109.749 229.096 109.451 229.277C104.751 232.173 101.257 236.678 99.6202 241.955C99.5404 242.208 99.4631 242.462 99.3825 242.729C99.3019 242.996 99.23 243.238 99.1574 243.495C99.1546 243.503 99.1509 243.511 99.1463 243.519C99.0736 243.775 99.011 244.01 98.9462 244.255C98.8943 244.454 98.8435 244.651 98.795 244.849C98.762 244.97 98.7337 245.093 98.7031 245.215C98.6463 245.45 98.5917 245.679 98.5429 245.909C98.4942 246.139 98.447 246.34 98.4025 246.554C98.3442 246.817 98.2992 247.057 98.2511 247.31C98.2111 247.515 98.1723 247.723 98.1381 247.928C98.0766 248.272 98.0205 248.617 97.9699 248.963C97.9391 249.161 97.9106 249.359 97.8856 249.556C97.8535 249.794 97.8238 250.032 97.7976 250.269C97.7928 250.286 97.7906 250.304 97.7908 250.321C97.7671 250.522 97.7445 250.72 97.7253 250.917C97.7132 251.03 97.7046 251.142 97.696 251.254C97.6874 251.366 97.6802 251.401 97.6752 251.474C97.6608 251.629 97.6509 251.781 97.64 251.936C97.6291 252.09 97.6133 252.324 97.6022 252.516C97.5877 252.752 97.578 252.992 97.5611 253.227C97.5443 253.463 97.5464 253.708 97.5426 253.946C97.531 254.536 97.5371 255.119 97.5611 255.695C97.5665 255.889 97.5743 256.084 97.5776 256.282C97.5808 256.481 97.5948 256.644 97.614 256.827L97.622 256.903C97.6294 257.043 97.6403 257.181 97.6537 257.321C97.667 257.461 97.6714 257.619 97.6904 257.753C97.7094 257.886 97.7227 258.107 97.7346 258.281C97.8082 258.938 97.8993 259.589 98.0114 260.239C98.0454 260.446 98.0829 260.652 98.1215 260.855C98.1601 261.059 98.201 261.263 98.2443 261.469C98.2877 261.675 98.3416 261.882 98.3801 262.08C98.4185 262.278 98.4709 262.47 98.5197 262.664C98.553 262.804 98.591 262.946 98.6267 263.088C98.6768 263.285 98.7329 263.482 98.7889 263.679C100.052 266.752 101.646 269.678 103.542 272.403C104.076 273.181 104.621 273.943 105.176 274.69C105.307 274.869 105.44 275.044 105.573 275.219C106.127 275.951 106.693 276.667 107.271 277.367C107.414 277.543 107.556 277.717 107.702 277.889L107.988 278.227C108.104 278.368 108.224 278.508 108.343 278.644C108.72 279.078 109.1 279.506 109.483 279.927L109.934 280.426C110.085 280.591 110.236 280.758 110.387 280.927L110.435 280.978C110.629 281.184 110.824 281.387 111.02 281.588L111.427 282.007L111.738 282.322L112.148 282.733L112.349 282.924C112.547 283.121 112.745 283.317 112.957 283.514C113.169 283.711 113.375 283.914 113.591 284.098L114.102 284.573L114.141 284.608L114.167 284.621L114.476 284.901L114.596 285.011C114.938 285.321 115.279 285.624 115.619 285.921C115.826 286.098 116.013 286.263 116.212 286.431C116.485 286.665 116.763 286.896 117.045 287.128C117.262 287.306 117.478 287.482 117.694 287.655L118.182 288.044L118.738 288.485C118.758 288.497 118.777 288.511 118.793 288.528L118.919 288.624L119.311 288.925L119.825 289.314L120.537 289.842L121.262 290.367C126.22 293.55 131.398 296.377 136.757 298.825C140.581 300.6 144.685 302.322 149.068 303.993C149.207 304.046 149.338 304.118 149.458 304.206C149.543 304.266 149.622 304.335 149.693 304.411C149.761 304.483 149.821 304.561 149.873 304.645C149.987 304.82 150.066 305.016 150.107 305.22C150.116 305.266 150.123 305.311 150.127 305.357C150.126 305.362 150.124 305.366 150.121 305.369C150.125 305.401 150.127 305.433 150.126 305.464C150.131 305.505 150.132 305.547 150.13 305.588C150.131 305.629 150.127 305.668 150.125 305.71C150.12 305.724 150.114 305.738 150.106 305.751C150.102 305.791 150.095 305.832 150.085 305.871C150.085 305.874 150.084 305.876 150.084 305.878C150.083 305.88 150.081 305.882 150.079 305.883C150.07 305.935 150.057 305.986 150.04 306.036C150.025 306.07 150.008 306.105 149.992 306.141C149.975 306.177 149.979 306.167 149.973 306.182L149.966 306.196C149.917 306.314 149.854 306.426 149.777 306.529C149.56 306.829 149.25 307.05 148.895 307.156C148.54 307.263 148.161 307.249 147.815 307.117L147.777 307.1L147.465 306.981C146.892 306.761 146.326 306.541 145.767 306.321C142.107 304.883 138.635 303.402 135.352 301.878C132.068 300.354 128.999 298.802 126.144 297.219L126.207 297.295L125.228 296.707C123.74 295.866 122.313 295.017 120.945 294.16C120.474 293.866 120.01 293.57 119.552 293.273L118.9 292.846C118.437 292.541 117.979 292.232 117.531 291.92L117.495 291.904L116.961 291.534L116.437 291.163L116.394 291.143L116.052 290.901L116.024 290.887L115.498 290.507L114.952 290.106L114.335 289.642C114.139 289.497 113.946 289.352 113.757 289.203L113.251 288.812L112.722 288.395L112.257 288.02L111.77 287.623C111.445 287.356 111.128 287.093 110.814 286.823L110.345 286.419L109.884 286.017L109.43 285.612L108.984 285.208C108.696 284.944 108.412 284.678 108.133 284.413C107.854 284.147 107.547 283.85 107.261 283.567L106.848 283.155L106.44 282.74C106.036 282.326 105.642 281.911 105.259 281.49L104.779 280.96C104.721 280.898 104.664 280.834 104.608 280.767L104.198 280.287C104.099 280.175 104.011 280.067 103.911 279.951C103.768 279.786 103.631 279.621 103.495 279.453C103.358 279.286 103.215 279.115 103.078 278.944C102.979 278.82 102.882 278.699 102.787 278.574C98.5107 273.145 95.7855 267.278 94.689 261.13C94.6375 260.842 94.5884 260.555 94.5462 260.266L94.5377 260.216C94.2856 258.557 94.1476 256.883 94.1248 255.205L93.5619 255.396C84.3746 258.465 74.5714 259.184 65.0459 257.486C65.0017 257.712 64.96 257.939 64.9193 258.164L64.8807 258.378C64.8135 258.747 64.7511 259.118 64.6922 259.488L64.6513 259.745L64.5531 260.386C63.3866 268.277 63.545 276.229 64.1244 284.202L64.211 284.775L68.676 314.24C68.9304 315.92 69.6905 317.482 70.8548 318.716C72.0192 319.95 73.5323 320.798 75.1923 321.147L219.455 351.563C223.972 352.525 228.684 351.936 232.832 349.891C236.981 347.846 240.325 344.464 242.327 340.288C250.565 323.023 256.217 302.85 260.669 281.374ZM160.733 161.838C160.714 161.881 160.694 161.923 160.674 161.966C160.654 162.009 160.634 162.052 160.614 162.095L160.605 162.114L160.436 162.442L160.425 162.466C160.404 162.511 160.384 162.554 160.363 162.599C160.342 162.645 160.303 162.728 160.273 162.792C160.243 162.857 160.235 162.874 160.217 162.914C160.174 163.005 160.119 163.086 160.068 163.173L159.986 163.312L159.959 163.369C159.945 163.4 159.93 163.431 159.916 163.462L159.851 163.565C159.84 163.589 159.828 163.615 159.817 163.639C159.788 163.701 159.741 163.758 159.702 163.818C159.693 163.84 159.683 163.861 159.672 163.882C159.653 163.923 159.634 163.963 159.599 163.996C159.589 164.02 159.579 164.043 159.567 164.065C159.548 164.106 159.518 164.138 159.493 164.173C159.469 164.208 159.413 164.29 159.374 164.344C159.334 164.398 159.292 164.457 159.252 164.513C159.241 164.534 159.231 164.556 159.222 164.578L159.178 164.636L159.064 164.786C159.041 164.836 158.998 164.874 158.964 164.916C158.93 164.958 158.926 164.966 158.907 164.988L158.739 165.201C158.653 165.305 158.566 165.41 158.477 165.511C158.447 165.543 158.42 165.577 158.39 165.61C158.36 165.642 158.372 165.648 158.346 165.662L158.276 165.737C158.255 165.763 158.232 165.788 158.207 165.812C158.084 165.946 157.956 166.078 157.823 166.214C157.757 166.282 157.691 166.344 157.622 166.41C157.554 166.477 157.491 166.538 157.419 166.606L157.239 166.769C157.18 166.823 157.118 166.875 157.056 166.927C157.028 166.949 156.999 166.974 156.974 166.997C156.879 167.077 156.785 167.156 156.686 167.231C156.639 167.27 156.591 167.306 156.544 167.345L156.483 167.389L156.415 167.442C156.392 167.46 156.367 167.478 156.341 167.495L156.261 167.556L156.178 167.616L156.024 167.724C155.844 167.85 155.664 167.969 155.477 168.085C155.428 168.117 155.379 168.147 155.328 168.176C155.277 168.204 155.211 168.249 155.151 168.285C154.836 168.47 154.512 168.639 154.181 168.791C154.02 168.865 153.858 168.932 153.697 168.999L153.455 169.09C149.338 170.598 145.515 168.754 143.739 164.273C140.887 157.029 144.077 145.551 150.24 140.878C154.892 137.351 160.53 138.897 162.717 144.299C162.826 144.573 162.932 144.851 163.027 145.133L163.083 145.298L163.189 145.637C163.234 145.789 163.277 145.939 163.319 146.092C163.361 146.245 163.374 146.303 163.396 146.418L163.43 146.556L163.472 146.734L163.492 146.822L163.543 147.066L163.589 147.311C163.608 147.395 163.622 147.477 163.633 147.557C163.645 147.638 163.657 147.687 163.666 147.755C163.675 147.823 163.7 147.98 163.715 148.091L163.739 148.259L163.732 148.273C163.753 148.434 163.769 148.598 163.793 148.765L163.797 148.813L163.814 149.019L163.839 149.32L163.846 149.46C163.851 149.549 163.856 149.638 163.859 149.727L163.863 149.868C163.866 149.991 163.87 150.114 163.871 150.237L163.87 150.274C163.87 150.35 163.87 150.425 163.867 150.499C163.865 150.573 163.866 150.713 163.863 150.819L163.861 150.899C163.861 150.968 163.858 151.037 163.854 151.107L163.842 151.32C163.841 151.391 163.836 151.464 163.828 151.536C163.821 151.608 163.819 151.706 163.811 151.792L163.794 151.996C163.792 152.033 163.79 152.067 163.786 152.102L163.756 152.378C163.742 152.528 163.724 152.68 163.702 152.832C163.687 152.863 163.692 152.902 163.688 152.941C163.675 153.045 163.659 153.148 163.643 153.251L163.594 153.562L163.567 153.714C163.559 153.769 163.55 153.819 163.539 153.873L163.493 154.141C163.486 154.155 163.478 154.172 163.471 154.189C163.438 154.365 163.4 154.541 163.361 154.718C163.349 154.744 163.337 154.77 163.341 154.804C163.309 154.955 163.272 155.103 163.236 155.254C163.201 155.406 163.162 155.565 163.119 155.719L163.1 155.797L163.025 156.072C162.987 156.203 162.952 156.329 162.909 156.471L162.819 156.777L162.766 156.947L162.736 157.011C162.7 157.09 162.683 157.181 162.656 157.264C162.629 157.347 162.591 157.469 162.555 157.571C162.519 157.673 162.47 157.821 162.43 157.933C162.389 158.045 162.34 158.182 162.3 158.299C162.233 158.488 162.159 158.678 162.087 158.87C162.015 159.063 161.937 159.256 161.857 159.448L161.846 159.472C161.696 159.851 161.534 160.231 161.363 160.619C161.324 160.702 161.285 160.786 161.252 160.857L161.135 161.11C161.108 161.168 161.083 161.223 161.057 161.277C161.032 161.332 161.019 161.359 161.001 161.399C160.9 161.534 160.81 161.68 160.733 161.838ZM189.565 199.499C182.021 203.044 174.518 202.636 166.954 199.357C163.401 197.418 159.942 195.294 157.244 192.241L157.003 191.964C156.844 191.777 156.688 191.589 156.535 191.396L156.31 191.103C156.111 190.84 155.917 190.573 155.727 190.296C155.537 190.02 155.357 189.742 155.175 189.46C155.089 189.322 155.015 189.183 154.928 189.038L154.771 188.754L154.631 188.471C154.564 188.327 154.499 188.187 154.444 188.045C153.77 186.381 153.826 184.722 155.782 183.447C156.109 183.233 156.456 183.054 156.82 182.913C156.985 182.848 157.154 182.793 157.327 182.749C157.412 182.727 157.496 182.708 157.578 182.694C157.742 182.664 157.909 182.644 158.076 182.636C158.238 182.627 158.401 182.631 158.563 182.647C158.724 182.661 158.883 182.688 159.04 182.726L159.218 182.774L159.356 182.818C159.416 182.846 159.473 182.872 159.542 182.886L159.649 182.936C159.794 182.998 159.935 183.069 160.07 183.149C160.184 183.202 160.297 183.283 160.394 183.355C160.572 183.477 160.742 183.611 160.902 183.756C161.212 184.032 161.497 184.335 161.754 184.661C168.363 192.927 176.661 195.477 186.731 191.904C189.184 191.036 191.339 191.433 192.339 194.114C193.338 196.796 191.894 198.406 189.563 199.504L189.565 199.499ZM218.397 176.496C218.365 176.565 218.334 176.632 218.285 176.693L218.177 176.89C217.667 177.813 217.175 178.744 216.61 179.642C215.121 182.053 213.102 183.813 210.966 184.707C210.848 184.756 210.73 184.805 210.611 184.849C209.765 185.172 208.871 185.352 207.967 185.382C207.766 185.39 207.565 185.387 207.365 185.375C207.165 185.364 206.891 185.338 206.654 185.3C206.418 185.263 206.184 185.214 205.954 185.152C205.866 185.129 205.78 185.103 205.699 185.078C205.003 184.853 204.347 184.518 203.756 184.086L203.594 183.967C203.425 183.84 203.261 183.702 203.098 183.56C203.016 183.487 202.937 183.416 202.858 183.336C201.682 182.177 200.793 180.758 200.261 179.193C200.219 179.078 200.181 178.962 200.134 178.844L200.015 178.476C199.875 177.983 199.767 177.482 199.692 176.975C199.652 176.718 199.621 176.46 199.598 176.198C199.576 175.935 199.555 175.667 199.554 175.403C199.539 174.743 199.54 174.086 199.558 173.436C199.572 173.045 199.589 172.659 199.614 172.27C199.657 171.629 199.716 170.99 199.798 170.358C199.846 169.98 199.903 169.603 199.97 169.228C199.99 169.104 200.013 168.979 200.036 168.856C200.082 168.608 200.132 168.361 200.186 168.114C200.24 167.867 200.298 167.624 200.358 167.382C200.418 167.14 200.486 166.896 200.554 166.655C200.622 166.414 200.697 166.173 200.772 165.936C200.848 165.698 200.911 165.519 200.984 165.312C201.218 164.65 201.486 164 201.786 163.365L201.826 163.279C201.876 163.171 201.927 163.062 201.977 162.954C202.061 162.773 202.16 162.596 202.255 162.417C202.566 161.835 202.907 161.269 203.276 160.721L203.353 160.612C203.557 160.31 203.77 160.011 203.997 159.716C204.445 159.128 204.923 158.565 205.431 158.028C206.722 156.661 208.152 155.579 209.751 155.019L210.037 154.926C210.324 154.838 210.616 154.767 210.911 154.713C212.079 154.515 213.277 154.587 214.412 154.926C218.093 155.973 219.598 159.018 220.225 162.426C220.412 163.428 220.537 164.441 220.599 165.458C220.629 165.887 220.643 166.317 220.644 166.744C220.644 166.944 220.645 167.141 220.64 167.339C220.634 167.681 220.613 168.019 220.596 168.362L220.582 168.562C220.562 168.81 220.539 169.058 220.524 169.309C220.384 170.583 220.127 171.843 219.758 173.071C219.717 173.209 219.676 173.349 219.63 173.484C219.585 173.62 219.54 173.759 219.494 173.896C219.184 174.787 218.817 175.657 218.395 176.501L218.397 176.496Z" fill="white"/>
<path d="M201.839 163.256L201.8 163.342C201.863 163.206 201.926 163.07 201.99 162.931C201.943 163.04 201.889 163.149 201.839 163.256Z" fill="white"/>
<path d="M94.5366 260.343L94.5281 260.292C94.276 258.634 94.138 256.959 94.1152 255.281L94.5366 260.343Z" fill="white"/>
<path d="M160.947 161.377C160.873 161.536 160.8 161.695 160.726 161.854C160.706 161.897 160.686 161.94 160.666 161.983C160.646 162.026 160.626 162.069 160.606 162.112L160.597 162.131L160.428 162.458L160.417 162.482C160.396 162.528 160.376 162.571 160.355 162.616C160.334 162.661 160.295 162.745 160.265 162.809C160.235 162.874 160.228 162.89 160.209 162.931C160.167 163.021 160.111 163.103 160.06 163.189L159.978 163.328L159.952 163.385C159.937 163.417 159.923 163.448 159.908 163.479L159.843 163.582C159.832 163.606 159.82 163.632 159.809 163.656C159.78 163.718 159.733 163.774 159.694 163.834C159.685 163.856 159.675 163.878 159.664 163.899C159.645 163.939 159.627 163.98 159.591 164.013C159.581 164.036 159.571 164.059 159.559 164.082C159.54 164.122 159.51 164.155 159.486 164.19C159.461 164.225 159.406 164.306 159.366 164.361C159.326 164.415 159.285 164.474 159.244 164.53C159.233 164.551 159.223 164.573 159.214 164.595L159.17 164.652L159.057 164.803C159.033 164.853 158.99 164.891 158.956 164.933C158.922 164.975 158.918 164.982 158.899 165.005L158.731 165.217C158.645 165.322 158.559 165.427 158.469 165.527C158.439 165.56 158.412 165.594 158.382 165.626C158.353 165.659 158.365 165.665 158.338 165.678L158.268 165.753C158.247 165.78 158.224 165.805 158.199 165.828C158.076 165.963 157.948 166.095 157.816 166.23C157.75 166.298 157.683 166.36 157.615 166.427C157.546 166.494 157.483 166.555 157.411 166.623L157.231 166.786C157.172 166.839 157.11 166.892 157.048 166.944C157.02 166.966 156.992 166.99 156.966 167.014C156.931 167.046 156.894 167.076 156.855 167.104C156.798 167.153 156.738 167.2 156.678 167.248C156.619 167.296 156.583 167.323 156.536 167.362L156.475 167.406L156.407 167.459C156.384 167.477 156.359 167.494 156.334 167.511L156.253 167.573L156.17 167.633L156.016 167.741C155.836 167.866 155.656 167.986 155.469 168.102C155.42 168.134 155.371 168.164 155.321 168.192C155.27 168.221 155.203 168.265 155.143 168.301C154.828 168.487 154.505 168.656 154.173 168.808C154.012 168.881 153.851 168.948 153.689 169.016L153.448 169.106C149.33 170.614 145.507 168.77 143.732 164.29C140.88 157.046 144.07 145.568 150.232 140.894C154.885 137.367 160.523 138.914 162.709 144.316C162.819 144.59 162.924 144.868 163.019 145.15L163.075 145.315L163.181 145.654C163.226 145.806 163.269 145.956 163.311 146.109C163.353 146.262 163.366 146.32 163.388 146.435L163.423 146.572L163.464 146.751L163.484 146.839L163.536 147.083L163.581 147.327C163.599 147.408 163.613 147.49 163.626 147.574C163.639 147.658 163.649 147.704 163.658 147.772C163.667 147.84 163.693 147.997 163.708 148.108L163.731 148.275L163.724 148.29C163.742 148.452 163.762 148.614 163.785 148.782L163.789 148.83L163.806 149.035L163.831 149.337L163.839 149.477C163.844 149.566 163.848 149.655 163.851 149.743L163.855 149.884C163.858 150.008 163.862 150.131 163.863 150.253L163.863 150.291C163.862 150.366 163.862 150.441 163.86 150.516C163.857 150.59 163.859 150.73 163.856 150.836L163.853 150.916C163.853 150.985 163.85 151.053 163.846 151.124L163.835 151.336C163.833 151.408 163.828 151.481 163.821 151.553C163.813 151.625 163.811 151.723 163.803 151.809L163.787 152.013C163.784 152.049 163.783 152.083 163.778 152.119L163.748 152.395C163.734 152.545 163.716 152.696 163.694 152.848C163.679 152.879 163.684 152.919 163.68 152.958C163.667 153.062 163.651 153.165 163.635 153.268L163.586 153.578L163.559 153.731C163.551 153.785 163.542 153.836 163.532 153.889L163.485 154.158C163.478 154.172 163.471 154.189 163.463 154.205C163.43 154.382 163.392 154.558 163.353 154.734C163.341 154.761 163.329 154.787 163.333 154.821C163.301 154.971 163.264 155.119 163.229 155.271C163.193 155.423 163.152 155.58 163.111 155.736L163.092 155.814L163.017 156.089C162.979 156.219 162.944 156.345 162.901 156.488L162.811 156.794L162.758 156.964L162.728 157.028C162.692 157.107 162.676 157.198 162.649 157.281C162.622 157.364 162.583 157.485 162.547 157.587C162.511 157.69 162.462 157.838 162.422 157.95C162.382 158.062 162.333 158.198 162.293 158.316C162.225 158.505 162.152 158.694 162.08 158.887C162.008 159.08 161.93 159.273 161.849 159.465L161.838 159.488C161.688 159.868 161.526 160.248 161.355 160.636C161.316 160.719 161.277 160.803 161.244 160.874L161.127 161.127C161.1 161.184 161.075 161.239 161.049 161.294C161.024 161.349 160.966 161.337 160.947 161.377Z" fill="white"/>
<path d="M189.563 199.504C182.019 203.049 174.516 202.641 166.952 199.362C163.399 197.423 159.94 195.299 157.242 192.246L157.001 191.969C156.842 191.782 156.686 191.594 156.533 191.401L156.307 191.108C156.109 190.844 155.914 190.577 155.725 190.301C155.535 190.024 155.356 189.744 155.173 189.465C155.087 189.326 155.012 189.188 154.925 189.046L154.768 188.761L154.627 188.478C154.561 188.334 154.496 188.194 154.44 188.052C153.767 186.388 153.822 184.73 155.779 183.454C156.105 183.24 156.453 183.062 156.816 182.921C156.982 182.855 157.151 182.8 157.324 182.756C157.409 182.735 157.493 182.716 157.574 182.701C157.739 182.671 157.906 182.651 158.073 182.643C158.235 182.634 158.398 182.638 158.559 182.654C158.72 182.668 158.88 182.695 159.037 182.734L159.215 182.781L159.353 182.825L159.472 182.88L159.532 182.908L159.71 182.991C159.83 183.044 159.947 183.104 160.06 183.171C160.174 183.224 160.287 183.305 160.384 183.376C160.562 183.498 160.732 183.632 160.892 183.777C161.202 184.054 161.487 184.357 161.744 184.683C168.353 192.949 176.651 195.498 186.721 191.925C189.174 191.057 191.329 191.454 192.329 194.136C193.328 196.818 191.894 198.406 189.563 199.504Z" fill="white"/>
<path d="M218.395 176.501C218.363 176.57 218.332 176.637 218.283 176.698L218.175 176.894C217.665 177.818 217.172 178.749 216.608 179.647C215.119 182.058 213.099 183.818 210.964 184.711C210.846 184.761 210.727 184.81 210.609 184.854C209.762 185.176 208.869 185.357 207.964 185.387C207.764 185.395 207.563 185.392 207.363 185.38C207.163 185.369 206.889 185.343 206.652 185.305C206.415 185.268 206.184 185.216 205.952 185.155L205.697 185.082C205.001 184.858 204.345 184.523 203.754 184.091L203.592 183.972C203.423 183.844 203.258 183.707 203.096 183.565C203.014 183.492 202.933 183.417 202.856 183.341C201.68 182.181 200.791 180.763 200.259 179.198C200.218 179.08 200.177 178.963 200.132 178.849L200.013 178.481C199.873 177.988 199.764 177.487 199.689 176.979C199.649 176.723 199.619 176.465 199.596 176.202C199.573 175.94 199.553 175.672 199.551 175.408C199.536 174.748 199.538 174.091 199.556 173.441C199.57 173.05 199.587 172.664 199.611 172.275C199.655 171.634 199.714 170.994 199.796 170.363C199.847 169.986 199.903 169.609 199.968 169.233C199.988 169.109 200.011 168.984 200.033 168.861C200.082 168.613 200.13 168.366 200.184 168.119C200.238 167.871 200.296 167.628 200.356 167.387C200.416 167.145 200.483 166.901 200.552 166.66C200.62 166.419 200.694 166.178 200.77 165.94C200.845 165.703 200.909 165.523 200.981 165.317C201.216 164.655 201.484 164.005 201.784 163.369C201.847 163.233 201.91 163.097 201.974 162.959C202.058 162.778 202.158 162.601 202.253 162.421C202.564 161.847 202.904 161.282 203.274 160.726L203.35 160.617C203.554 160.314 203.768 160.016 203.995 159.721C204.442 159.133 204.921 158.569 205.429 158.032C206.72 156.665 208.15 155.584 209.749 155.024L210.035 154.93C210.322 154.843 210.613 154.772 210.908 154.718C212.077 154.519 213.275 154.592 214.41 154.931C218.091 155.978 219.596 159.022 220.223 162.431C220.41 163.433 220.535 164.445 220.597 165.463C220.623 165.893 220.638 166.321 220.642 166.748C220.642 166.948 220.643 167.146 220.638 167.344C220.63 167.685 220.611 168.024 220.594 168.367L220.579 168.566C220.559 168.815 220.537 169.063 220.522 169.314C220.381 170.588 220.125 171.848 219.756 173.076C219.715 173.213 219.673 173.354 219.628 173.489C219.582 173.624 219.538 173.763 219.492 173.901C219.182 174.79 218.816 175.659 218.395 176.501Z" fill="white"/>
<path d="M218.393 176.5L218.283 176.698L218.175 176.894C217.665 177.818 217.172 178.749 216.608 179.647C215.119 182.058 213.099 183.818 210.964 184.711C210.846 184.761 210.727 184.81 210.609 184.854C209.762 185.176 208.869 185.356 207.964 185.387C207.764 185.395 207.563 185.392 207.363 185.38C207.163 185.369 206.889 185.343 206.652 185.305C206.416 185.268 206.182 185.219 205.951 185.157C205.864 185.134 205.777 185.108 205.697 185.082C205.001 184.858 204.345 184.523 203.754 184.091L203.592 183.972C203.423 183.844 203.258 183.707 203.096 183.565C203.014 183.492 202.933 183.417 202.856 183.341C201.68 182.181 200.791 180.763 200.259 179.198C200.218 179.08 200.177 178.963 200.132 178.849L200.013 178.481C199.875 177.988 199.766 177.486 199.689 176.979C199.649 176.723 199.619 176.465 199.596 176.202C199.573 175.94 199.553 175.672 199.551 175.408C199.536 174.748 199.538 174.091 199.556 173.441C199.57 173.05 199.587 172.664 199.611 172.275C199.655 171.634 199.714 170.994 199.796 170.363C199.844 169.985 199.901 169.608 199.968 169.233C199.988 169.109 200.011 168.984 200.033 168.861C200.082 168.613 200.13 168.366 200.184 168.119C200.238 167.871 200.296 167.628 200.356 167.387C200.416 167.145 200.483 166.901 200.552 166.66C200.62 166.419 200.694 166.178 200.77 165.94C200.845 165.703 200.909 165.523 200.981 165.317C201.216 164.655 201.484 164.005 201.784 163.369L201.824 163.283C201.874 163.176 201.924 163.066 201.974 162.959C202.058 162.778 202.158 162.601 202.253 162.421C202.564 161.839 202.905 161.274 203.274 160.726L203.35 160.617C203.554 160.314 203.768 160.016 203.995 159.721C204.442 159.133 204.921 158.569 205.429 158.032C206.72 156.665 208.15 155.584 209.749 155.024L210.035 154.93C210.322 154.843 210.613 154.772 210.908 154.718C212.077 154.519 213.275 154.592 214.41 154.931C218.091 155.978 219.596 159.022 220.223 162.431C220.41 163.433 220.535 164.445 220.597 165.463C220.626 165.891 220.641 166.322 220.642 166.748C220.642 166.948 220.643 167.146 220.638 167.344C220.632 167.686 220.611 168.024 220.594 168.367L220.579 168.566C220.559 168.815 220.537 169.063 220.522 169.314C220.381 170.588 220.125 171.848 219.756 173.076C219.715 173.213 219.673 173.354 219.628 173.489C219.582 173.624 219.538 173.763 219.491 173.901C219.182 174.79 218.814 175.658 218.393 176.5Z" fill="#3B82F6"/>
<path d="M160.667 161.969C160.647 162.012 160.627 162.055 160.607 162.098L160.598 162.117L160.429 162.444L160.418 162.468C160.397 162.513 160.377 162.556 160.356 162.602C160.335 162.647 160.296 162.731 160.266 162.795C160.236 162.859 160.228 162.876 160.21 162.917C160.168 163.007 160.112 163.089 160.061 163.175L159.979 163.314L159.952 163.371C159.921 163.438 159.874 163.497 159.834 163.563C159.823 163.587 159.811 163.613 159.8 163.637C159.771 163.699 159.725 163.756 159.685 163.816C159.677 163.838 159.667 163.859 159.655 163.88L159.538 164.058C159.519 164.098 159.49 164.131 159.465 164.166C159.44 164.201 159.385 164.282 159.345 164.336C159.306 164.391 159.264 164.45 159.223 164.506C159.212 164.527 159.202 164.548 159.193 164.57L159.149 164.628L159.036 164.779C159.013 164.829 158.969 164.867 158.935 164.909C158.901 164.951 158.898 164.958 158.879 164.981L158.711 165.193C158.624 165.298 158.538 165.403 158.448 165.503C158.419 165.536 158.391 165.57 158.362 165.602C158.332 165.635 158.288 165.687 158.248 165.729C158.227 165.756 158.203 165.781 158.178 165.804C158.055 165.939 157.927 166.071 157.795 166.206C157.729 166.274 157.663 166.336 157.594 166.403C157.525 166.47 157.463 166.531 157.39 166.599L157.211 166.762C157.151 166.815 157.089 166.868 157.027 166.92C157 166.942 156.971 166.966 156.946 166.99C156.851 167.07 156.757 167.148 156.658 167.224C156.611 167.263 156.562 167.299 156.515 167.338L156.454 167.382L156.387 167.435C156.364 167.453 156.338 167.47 156.313 167.487L156.232 167.549L156.15 167.609L155.995 167.717C155.816 167.842 155.636 167.962 155.449 168.078C155.399 168.11 155.351 168.14 155.3 168.168C155.249 168.197 155.182 168.241 155.122 168.277C154.808 168.463 154.484 168.632 154.152 168.784C153.991 168.857 153.83 168.924 153.669 168.992L153.427 169.082C149.309 170.59 145.486 168.746 143.711 164.266C140.859 157.021 144.049 145.544 150.211 140.87C154.864 137.343 160.502 138.89 162.688 144.292C162.798 144.566 162.903 144.844 162.998 145.126L163.054 145.291L163.16 145.63C163.206 145.782 163.249 145.932 163.29 146.085C163.332 146.238 163.346 146.296 163.368 146.411L163.402 146.548L163.443 146.727L163.464 146.815L163.515 147.059L163.561 147.303C163.578 147.384 163.592 147.466 163.605 147.55C163.618 147.634 163.629 147.68 163.638 147.748C163.647 147.816 163.672 147.973 163.687 148.084L163.71 148.251L163.704 148.266C163.721 148.427 163.741 148.59 163.765 148.758L163.768 148.806L163.786 149.011L163.811 149.313L163.818 149.453C163.823 149.542 163.828 149.631 163.83 149.719L163.834 149.86C163.838 149.984 163.841 150.107 163.842 150.229L163.842 150.267C163.842 150.342 163.842 150.417 163.839 150.492C163.836 150.566 163.838 150.706 163.835 150.812L163.833 150.892C163.832 150.961 163.829 151.029 163.826 151.1L163.814 151.312C163.812 151.384 163.807 151.457 163.8 151.529C163.793 151.601 163.791 151.699 163.783 151.785L163.766 151.989C163.763 152.025 163.762 152.059 163.757 152.095L163.727 152.371C163.714 152.521 163.696 152.672 163.673 152.824C163.659 152.855 163.663 152.895 163.66 152.934C163.646 153.038 163.63 153.141 163.614 153.243L163.566 153.554L163.538 153.707C163.53 153.761 163.521 153.812 163.511 153.865L163.464 154.134C163.458 154.148 163.45 154.165 163.442 154.181C163.41 154.358 163.371 154.534 163.333 154.71C163.321 154.737 163.308 154.763 163.313 154.797C163.281 154.947 163.244 155.095 163.208 155.247C163.172 155.399 163.131 155.556 163.091 155.712L163.072 155.79L162.996 156.065C162.959 156.195 162.924 156.321 162.881 156.464L162.791 156.77L162.738 156.94L162.708 157.004C162.671 157.083 162.655 157.174 162.628 157.257C162.601 157.34 162.562 157.461 162.526 157.563C162.49 157.666 162.442 157.814 162.401 157.926C162.361 158.038 162.312 158.174 162.272 158.292C162.204 158.481 162.131 158.67 162.059 158.863C161.987 159.056 161.909 159.249 161.829 159.44L161.818 159.464C161.665 159.843 161.502 160.225 161.332 160.61C161.254 160.777 161.191 160.951 161.118 161.12C160.944 161.384 160.809 161.681 160.667 161.969Z" fill="#3B82F6"/>
<path d="M189.563 199.504C182.019 203.049 174.516 202.641 166.952 199.362C163.399 197.423 159.94 195.299 157.242 192.246L157.001 191.969C156.842 191.782 156.686 191.594 156.533 191.401L156.307 191.108C156.109 190.845 155.914 190.578 155.725 190.301C155.535 190.024 155.354 189.746 155.173 189.465C155.087 189.326 155.012 189.188 154.926 189.043L154.769 188.759L154.628 188.476C154.562 188.332 154.497 188.192 154.442 188.05C153.768 186.386 153.824 184.727 155.78 183.452C156.106 183.238 156.454 183.059 156.817 182.918C156.983 182.853 157.152 182.798 157.325 182.754C157.41 182.732 157.494 182.713 157.576 182.699C157.74 182.668 157.907 182.649 158.074 182.64C158.236 182.632 158.399 182.635 158.56 182.652C158.721 182.669 158.881 182.695 159.038 182.731L159.216 182.779L159.354 182.823L159.473 182.878L159.533 182.906L159.711 182.988C159.831 183.041 159.948 183.101 160.061 183.168C160.176 183.221 160.288 183.303 160.385 183.374C160.562 183.498 160.732 183.632 160.893 183.775C161.203 184.051 161.488 184.354 161.745 184.68C168.354 192.946 176.652 195.496 186.722 191.923C189.175 191.055 191.33 191.452 192.33 194.134C193.329 196.816 191.894 198.406 189.563 199.504Z" fill="#3B82F6"/>
<path d="M126.201 297.382L125.222 296.794L126.14 297.308L126.201 297.382Z" fill="white"/>
<path d="M130.081 204.377C129.66 204.182 129.399 203.928 129.866 203.501L130.081 204.377Z" fill="#DDE9FC"/>
<path d="M219.496 173.866C219.543 173.728 219.59 173.59 219.633 173.454C219.676 173.317 219.72 173.178 219.761 173.04C220.13 171.812 220.386 170.553 220.527 169.278C220.554 169.033 220.576 168.785 220.584 168.531L220.599 168.332C220.621 167.991 220.628 167.646 220.643 167.308C220.648 167.11 220.647 166.913 220.647 166.713C220.651 166.289 220.636 165.861 220.602 165.428C220.54 164.41 220.415 163.397 220.228 162.395C219.6 158.987 218.095 155.943 214.415 154.896C213.28 154.557 212.082 154.484 210.913 154.683C210.618 154.736 210.327 154.807 210.04 154.895L209.754 154.988C208.155 155.548 206.725 156.63 205.434 157.997C204.926 158.534 204.447 159.098 203.999 159.686C203.773 159.981 203.559 160.279 203.355 160.581L203.279 160.691C202.908 161.248 202.568 161.813 202.258 162.386C202.172 162.57 202.068 162.744 201.979 162.924C201.915 163.062 201.852 163.198 201.789 163.334C201.489 163.969 201.221 164.619 200.986 165.281C200.914 165.487 200.843 165.695 200.775 165.905C200.699 166.143 200.625 166.384 200.557 166.624C200.488 166.865 200.422 167.107 200.361 167.351C200.3 167.595 200.244 167.839 200.189 168.083C200.134 168.327 200.087 168.578 200.038 168.825C200.016 168.948 199.992 169.074 199.972 169.198C199.908 169.574 199.851 169.951 199.801 170.327C199.719 170.959 199.659 171.598 199.616 172.239C199.592 172.628 199.575 173.015 199.561 173.405C199.547 174.057 199.534 174.709 199.556 175.372C199.562 175.639 199.578 175.904 199.601 176.167C199.623 176.43 199.649 176.685 199.694 176.944C199.769 177.451 199.877 177.953 200.018 178.445L200.136 178.814C200.174 178.932 200.215 179.05 200.264 179.163C200.796 180.728 201.685 182.146 202.861 183.305C202.938 183.382 203.019 183.457 203.101 183.53C203.263 183.672 203.428 183.809 203.597 183.937L203.759 184.055C204.35 184.487 205.005 184.822 205.702 185.047L205.957 185.119C206.189 185.18 206.423 185.231 206.657 185.27C206.89 185.309 207.131 185.331 207.368 185.345C207.604 185.359 207.769 185.36 207.969 185.351C208.874 185.321 209.767 185.141 210.614 184.818C210.735 184.776 210.853 184.726 210.969 184.676C213.118 183.783 215.124 182.023 216.613 179.611C217.17 178.71 217.663 177.779 218.18 176.859L218.288 176.663C218.32 176.594 218.363 176.532 218.4 176.465C218.821 175.623 219.187 174.755 219.496 173.866ZM192.354 194.119C191.352 191.442 189.2 191.04 186.747 191.908C176.664 195.484 168.361 192.944 161.769 184.666C161.512 184.34 161.227 184.037 160.917 183.76C160.757 183.615 160.587 183.481 160.41 183.359C160.303 183.283 160.188 183.213 160.086 183.153C159.972 183.087 159.856 183.026 159.735 182.973L159.557 182.891L159.497 182.863L159.378 182.808L159.24 182.764L159.062 182.716C158.905 182.678 158.746 182.651 158.585 182.637C158.423 182.621 158.26 182.617 158.098 182.625C157.931 182.634 157.764 182.654 157.6 182.684C157.518 182.698 157.434 182.717 157.349 182.739C157.176 182.783 157.007 182.838 156.842 182.903C156.478 183.044 156.131 183.223 155.804 183.437C153.853 184.7 153.798 186.359 154.466 188.035C154.521 188.177 154.586 188.317 154.653 188.461L154.793 188.744L154.95 189.028C155.031 189.167 155.11 189.308 155.198 189.448C155.375 189.739 155.557 190.02 155.75 190.284C155.943 190.547 156.134 190.827 156.333 191.091L156.558 191.384C156.711 191.577 156.867 191.765 157.026 191.952L157.267 192.229C159.958 195.279 163.417 197.403 166.977 199.345C174.549 202.627 182.039 203.029 189.588 199.487C191.894 198.406 193.37 196.82 192.361 194.122L192.354 194.119ZM160.994 161.251C161.02 161.196 161.045 161.141 161.072 161.084L161.189 160.831C161.227 160.75 161.265 160.667 161.3 160.593C161.478 160.208 161.633 159.825 161.783 159.445L161.794 159.421C161.882 159.233 161.95 159.036 162.024 158.844C162.099 158.652 162.17 158.462 162.237 158.273C162.28 158.151 162.327 158.025 162.367 157.907C162.407 157.789 162.454 157.657 162.492 157.544C162.53 157.432 162.561 157.339 162.593 157.238C162.626 157.137 162.647 157.066 162.673 156.985L162.703 156.921L162.756 156.751L162.846 156.445C162.884 156.312 162.919 156.188 162.962 156.046L163.037 155.771L163.056 155.693C163.096 155.537 163.137 155.382 163.173 155.228C163.21 155.074 163.246 154.928 163.278 154.778C163.29 154.752 163.303 154.725 163.298 154.691C163.338 154.513 163.376 154.336 163.408 154.162C163.415 154.146 163.423 154.129 163.43 154.115L163.476 153.846C163.498 153.799 163.496 153.742 163.504 153.688L163.531 153.535L163.58 153.225C163.596 153.122 163.612 153.019 163.625 152.915C163.641 152.882 163.634 152.841 163.639 152.805C163.659 152.652 163.677 152.501 163.693 152.352L163.723 152.076C163.737 152.045 163.729 152.006 163.731 151.97L163.748 151.766C163.756 151.68 163.761 151.595 163.765 151.51C163.77 151.425 163.778 151.365 163.779 151.293L163.791 151.081C163.795 151.01 163.798 150.942 163.798 150.873L163.8 150.793C163.803 150.687 163.804 150.58 163.804 150.473C163.805 150.366 163.807 150.323 163.808 150.248L163.808 150.21C163.807 150.088 163.803 149.965 163.8 149.841L163.796 149.7C163.793 149.612 163.788 149.523 163.783 149.434L163.776 149.294L163.751 148.992L163.734 148.787L163.73 148.739C163.714 148.575 163.694 148.412 163.669 148.247L163.676 148.232L163.652 148.065C163.637 147.954 163.624 147.84 163.603 147.729C163.582 147.618 163.583 147.598 163.57 147.531C163.558 147.465 163.543 147.365 163.526 147.284L163.48 147.04L163.429 146.796L163.409 146.708L163.367 146.529L163.333 146.392C163.308 146.284 163.281 146.179 163.256 146.066C163.23 145.952 163.171 145.763 163.126 145.611L163.02 145.272L162.964 145.107C162.869 144.825 162.764 144.547 162.654 144.273C160.467 138.871 154.829 137.324 150.177 140.851C144.012 145.529 140.824 157.002 143.676 164.247C145.44 168.722 149.275 170.571 153.392 169.064L153.634 168.973C153.794 168.908 153.959 168.833 154.118 168.765C154.449 168.613 154.773 168.444 155.088 168.258C155.148 168.222 155.208 168.186 155.265 168.149C155.323 168.112 155.365 168.091 155.414 168.059C155.601 167.943 155.781 167.823 155.961 167.698L156.115 167.59L156.198 167.53L156.278 167.468C156.304 167.451 156.329 167.434 156.352 167.416L156.42 167.363L156.481 167.319C156.528 167.28 156.576 167.244 156.623 167.205C156.67 167.166 156.743 167.11 156.8 167.061C156.839 167.033 156.876 167.003 156.911 166.971C156.936 166.947 156.965 166.923 156.993 166.901C157.055 166.849 157.117 166.796 157.176 166.743L157.356 166.58C157.426 166.516 157.492 166.454 157.559 166.384C157.627 166.314 157.693 166.258 157.761 166.187C157.891 166.057 158.018 165.924 158.144 165.785C158.169 165.762 158.192 165.737 158.213 165.71L158.283 165.635C158.293 165.614 158.302 165.595 158.327 165.583C158.353 165.572 158.384 165.517 158.414 165.484C158.505 165.382 158.591 165.277 158.676 165.174L158.844 164.962C158.856 164.936 158.868 164.91 158.901 164.89C158.933 164.87 158.966 164.804 159.001 164.76L159.115 164.609L159.159 164.552C159.168 164.53 159.178 164.508 159.189 164.487C159.217 164.425 159.269 164.376 159.311 164.318C159.353 164.259 159.389 164.206 159.43 164.147C159.472 164.088 159.48 164.077 159.504 164.039C159.516 164.016 159.526 163.993 159.536 163.97C159.555 163.929 159.573 163.889 159.609 163.856C159.62 163.835 159.63 163.813 159.639 163.791C159.669 163.727 159.718 163.671 159.754 163.613C159.765 163.589 159.777 163.563 159.788 163.539L159.853 163.436C159.867 163.405 159.882 163.374 159.896 163.343L159.923 163.285L160.005 163.146C160.047 163.056 160.104 162.975 160.154 162.888C160.172 162.847 160.191 162.807 160.21 162.766C160.229 162.726 160.27 162.637 160.3 162.573C160.33 162.508 160.341 162.485 160.362 162.439L160.373 162.415L160.542 162.088L160.551 162.069C160.571 162.026 160.591 161.983 160.611 161.94C160.631 161.897 160.651 161.854 160.671 161.811C160.744 161.652 160.818 161.493 160.892 161.334C160.966 161.337 160.985 161.296 161.001 161.254L160.994 161.251Z" fill="#3B82F6"/>
<path d="M102.568 148.796C101.673 148.323 100.764 147.872 99.839 147.443C70.7531 133.944 36.2015 146.647 22.6659 175.813C9.1303 204.979 21.7348 239.566 50.8207 253.065C64.2225 259.309 79.5132 260.171 93.5523 255.473L94.1152 255.281C94.0417 250.692 94.788 245.906 96.3454 240.986C98.2309 234.93 102.246 229.76 107.643 226.437C112.684 223.371 117.977 222.47 124.307 223.604C125.583 223.835 126.846 224.131 128.091 224.491L128.107 224.457C141.038 196.275 129.629 163.101 102.568 148.796ZM92.1665 212.22L77.1537 205.253L70.1661 220.309C69.7456 221.215 68.9834 221.918 68.0471 222.262C67.1108 222.606 66.0772 222.564 65.1736 222.144C64.27 221.725 63.5704 220.963 63.2288 220.026C62.8872 219.088 62.9316 218.053 63.3521 217.147L70.3396 202.09L55.3244 195.122C54.4208 194.702 53.7213 193.94 53.3797 193.003C53.0381 192.066 53.0824 191.03 53.5029 190.124C53.9234 189.218 54.6857 188.516 55.622 188.172C56.5583 187.827 57.5919 187.87 58.4955 188.289L73.5107 195.257L80.4972 180.203C80.9177 179.297 81.6799 178.595 82.6162 178.251C83.5525 177.906 84.5862 177.949 85.4898 178.368C86.3934 178.787 87.0929 179.55 87.4345 180.487C87.7761 181.424 87.7318 182.46 87.3112 183.366L80.3248 198.42L95.3376 205.387C96.2412 205.806 96.9408 206.569 97.2824 207.506C97.624 208.443 97.5796 209.479 97.1591 210.385C96.7386 211.291 95.9764 211.993 95.0401 212.337C94.1038 212.681 93.0702 212.639 92.1665 212.22ZM129.866 203.501L130.081 204.377C129.669 204.175 129.399 203.928 129.866 203.501Z" fill="#3B82F6"/>
<path d="M97.1591 210.385C96.7386 211.291 95.9764 211.993 95.0401 212.337C94.1038 212.682 93.0702 212.639 92.1666 212.22L77.1537 205.253L70.1661 220.309C69.7456 221.215 68.9834 221.918 68.0471 222.262C67.1108 222.606 66.0772 222.564 65.1736 222.144C64.27 221.725 63.5704 220.963 63.2288 220.026C62.8872 219.088 62.9316 218.053 63.3521 217.147L70.3397 202.09L55.3244 195.122C54.4208 194.702 53.7213 193.94 53.3797 193.003C53.0381 192.066 53.0824 191.03 53.5029 190.124C53.9234 189.218 54.6857 188.516 55.622 188.172C56.5583 187.827 57.5919 187.87 58.4955 188.289L73.5107 195.257L80.4972 180.203C80.9177 179.297 81.6799 178.595 82.6162 178.251C83.5525 177.907 84.5862 177.949 85.4898 178.368C86.3934 178.787 87.0929 179.55 87.4345 180.487C87.7761 181.424 87.7318 182.46 87.3113 183.366L80.3248 198.42L95.3376 205.387C96.2412 205.806 96.9408 206.569 97.2824 207.506C97.624 208.443 97.5796 209.479 97.1591 210.385Z" fill="#3B82F6"/>
<path d="M130.081 204.377C129.66 204.182 129.399 203.928 129.866 203.501L130.081 204.377Z" fill="#3B82F6"/>
<path d="M97.1591 210.385C96.7386 211.291 95.9764 211.993 95.0401 212.337C94.1038 212.682 93.0702 212.639 92.1666 212.22L77.1537 205.253L70.1661 220.309C69.7456 221.215 68.9834 221.918 68.0471 222.262C67.1108 222.606 66.0772 222.564 65.1736 222.144C64.27 221.725 63.5704 220.963 63.2288 220.026C62.8872 219.088 62.9316 218.053 63.3521 217.147L70.3397 202.09L55.3244 195.122C54.4208 194.702 53.7213 193.94 53.3797 193.003C53.0381 192.066 53.0824 191.03 53.5029 190.124C53.9234 189.218 54.6857 188.516 55.622 188.172C56.5583 187.827 57.5919 187.87 58.4955 188.289L73.5107 195.257L80.4972 180.203C80.9177 179.297 81.6799 178.595 82.6162 178.251C83.5525 177.907 84.5862 177.949 85.4898 178.368C86.3934 178.787 87.0929 179.55 87.4345 180.487C87.7761 181.424 87.7318 182.46 87.3113 183.366L80.3248 198.42L95.3376 205.387C96.2412 205.806 96.9408 206.569 97.2824 207.506C97.624 208.443 97.5796 209.479 97.1591 210.385Z" fill="white"/>
<path d="M292.862 101.255C291.513 100.728 290.798 99.6016 290.757 98.1327C290.638 93.8034 289.525 89.6854 288.237 85.6055C287.678 83.8323 288.175 82.3871 289.701 81.4977C291.292 80.5628 292.921 80.7534 294.233 82.151C294.762 82.6901 295.194 83.3163 295.511 84.0024C297.439 88.5389 298.223 93.4833 297.793 98.3998C297.584 101.179 295.297 102.4 292.862 101.255Z" fill="#3B82F6"/>
<path d="M277.913 88.4923C279.787 89.4401 280.723 91.2054 281.415 93.0404C282.903 96.9813 282.91 101.035 281.799 105.066C281.192 107.298 278.643 108.702 276.613 107.85C275.174 107.249 274.933 105.675 275.193 104.367C276.048 100.031 275.337 96.0246 273.32 92.1514C272.797 91.1428 272.663 89.9237 273.714 89.0228C274.988 87.941 276.376 87.6485 277.913 88.4923Z" fill="#3B82F6"/>
<path d="M211.748 241.423C211.62 241.494 211.335 241.646 210.91 241.858C210.412 242.427 209.498 242.771 208.832 243.077C202.639 245.918 195.987 247.614 189.196 248.085C183.211 248.794 177.157 248.632 171.222 247.604C163.986 246.317 157.056 243.69 150.786 239.86C148.948 238.869 147.133 237.794 145.343 236.635C142.809 234.992 140.177 233.434 137.496 231.952C136.3 231.341 135.138 230.783 134.01 230.279L133.601 230.089C133.511 230.048 133.416 230.003 133.325 229.961L133.116 229.864L132.952 229.788L132.752 229.695L132.652 229.649L132.393 229.529L131.978 229.356L131.68 229.238L131.587 229.195C130.685 228.838 129.807 228.516 128.953 228.228L128.603 228.112C127.932 227.895 127.269 227.698 126.614 227.519C125.631 227.257 124.678 227.041 123.756 226.872C121.736 226.489 119.674 226.376 117.623 226.536C117.484 226.547 117.349 226.56 117.211 226.577L117.159 226.582C117.089 226.59 117.016 226.597 116.944 226.61C116.779 226.629 116.613 226.65 116.45 226.671C116.287 226.691 116.136 226.725 115.959 226.75C115.41 226.849 114.869 226.969 114.341 227.121C114.202 227.158 114.065 227.199 113.927 227.24C113.723 227.301 113.519 227.366 113.314 227.439C113.193 227.476 113.071 227.521 112.951 227.561L112.839 227.604C112.714 227.648 112.591 227.695 112.482 227.749C112.442 227.762 112.402 227.779 112.363 227.795C112.252 227.84 112.142 227.884 112.033 227.932C111.924 227.98 111.842 228.014 111.743 228.058L111.692 228.081C111.558 228.14 111.424 228.203 111.288 228.267L111.208 228.309C111.074 228.371 110.942 228.438 110.809 228.506C110.676 228.575 110.508 228.657 110.357 228.746C110.061 228.898 109.756 229.082 109.458 229.262C104.758 232.158 101.264 236.664 99.6269 241.941C99.5471 242.194 99.4697 242.448 99.3891 242.715C99.3086 242.982 99.2367 243.224 99.164 243.48C99.1612 243.489 99.1575 243.497 99.153 243.504C99.0803 243.761 99.0176 243.995 98.9529 244.241C98.9009 244.44 98.8501 244.637 98.8016 244.835C98.7686 244.956 98.7404 245.079 98.7098 245.201C98.6529 245.435 98.5983 245.665 98.5496 245.895C98.5008 246.124 98.4513 246.325 98.4092 246.54C98.3508 246.803 98.3059 247.043 98.2578 247.296C98.2177 247.501 98.179 247.709 98.1448 247.914C98.0832 248.258 98.0271 248.603 97.9766 248.949C97.9457 249.146 97.9172 249.345 97.8922 249.542C97.859 249.782 97.8304 250.018 97.8042 250.255C97.7995 250.272 97.7972 250.289 97.7974 250.307C97.7737 250.508 97.7511 250.706 97.732 250.903C97.7199 251.016 97.7113 251.128 97.7027 251.24C97.6941 251.352 97.6868 251.386 97.6818 251.459C97.6674 251.615 97.6576 251.767 97.6467 251.922C97.6357 252.076 97.6199 252.309 97.6089 252.501C97.5944 252.738 97.5847 252.977 97.5678 253.213C97.5509 253.449 97.5531 253.693 97.5492 253.932C97.5376 254.522 97.5438 255.105 97.5677 255.681C97.5732 255.874 97.581 256.069 97.5842 256.268C97.5875 256.467 97.6014 256.63 97.6206 256.813L97.6286 256.889C97.6361 257.029 97.647 257.167 97.6603 257.307C97.6736 257.446 97.6781 257.605 97.6971 257.738C97.7161 257.872 97.7293 258.093 97.7413 258.266C97.8149 258.924 97.9059 259.575 98.0181 260.224C98.0508 260.428 98.0883 260.634 98.1281 260.841C98.168 261.048 98.2077 261.249 98.251 261.455C98.2943 261.66 98.3483 261.868 98.3867 262.066C98.4251 262.263 98.4751 262.455 98.5264 262.649C98.5597 262.79 98.5977 262.932 98.6334 263.073C98.6835 263.27 98.7395 263.468 98.7955 263.665C100.058 266.738 101.652 269.663 103.549 272.389C104.083 273.166 104.627 273.928 105.183 274.675C105.313 274.855 105.446 275.03 105.579 275.204C106.134 275.937 106.7 276.653 107.277 277.352C107.421 277.529 107.563 277.702 107.709 277.874L107.994 278.213C108.111 278.354 108.231 278.494 108.35 278.63C108.727 279.064 109.107 279.492 109.49 279.913C109.64 280.081 109.79 280.244 109.94 280.412C110.091 280.58 110.244 280.742 110.394 280.912L110.442 280.964C110.636 281.17 110.83 281.373 111.026 281.574L111.434 281.992L111.744 282.307L112.155 282.718L112.355 282.91C112.553 283.106 112.751 283.303 112.963 283.5C113.176 283.697 113.382 283.9 113.597 284.084L114.109 284.559L114.147 284.594L114.173 284.606L114.483 284.886L114.602 284.997C114.944 285.306 115.286 285.61 115.626 285.907C115.833 286.084 116.019 286.249 116.219 286.417C116.492 286.651 116.77 286.881 117.052 287.114C117.268 287.291 117.485 287.467 117.701 287.641L118.189 288.03L118.745 288.47C118.765 288.482 118.783 288.497 118.8 288.513L118.926 288.61L119.318 288.911L119.832 289.3L120.544 289.827L121.269 290.352C126.227 293.536 131.405 296.363 136.764 298.811C140.588 300.585 144.692 302.308 149.075 303.979C149.214 304.032 149.345 304.104 149.465 304.192C149.55 304.252 149.629 304.32 149.7 304.396C149.767 304.468 149.828 304.547 149.88 304.631C149.993 304.806 150.072 305.001 150.113 305.206C150.123 305.251 150.129 305.297 150.134 305.343C150.133 305.347 150.131 305.351 150.128 305.355C150.132 305.386 150.133 305.418 150.133 305.45C150.137 305.491 150.138 305.532 150.137 305.573C150.138 305.615 150.134 305.653 150.132 305.696C150.127 305.71 150.12 305.723 150.113 305.736C150.109 305.777 150.102 305.817 150.092 305.857C150.092 305.859 150.091 305.862 150.09 305.864C150.089 305.866 150.088 305.867 150.086 305.869C150.076 305.921 150.063 305.972 150.047 306.022C150.031 306.055 150.015 306.091 149.998 306.127C149.982 306.163 149.986 306.153 149.979 306.167L149.973 306.182C149.924 306.3 149.86 306.412 149.784 306.514C149.566 306.815 149.256 307.035 148.902 307.142C148.547 307.248 148.167 307.235 147.822 307.103L147.784 307.085L147.472 306.967C146.899 306.747 146.333 306.527 145.774 306.306C142.114 304.868 138.642 303.388 135.358 301.864C132.075 300.34 129.006 298.787 126.151 297.205L125.232 296.692C123.745 295.851 122.317 295.002 120.949 294.144C120.478 293.851 120.014 293.555 119.556 293.257L118.904 292.83C118.441 292.525 117.983 292.217 117.535 291.905L117.5 291.888L116.966 291.519L116.441 291.148L116.398 291.128L116.057 290.885L116.028 290.872L115.502 290.491L114.956 290.09L114.339 289.627C114.143 289.481 113.95 289.336 113.762 289.188L113.255 288.796L112.726 288.38L112.261 288.004L111.774 287.607C111.449 287.34 111.13 287.074 110.818 286.807L110.349 286.404L109.888 286.001L109.434 285.596L108.988 285.192L108.137 284.397C107.839 284.117 107.551 283.835 107.266 283.552L106.853 283.14L106.444 282.724C106.04 282.311 105.646 281.896 105.263 281.474L104.783 280.944C104.725 280.883 104.668 280.818 104.612 280.752L104.202 280.272C104.104 280.159 104.015 280.051 103.916 279.936C103.775 279.772 103.635 279.605 103.499 279.438C103.363 279.27 103.219 279.099 103.082 278.928C102.983 278.804 102.886 278.684 102.791 278.558C98.515 273.129 95.7897 267.263 94.6933 261.114C94.6417 260.826 94.5926 260.54 94.5504 260.25L94.129 255.189C94.0555 250.6 94.8019 245.814 96.3593 240.894C98.2448 234.837 102.259 229.667 107.657 226.345C112.697 223.279 117.991 222.378 124.321 223.512C125.597 223.743 126.86 224.039 128.105 224.399C128.552 224.529 129.004 224.667 129.462 224.814C130.517 225.152 131.595 225.54 132.706 225.98C132.968 226.084 133.233 226.19 133.497 226.301L133.754 226.42L134.479 226.727L134.617 226.791L134.95 226.946C135.39 227.15 135.842 227.342 136.294 227.552C140.667 229.582 145.469 232.318 150.754 235.785C152.824 237.145 154.979 238.371 157.204 239.457L157.478 239.584C157.63 239.655 157.785 239.727 157.937 239.797L158.175 239.908L158.413 240.018C158.558 240.086 158.703 240.153 158.853 240.205C159.112 240.325 159.38 240.427 159.646 240.533L159.958 240.657L160.203 240.753L160.448 240.849C160.799 240.983 161.154 241.116 161.511 241.244C165.642 242.741 169.899 243.87 174.231 244.616C193.688 247.197 209.302 238.911 210.199 238.425C210.393 238.319 210.606 238.253 210.826 238.23C211.046 238.207 211.268 238.227 211.48 238.29C211.692 238.353 211.889 238.457 212.061 238.596C212.232 238.736 212.375 238.908 212.48 239.102C212.585 239.297 212.65 239.51 212.673 239.731C212.696 239.951 212.675 240.173 212.612 240.386C212.548 240.598 212.444 240.796 212.305 240.968C212.165 241.14 211.993 241.283 211.799 241.389L211.748 241.423Z" fill="#93C5FD"/>
<path d="M94.5366 260.343L94.5281 260.292C94.276 258.634 94.138 256.959 94.1152 255.281L94.5366 260.343Z" fill="#93C5FD"/>
</g>
</g>
<defs>
<clipPath id="clip0_227_272">
<path d="M0 161.5C0 72.306 72.306 0 161.5 0V0C250.694 0 323 72.306 323 161.5V161.5C323 250.694 250.694 323 161.5 323V323C72.306 323 0 250.694 0 161.5V161.5Z" fill="white"/>
</clipPath>
<clipPath id="clip1_227_272">
<rect width="268.506" height="309.604" fill="white" transform="translate(106.691 -5.23944) rotate(24.8956)"/>
</clipPath>
</defs>
</svg>
