<svg width="323" height="323" viewBox="0 0 323 323" fill="none" xmlns="http://www.w3.org/2000/svg">
<g clip-path="url(#clip0_228_292)">
<path d="M0 161.5C0 72.306 72.306 0 161.5 0V0C250.694 0 323 72.306 323 161.5V161.5C323 250.694 250.694 323 161.5 323V323C72.306 323 0 250.694 0 161.5V161.5Z" fill="#BFDBFE"/>
<g clip-path="url(#clip1_228_292)">
<path d="M162.826 267.987C162.714 272.002 162.065 275.983 160.899 279.823C158.973 286.089 155.705 291.448 151.194 295.75C147.875 298.911 143.983 301.392 139.732 303.055C139.093 303.307 138.445 303.543 137.787 303.762C136.846 304.075 135.885 304.353 134.904 304.598C131.487 305.438 127.982 305.858 124.466 305.846C121.496 305.839 118.533 305.572 115.608 305.048C101.811 302.612 88.255 294.857 77.4378 283.224C75.9737 281.649 74.5837 280.029 73.2681 278.364C73.2641 278.359 73.2597 278.353 73.255 278.347C64.8677 267.738 59.5897 255.503 58.2382 243.325C57.4678 236.389 58.0105 229.837 59.8509 223.853C61.7788 217.587 65.045 212.227 69.5562 207.925C73.1715 204.484 77.4611 201.851 82.1467 200.197C82.987 199.895 83.8441 199.622 84.7179 199.378C85.0067 203.67 86.7445 207.731 89.6398 210.879C92.5351 214.028 96.4118 216.072 100.619 216.669C104.827 217.267 109.109 216.381 112.748 214.16C116.387 211.94 119.161 208.52 120.605 204.474C120.691 204.231 120.771 203.988 120.844 203.746C121.066 203.852 121.288 203.959 121.509 204.067C125.87 206.22 130.005 208.814 133.85 211.808C134.77 212.52 135.677 213.257 136.57 214.019C138.933 216.029 141.178 218.179 143.292 220.456C154.109 232.094 160.928 246.263 162.493 260.355C162.785 262.888 162.897 265.438 162.826 267.987Z" fill="white"/>
<path d="M318.707 63.031C309.306 51.4151 299.203 40.4154 285.244 34.4212C269.069 27.4747 252.441 25.9158 235.227 30.9662C219.91 35.4548 207.104 43.9469 196.244 55.2899C183.903 68.1833 175.003 83.543 168.242 100.12C165.413 107.056 162.293 113.97 160.434 121.191C157.383 133.057 154.046 144.862 150.064 156.382C149.076 159.222 148.337 162.145 147.856 165.117C147.856 165.117 146.313 172.858 146.897 181.139C147.67 183.632 148.96 185.96 151.071 187.978C151.097 188.079 151.156 188.168 151.238 188.231C151.32 188.294 151.42 188.327 151.522 188.327C155.921 192.269 157.488 196.93 155.058 202.608C155.058 202.608 153.217 208.083 145.691 207.835L126.585 204.257C126.75 204.345 126.915 204.436 127.081 204.527C133.352 207.949 139.039 212.483 143.904 217.75C152.953 227.585 159.174 239.83 162.897 252.677C163.975 256.41 164.859 260.214 165.43 264.067L165.485 264.467L165.539 264.902C165.627 265.625 165.429 266.353 164.987 266.928C164.545 267.502 163.897 267.876 163.183 267.967C163.064 267.982 162.944 267.99 162.824 267.988C162.711 272.003 162.063 275.985 160.897 279.824C158.97 286.09 155.703 291.45 151.192 295.751C147.873 298.913 143.98 301.393 139.73 303.056C139.091 303.308 138.442 303.544 137.784 303.763C137.534 303.905 137.264 304.034 136.997 304.155C133.454 305.768 129.653 306.428 125.847 306.83C124.681 306.951 123.901 307.205 123.389 307.785C122.971 308.254 122.731 308.94 122.602 309.948C122.489 310.831 122.362 322.12 122.243 323.001H316.449C317.078 316.869 317.667 300.325 318.298 294.192C318.439 292.828 318.74 291.481 318.897 290.117C319.095 288.458 319.591 286.978 321.593 287.356C323.245 287.667 323.37 289.232 323.293 290.615C322.608 297.941 321.975 315.681 321.234 323.006H395.862C396.089 314.564 396.134 295.719 395.087 287.292C393.41 273.791 389.935 260.811 384.75 248.262C380.566 238.146 375.566 228.436 370.612 218.709C363.949 205.625 358.51 192.124 354.835 177.841C350.377 160.493 347.99 142.756 344.39 125.252C341.841 112.865 338.631 100.659 332.943 89.2727M199.145 169.57C194.472 168.813 191.768 165.386 190.484 161.133C187.967 152.796 188.36 144.474 192.187 136.572C195.21 130.331 199.671 127.337 204.127 128.051C208.757 128.794 213.194 134.252 214.113 140.44C214.388 142.301 214.472 144.19 214.659 146.229C214.637 152.472 213.569 158.624 209.747 163.893C207.175 167.442 203.925 170.344 199.145 169.57ZM257.524 201.767C254.373 210.736 244.675 217.513 234.98 217.53C222.16 217.553 210.838 207.647 210.298 196.017C210.154 192.908 210.82 190.208 213.56 188.495C216.173 186.866 218.463 188.079 220.861 189.416C229.549 194.261 238.661 194.365 247.94 191.442C250.859 190.521 253.762 189.491 256.255 192.211C258.853 195.052 258.717 198.367 257.524 201.767ZM279.277 171.7C273.347 178.873 264.99 177.733 261.127 169.125C259.366 165.204 258.55 160.915 258.749 156.612C259.04 150.23 260.24 144.117 264.454 139.056C270.325 132 277.857 132.781 282.283 140.845C286.72 148.931 285.2 164.531 279.277 171.7Z" fill="white"/>
<path d="M132.189 211.66C125.577 211.105 119.618 210.584 117.168 210.4C118.668 208.656 119.835 206.645 120.609 204.469C124.713 206.438 128.595 208.849 132.189 211.66Z" fill="white"/>
<path d="M234.98 217.53C222.16 217.553 210.838 207.647 210.298 196.017C210.154 192.908 210.82 190.208 213.561 188.495C216.173 186.866 218.463 188.079 220.861 189.416C229.549 194.261 238.661 194.365 247.94 191.442C250.859 190.521 253.762 189.491 256.255 192.211C258.855 195.049 258.72 198.363 257.527 201.764C254.373 210.736 244.675 217.513 234.98 217.53Z" fill="#3B82F6"/>
<path d="M258.749 156.612C259.04 150.23 260.24 144.117 264.454 139.056C270.325 132 277.857 132.781 282.283 140.845C286.717 148.931 285.2 164.536 279.277 171.7C273.354 178.865 264.99 177.733 261.127 169.125C259.366 165.204 258.55 160.915 258.749 156.612Z" fill="#3B82F6"/>
<path d="M214.665 146.229C214.642 152.472 213.575 158.624 209.753 163.893C207.181 167.436 203.931 170.344 199.151 169.57C194.478 168.813 191.774 165.386 190.49 161.133C187.973 152.796 188.366 144.474 192.193 136.572C195.216 130.331 199.677 127.337 204.133 128.051C208.763 128.794 213.2 134.252 214.119 140.44C214.388 142.301 214.472 144.19 214.665 146.229Z" fill="#3B82F6"/>
<path d="M323.298 290.614C322.613 297.94 321.98 315.68 321.238 323.005H316.446C317.075 316.872 317.663 300.329 318.294 294.196C318.436 292.831 318.737 291.485 318.894 290.121C319.091 288.462 319.587 286.982 321.589 287.36C323.25 287.666 323.375 289.231 323.298 290.614Z" fill="white"/>
<path d="M84.4711 89.7616C82.4342 92.6174 79.3956 92.6853 77.324 89.8381C76.4613 88.6528 75.7532 87.3535 74.9744 86.1064C74.0038 81.4127 71.3894 77.3911 69.7371 72.9728C67.8596 67.954 68.1939 65.8431 71.405 64.3594C74.2243 63.0541 76.0779 64.1726 78.6575 68.7268C80.6345 73.9595 82.612 79.191 84.5898 84.4213C85.2715 86.2192 85.7292 87.9941 84.4711 89.7616Z" fill="#3B82F6"/>
<path d="M60.6861 107.283C56.816 104.908 52.9195 102.571 49.0805 100.144C45.9545 98.1664 45.2068 95.7194 46.8435 93.2895C48.5342 90.7782 51.024 90.3524 53.9763 92.2632C57.7314 94.6895 61.405 97.2516 65.1194 99.7544C66.7213 104.682 65.5387 106.692 60.6861 107.283Z" fill="#3B82F6"/>
<path d="M100.119 84.1593C100.771 79.149 101.182 74.539 102.029 70.0115C102.567 67.1339 104.633 65.5131 107.673 65.8977C110.746 66.2871 112.01 68.5327 111.558 71.2974C110.772 76.0047 109.735 80.6655 108.453 85.2596C107.791 87.6568 105.847 88.9561 103.243 88.4138C100.778 87.9031 99.7335 86.2568 100.119 84.1593Z" fill="#3B82F6"/>
<path d="M138.454 305.685C120.082 311.698 99.9923 304.24 85.7496 292.142C81.0671 288.083 76.5092 283.457 73.2155 278.305C77.1455 282.988 81.5045 287.587 86.4529 291.246C98.4155 300.299 113.604 306.153 128.612 304.057C131.518 303.641 134.369 302.897 137.112 301.839C137.364 301.739 137.633 301.691 137.903 301.699C138.173 301.706 138.44 301.769 138.686 301.883C138.932 301.997 139.152 302.159 139.335 302.361C139.517 302.563 139.658 302.801 139.748 303.059C139.838 303.317 139.876 303.591 139.859 303.864C139.843 304.138 139.772 304.405 139.651 304.65C139.53 304.895 139.362 305.113 139.156 305.29C138.951 305.468 138.712 305.602 138.454 305.685Z" fill="#93C5FD"/>
<path d="M151.521 188.329C151.418 188.33 151.318 188.296 151.237 188.233C151.155 188.17 151.096 188.081 151.07 187.981C148.958 185.962 147.669 183.634 146.896 181.141C146.007 178.274 145.801 175.187 145.818 172.1C145.844 165.437 146.597 158.782 146.896 152.116C147.651 135.632 141.546 122.939 126.691 115.215C125.082 114.378 124.359 113.395 124.295 111.441C124.124 106.508 121.049 102.935 116.627 102.042C111.752 101.057 106.531 102.986 104.898 107.219C103.725 110.26 101.767 110.845 99.1309 111.51C85.3147 114.999 76.1989 123.68 72.3755 137.601C70.3794 144.865 69.1045 152.331 67.3599 159.671C65.867 165.951 63.4395 171.571 57.0616 174.527C51.7704 176.98 49.5047 181.111 50.3626 185.824C51.2085 190.475 54.3597 192.757 60.462 193.54C68.2226 194.536 75.9581 195.723 83.7067 196.832C84.0461 196.87 84.383 196.928 84.7156 197.007C84.6948 197.372 84.6844 197.741 84.6844 198.112C84.6844 198.537 84.6988 198.961 84.7263 199.376C85.0151 203.668 86.753 207.729 89.6483 210.877C92.5436 214.025 96.4202 216.07 100.628 216.667C104.835 217.264 109.118 216.379 112.757 214.158C116.396 211.937 119.169 208.517 120.613 204.471C120.699 204.229 120.779 203.986 120.853 203.743C120.907 203.57 120.958 203.396 121.007 203.221L126.582 204.265L145.688 207.844C153.214 208.087 155.056 202.616 155.056 202.616C157.486 196.933 155.919 192.272 151.521 188.329Z" fill="#3B82F6"/>
<path d="M163.181 267.965C163.062 267.981 162.941 267.989 162.821 267.987C162.137 267.981 161.48 267.713 160.982 267.237C160.483 266.762 160.181 266.114 160.134 265.423C159.958 263.518 159.654 261.628 159.312 259.745C156.443 244.662 150.095 229.951 139.702 218.619C137.391 216.092 134.876 213.764 132.184 211.659C128.59 208.848 124.708 206.437 120.605 204.468C120.691 204.225 120.771 203.982 120.844 203.74C120.898 203.566 120.95 203.393 120.999 203.217L126.574 204.261C126.739 204.35 126.905 204.441 127.07 204.532C133.341 207.954 139.028 212.488 143.894 217.755C152.942 227.59 159.163 239.835 162.886 252.682C163.964 256.415 164.849 260.219 165.419 264.072L165.474 264.471L165.528 264.907C165.615 265.627 165.417 266.353 164.977 266.926C164.537 267.499 163.891 267.873 163.181 267.965Z" fill="#93C5FD"/>
</g>
</g>
<defs>
<clipPath id="clip0_228_292">
<path d="M0 161.5C0 72.306 72.306 0 161.5 0V0C250.694 0 323 72.306 323 161.5V161.5C323 250.694 250.694 323 161.5 323V323C72.306 323 0 250.694 0 161.5V161.5Z" fill="white"/>
</clipPath>
<clipPath id="clip1_228_292">
<rect width="350" height="295" fill="white" transform="translate(46 28)"/>
</clipPath>
</defs>
</svg>
