<svg width="179" height="148" viewBox="0 0 179 148" fill="none" xmlns="http://www.w3.org/2000/svg">
<g clip-path="url(#clip0_300_1075)">
<path d="M147.549 144.749L147.582 145.275L147.591 145.425C147.582 145.21 147.566 144.987 147.549 144.749ZM94.746 87.6187C89.7313 88.6191 84.8624 88.4098 80.0377 86.6586C78.2126 85.9923 76.5468 86.8718 75.76 88.6345C75.1842 89.9095 75.1842 91.2344 75.4817 92.5593C76.756 98.2353 81.7477 102.135 87.7354 102.16C93.5389 102.187 98.4519 98.1124 99.4306 92.4633C100.031 89.0166 98.1352 86.9428 94.746 87.6187ZM111.114 67.3361C110.397 65.005 108.915 63.1233 106.299 62.9197C103.776 62.7162 102.152 64.2638 100.977 66.3971C99.8816 68.3768 99.4556 70.4909 99.4248 72.7183C99.3903 74.6039 99.7127 76.4338 100.549 78.1063C101.465 79.9438 102.814 81.336 105.042 81.4512C107.27 81.5664 108.756 80.2818 109.817 78.5344C111.953 75.0206 112.312 71.2187 111.114 67.3361ZM76.3357 62.6029C74.4933 59.9473 71.5225 59.7227 69.2119 61.9789C65.8783 65.2527 64.9744 72.7625 67.4367 76.7276C69.4556 79.9784 73.0847 80.2261 75.497 77.2326C77.3912 74.8919 78.1838 72.1595 78.1646 68.8108C78.3067 66.7716 77.6964 64.5653 76.3357 62.6029ZM111.114 67.3361C110.397 65.005 108.915 63.1233 106.299 62.9197C103.776 62.7162 102.152 64.2638 100.977 66.3971C99.8816 68.3768 99.4556 70.4909 99.4248 72.7183C99.3903 74.6039 99.7127 76.4338 100.549 78.1063C101.465 79.9438 102.814 81.336 105.042 81.4512C107.27 81.5664 108.756 80.2818 109.817 78.5344C111.953 75.0206 112.312 71.2187 111.114 67.3361ZM94.746 87.6187C89.7313 88.6191 84.8624 88.4098 80.0377 86.6586C78.2126 85.9923 76.5468 86.8718 75.76 88.6345C75.1842 89.9095 75.1842 91.2344 75.4817 92.5593C76.756 98.2353 81.7477 102.135 87.7354 102.16C93.5389 102.187 98.4519 98.1124 99.4306 92.4633C100.031 89.0166 98.1352 86.9428 94.746 87.6187ZM76.3357 62.6029C74.4933 59.9473 71.5225 59.7227 69.2119 61.9789C65.8783 65.2527 64.9744 72.7625 67.4367 76.7276C69.4556 79.9784 73.0847 80.2261 75.497 77.2326C77.3912 74.8919 78.1838 72.1595 78.1646 68.8108C78.3067 66.7716 77.6964 64.5653 76.3357 62.6029Z" fill="white"/>
<path d="M147.549 144.749L147.582 145.275L147.591 145.425C147.582 145.21 147.566 144.987 147.549 144.749Z" fill="white"/>
<path d="M99.4306 92.4614C98.4518 98.1105 93.5388 102.185 87.7353 102.158C81.7476 102.129 76.7559 98.2295 75.4816 92.5574C75.1823 91.2325 75.1918 89.9076 75.7599 88.6326C76.5468 86.8699 78.2126 85.9904 80.0377 86.6567C84.8624 88.4137 89.7312 88.623 94.746 87.6168C98.1352 86.9428 100.031 89.0166 99.4306 92.4614Z" fill="#3B82F6"/>
<path d="M109.817 78.5325C108.756 80.2799 107.286 81.5645 105.042 81.4492C102.799 81.334 101.465 79.9419 100.55 78.1043C99.7128 76.4319 99.398 74.602 99.4249 72.7164C99.4556 70.489 99.8817 68.3749 100.978 66.3952C102.152 64.2696 103.776 62.7143 106.299 62.9178C108.915 63.1233 110.397 65.005 111.114 67.3342C112.312 71.2186 111.953 75.0206 109.817 78.5325Z" fill="#3B82F6"/>
<path d="M78.1761 68.8165C78.2011 72.1653 77.4085 74.8977 75.5085 77.2383C73.0904 80.2319 69.4613 79.9842 67.4481 76.7333C64.9859 72.7682 65.8898 65.2585 69.2233 61.9846C71.5263 59.7208 74.5048 59.9531 76.3472 62.6087C77.6963 64.5653 78.3066 66.7716 78.1761 68.8165Z" fill="#3B82F6"/>
<path d="M131.628 16.377C131.676 14.1151 132.616 11.9242 134.347 10.4687C135.495 9.47944 136.959 8.93445 138.473 8.93258C141.51 8.87882 143.511 10.4687 144.88 12.9476C145.455 14.0018 145.701 14.3513 146.77 13.3317C149.716 10.5282 154.272 10.5897 156.941 13.6178C158.755 15.6877 158.889 18.2261 158.193 20.8164C157.108 24.8488 153.873 26.9609 150.718 29.0923C148.653 30.4825 146.329 31.433 144.012 32.3566C142.786 32.8481 141.836 32.6657 140.857 31.7517C137.643 28.7544 134.758 25.5323 132.827 21.6191C132.023 20.0106 131.615 18.233 131.638 16.4346L131.628 16.377Z" fill="#3B82F6"/>
<path d="M56.1445 11.9549C56.1253 12.9361 55.5457 13.3355 54.78 13.6101C53.2447 14.1573 51.742 14.7468 50.2144 15.2921C48.8556 15.776 48.0074 16.7073 47.5679 18.0725C47.1073 19.5069 46.5795 20.9182 46.1074 22.3487C45.8004 23.2838 45.3551 24.1402 44.2766 24.1844C43.1423 24.2324 42.7412 23.328 42.4591 22.3967L42.4073 22.2297C40.0545 15.2883 40.8125 16.0852 34.1013 13.7963C33.2991 13.5237 32.5161 13.2203 32.4643 12.2429C32.4086 11.1811 33.182 10.7279 34.036 10.4188C35.0071 10.0375 35.9974 9.70744 37.003 9.42989C39.3866 8.8404 40.7703 7.31771 41.417 5.01352C41.7625 3.78846 42.2096 2.59029 42.628 1.38635C42.8909 0.618284 43.3343 0.0249552 44.219 0.00767376C45.1037 -0.00960766 45.5835 0.616363 45.8618 1.34026C46.4836 2.96088 47.0958 4.59109 47.6043 6.25011C47.9191 7.27931 48.4871 8.00129 49.4582 8.39684C51.2219 9.11306 52.9703 9.89072 54.78 10.4668C55.6705 10.7433 55.9257 11.302 56.1445 11.9549Z" fill="#3B82F6"/>
<path d="M177.939 76.1246C176.417 71.9368 171.924 67.5934 166.714 67.8027C163.697 67.9294 160.859 68.2309 158.316 69.9456C157.588 70.4371 157.22 70.3776 157.02 69.4271C156.798 68.3576 156.554 67.2766 155.938 66.3318C153.99 63.3556 149.912 63.3556 147.753 66.3318C145.759 69.0757 145.039 72.3189 144.216 75.5006C143.736 77.3651 142.297 78.3808 140.992 79.4638C140.124 80.1877 139.758 79.1316 139.717 78.5037C139.508 75.4507 138.992 72.436 138.633 69.4041C138.188 65.631 137.673 61.8771 136.996 58.127C136.181 53.459 134.862 48.8931 133.064 44.5093C128.746 34.0866 121.72 26.189 111.642 20.8683C103.743 16.6996 95.3295 15.5225 86.7394 16.4519C78.5046 17.2997 70.7359 20.6845 64.5062 26.1391C57.7144 32.0282 52.9914 39.2807 49.4467 47.4625C46.2341 54.8685 44.1998 62.6221 42.3613 70.4314C41.6857 73.2963 40.8989 76.1342 40.2502 79.001C39.9681 80.2626 39.6514 80.5525 38.3311 79.6501C35.8688 77.9699 35.2163 75.5025 34.5024 72.9295C33.775 70.2951 32.5967 67.8756 30.6181 65.894C27.6895 62.96 23.7994 64.3157 22.3658 68.0715C21.4849 70.393 21.6096 70.3968 19.3489 69.2812C16.0614 67.6529 12.6645 67.2535 9.13714 68.5131C4.9323 70.0109 2.44126 73.1657 0.990391 77.1692C-1.26652 83.3867 0.589291 89.0185 3.97465 94.2586C7.4291 99.5967 12.035 103.975 16.6295 108.289C21.3161 112.661 26.2227 116.79 31.3301 120.661C32.1361 121.273 32.5871 122.005 32.3933 123.044C31.8175 126.156 31.4241 129.292 31.0902 132.433C30.7741 134.89 30.5234 137.41 30.3379 139.995C30.3396 140.002 30.3396 140.009 30.3379 140.016C30.2956 140.64 30.2553 141.264 30.2208 141.894C30.1747 142.65 30.1325 143.413 30.1018 144.181C30.0462 145.442 30.0039 146.713 29.979 148.004H147.664C147.703 147.979 147.693 147.439 147.651 146.543V146.477L147.638 146.235L147.626 146.043V145.851L147.591 145.431L147.582 145.281L147.549 144.755L147.536 144.507L147.515 144.177C147.515 144.052 147.501 143.92 147.49 143.793V143.776C147.455 143.211 147.415 142.612 147.369 141.984C147.334 141.468 147.296 140.936 147.258 140.39C147.156 139.018 147.048 137.568 146.933 136.135L146.267 128.522C146.267 128.497 146.267 128.487 146.267 128.487C146.159 127.642 146.043 126.8 145.922 125.96C145.88 125.665 145.837 125.367 145.793 125.071C145.319 121.907 146.511 120.463 148.772 118.735C154.717 114.132 160.507 109.332 165.8 103.955C168.842 100.883 172.12 98.0029 174.553 94.3969C178.315 88.8418 180.388 82.8682 177.939 76.1246ZM67.4291 76.7276C64.9668 72.7625 65.8707 65.2527 69.2043 61.9789C71.5072 59.715 74.4857 59.9473 76.3281 62.6029C77.6888 64.5653 78.2991 66.7716 78.1628 68.8108C78.1877 72.1595 77.3951 74.8919 75.4952 77.2326C73.0848 80.2261 69.4557 79.9784 67.4291 76.7276ZM99.423 92.4614C98.4443 98.1105 93.5313 102.185 87.7278 102.158C81.7401 102.129 76.7484 98.2295 75.4741 92.5574C75.1747 91.2325 75.1843 89.9075 75.7524 88.6326C76.5392 86.8699 78.205 85.9904 80.0301 86.6567C84.8548 88.4137 89.7237 88.6229 94.7384 87.6168C98.1353 86.9428 100.031 89.0166 99.4307 92.4614H99.423ZM109.809 78.5325C108.748 80.2799 107.278 81.5645 105.035 81.4492C102.791 81.334 101.457 79.9419 100.542 78.1043C99.7051 76.4319 99.3904 74.602 99.4173 72.7164C99.448 70.489 99.874 68.3749 100.97 66.3952C102.144 64.2696 103.768 62.7143 106.292 62.9178C108.907 63.1233 110.389 65.005 111.107 67.3342C112.312 71.2186 111.953 75.0206 109.817 78.5325H109.809Z" fill="white"/>
</g>
<defs>
<clipPath id="clip0_300_1075">
<rect width="179" height="148" fill="white"/>
</clipPath>
</defs>
</svg>
