<svg width="129" height="160" viewBox="0 0 129 160" fill="none" xmlns="http://www.w3.org/2000/svg">
<g clip-path="url(#clip0_299_413)">
<path d="M0.11774 103.487C0.181682 102.92 0.390337 102.392 0.42399 101.827C0.516538 100.208 0.890095 98.6294 1.26533 97.0628C2.37086 92.358 4.14778 87.8788 5.87927 83.3827C6.57253 81.5853 7.33143 79.8184 7.99272 78.0023C8.60354 76.3322 9.08647 74.6213 9.55258 72.9104C10.0658 71.023 10.5622 69.1255 10.9694 67.2126C11.6122 64.2254 12.1052 61.2127 12.4838 58.1746C12.5932 57.2903 12.7059 56.406 12.8086 55.5217C13.0425 47.4053 13.5103 39.6436 14.6595 32.9104C14.6603 32.9071 14.6603 32.9036 14.6595 32.9002L14.8143 32.0261C15.0219 30.8856 15.2507 29.7772 15.5009 28.7011L16.0797 26.4302C16.2917 25.6664 16.5189 24.9213 16.7528 24.1999C16.8538 23.9012 16.9564 23.6042 17.0607 23.314C18.136 20.3335 19.4804 17.7621 21.1665 15.7101L21.4038 15.3333C23.0864 12.694 25.2201 10.4366 27.4766 8.29295C28.6141 7.21347 29.8912 6.31391 31.1886 5.45339C33.0194 4.23643 35.0335 3.3759 37.0258 2.46107C39.3076 1.40365 41.7071 0.789237 44.1402 0.397163C49.6199 -0.47719 55.232 0.160322 60.3816 2.24212C63.2168 3.41964 65.8833 4.97397 68.3104 6.86383C70.3195 8.42534 72.0796 10.2346 73.7556 12.1628C76.2796 15.0651 78.2282 18.3273 80.027 21.6913C81.6181 24.7193 83.023 27.8431 84.2337 31.0451C85.075 33.2091 85.9282 35.3647 86.7224 37.544C87.9726 40.9674 89.4147 44.3128 90.8988 47.6327C92.4688 51.1325 94.2474 54.5322 95.999 57.9454L97.219 59.9686L97.2594 60.0297C97.4366 60.286 97.7033 60.4652 98.0061 60.5313C98.3088 60.5974 98.6252 60.5456 98.8916 60.3861L99.43 60.0704L99.8103 59.8481C99.8861 59.804 99.9618 59.7446 100.039 59.6987L100.081 59.675L100.098 59.6648C100.375 59.5098 100.665 59.3776 100.963 59.2693C100.517 61.0769 100.936 62.927 102.518 64.5801C102.701 64.7736 102.891 64.9552 103.088 65.1283C102.722 65.6026 102.438 66.1356 102.247 66.7051C102.122 67.0769 102.049 67.4641 102.028 67.8559C102.016 68.1971 102.042 68.5386 102.104 68.8743C102.582 71.483 105.193 73.2397 107.529 74.1545C108.049 74.3599 108.579 74.5313 109.112 74.6875C109.223 74.7224 109.341 74.7342 109.456 74.7222C109.572 74.7103 109.685 74.6748 109.787 74.6179C109.888 74.561 109.978 74.4839 110.05 74.3912C110.121 74.2985 110.173 74.1922 110.203 74.0786C110.233 73.965 110.24 73.8465 110.223 73.7302C110.206 73.614 110.166 73.5023 110.105 73.4021C110.044 73.3018 109.964 73.215 109.869 73.1468C109.774 73.0787 109.667 73.0306 109.553 73.0055C109.068 72.8782 108.586 72.739 108.118 72.5693C106.758 72.0804 105.097 71.2114 104.174 69.9503C103.914 69.5443 103.706 69.1069 103.554 68.6485C103.525 68.5267 103.503 68.4031 103.489 68.2785C103.473 68.1564 103.465 68.0334 103.465 67.9102C103.489 67.0089 103.938 66.1739 104.549 65.5001C104.613 65.429 104.662 65.3443 104.69 65.2522C104.733 65.1186 104.734 64.9748 104.692 64.8408C104.65 64.7067 104.569 64.589 104.458 64.5037C104.313 64.3917 104.175 64.2814 104.042 64.1643C102.259 62.6367 101.757 60.8868 102.43 59.0538C102.729 58.2855 103.154 57.5735 103.687 56.9474C103.81 56.7964 103.938 56.6487 104.069 56.5027C104.237 56.3211 104.406 56.1446 104.574 55.9698C104.668 55.8762 104.733 55.7568 104.76 55.6264C104.787 55.496 104.776 55.3604 104.727 55.2366C104.68 55.1177 104.631 54.9972 104.584 54.8767L104.567 54.8631C104.054 53.5613 103.617 52.1475 103.832 50.7625C104.068 49.2129 105.425 48.2777 106.795 47.7074C107.218 47.5376 107.647 47.3798 108.081 47.2406C108.825 47.003 109.585 46.8095 110.352 46.6381C110.724 46.5532 111.098 46.4684 111.471 46.3988L112.457 46.1883C112.527 46.1726 112.587 46.1307 112.627 46.0714C112.666 46.0121 112.682 45.9398 112.67 45.8692C112.659 45.7987 112.621 45.7353 112.564 45.6921C112.508 45.6489 112.437 45.629 112.367 45.6367L111.515 45.7657C110.289 45.9327 109.072 46.165 107.87 46.4616C107.768 46.0525 107.692 45.6503 107.64 45.338C107.598 45.0749 107.573 44.8763 107.562 44.7965V44.7575C107.413 43.3335 107.485 41.9128 107.482 40.4922C107.482 38.6761 107.87 36.9652 108.828 35.3868C110.342 32.8985 114.152 32.1619 116.356 34.6671C117.682 36.1692 118.34 38.0345 118.734 39.983C119.079 41.6803 119.321 43.4064 119.732 45.0969C119.814 45.4543 120.028 45.767 120.329 45.9727C121.768 47.0556 123.206 48.1266 124.399 49.5167C126.186 51.5735 127.491 54.01 128.216 56.6453C129.058 59.6514 129.226 62.809 128.707 65.8887C128.332 68.1861 127.716 70.4369 126.87 72.6032C126.02 74.667 124.948 76.6302 123.673 78.4572C122.042 80.8554 120.218 83.089 117.965 84.917C116.493 86.1051 115.03 87.3289 113.378 88.2896C111.943 89.1263 110.468 89.868 108.974 90.5843C106.884 91.584 104.749 92.2816 102.412 92.2137C101.379 92.1865 100.638 93.2134 100.798 94.2504C100.865 94.6815 100.944 95.111 101.017 95.5421L101.21 97.55L101.787 103.526L101.956 105.295C99.9367 99.7449 96.7449 94.7045 92.6017 90.5232L93.0796 90.8881L93.2781 91.0408L93.3168 91.0697L93.6534 91.3226L93.7628 91.4041L94.695 92.1152L97.3132 94.1045L97.4125 94.174C97.7076 94.3633 98.057 94.4474 98.405 94.4129C98.753 94.3785 99.0795 94.2274 99.3325 93.984C100.317 93.029 101.094 91.8775 101.612 90.6029C102.496 88.4338 102.614 85.9812 102.037 83.5592C101.254 80.2716 99.1911 77.0348 96.0378 74.6332C92.8844 72.2315 89.2363 71.1181 85.8861 71.259C82.726 71.393 79.8284 72.6422 77.8681 74.9828C77.7503 75.122 77.6359 75.2663 77.5315 75.4139C77.2161 75.8322 76.9348 76.2755 76.6902 76.7395C76.5148 77.0695 76.4618 77.4518 76.5408 77.8176C76.6197 78.1835 76.8254 78.5089 77.121 78.7355L82.7075 82.9889C83.0351 83.1858 83.3473 83.4076 83.6414 83.6526C83.6667 83.6745 83.6908 83.6977 83.7137 83.7221C76.8248 79.842 68.9605 78.0809 61.091 78.6561C53.2215 79.2313 45.6911 82.1175 39.4287 86.9589C39.4206 86.9334 39.4144 86.9073 39.4102 86.8808L39.3294 86.7993L46.247 80.6365C46.5257 80.3886 46.7078 80.0486 46.7605 79.6775C46.8133 79.3064 46.7332 78.9285 46.5347 78.6116C46.2562 78.1687 45.9433 77.7488 45.5991 77.3556C43.6354 75.1118 40.8388 73.9526 37.8167 73.8592C37.529 73.849 37.2379 73.8507 36.9468 73.8592C35.6682 73.9079 34.4018 74.1283 33.1809 74.5144H33.1607C31.2149 75.135 29.3996 76.1133 27.8064 77.3997L27.7374 77.4541H27.7088C27.7082 77.458 27.7082 77.462 27.7088 77.4659V77.4761C27.7037 77.4825 27.6992 77.4893 27.6953 77.4965C27.4968 77.6583 27.3005 77.8252 27.1064 77.9972L26.9852 78.1058L26.9415 78.1194L26.6049 78.4436L26.5275 78.5369C25.2317 79.7933 24.1448 81.2518 23.3086 82.8565C23.0017 83.4501 22.7331 84.063 22.5042 84.6913C22.1892 85.5534 21.9571 86.444 21.811 87.3509C21.6106 88.5834 21.5947 89.8393 21.7639 91.0765C21.7992 91.3226 21.8429 91.567 21.8934 91.8097C22.2335 93.5326 23.0123 95.1365 24.1533 96.4637C24.4982 96.8573 24.8735 97.2228 25.2756 97.5567C25.346 97.6155 25.4215 97.6677 25.5011 97.7129L25.5718 97.7638C25.592 97.7774 25.6139 97.7927 25.6357 97.8045C25.6576 97.8164 25.6946 97.8385 25.7249 97.8538L25.7586 97.869L25.7905 97.8826C25.8303 97.8995 25.8714 97.9131 25.9134 97.9234H25.9504C25.9674 97.9284 25.9849 97.9318 26.0026 97.9335H26.0295C26.0855 97.9382 26.1417 97.9382 26.1977 97.9335H26.2398L26.334 97.9183H26.366H26.3795L26.4114 97.9098L26.4485 97.8962C26.7607 97.8575 27.054 97.7244 27.2898 97.5143L34.1451 91.4244C34.1737 91.4923 34.204 91.5636 34.2343 91.6264L34.2444 91.64L34.2932 91.7062C30.3259 96.0493 27.3436 101.211 25.5533 106.834L25.4776 107.079C25.353 106.958 25.2251 106.839 25.0956 106.722C24.966 106.605 24.8247 106.486 24.6867 106.371C24.6322 106.326 24.5696 106.293 24.5023 106.273C24.4351 106.253 24.3646 106.246 24.2948 106.253C24.2251 106.261 24.1574 106.282 24.0957 106.315C24.034 106.349 23.9796 106.395 23.9354 106.45C23.8912 106.505 23.8581 106.568 23.8382 106.636C23.8182 106.703 23.8116 106.775 23.8189 106.845C23.8262 106.915 23.8471 106.984 23.8805 107.046C23.9139 107.108 23.9591 107.163 24.0136 107.208L24.1819 107.335L24.2071 107.355L24.2172 107.364L24.367 107.489L24.4343 107.547L24.4528 107.562L24.5941 107.686C24.6379 107.723 24.68 107.763 24.7237 107.803L24.7489 107.825L24.759 107.836L24.8819 107.951L24.9643 108.031L25.0518 108.116L25.1393 108.202L25.1612 108.224L25.2268 108.292L25.2941 108.36L25.3749 108.447C25.4035 108.474 25.4288 108.503 25.4557 108.531L25.4742 108.552L25.5852 108.672L25.661 108.757L25.7081 108.811L25.7888 108.905L25.8646 108.991L25.9235 109.063L25.9891 109.141L26.0732 109.244L26.2213 109.433C26.2273 109.44 26.2329 109.447 26.2381 109.455L26.3727 109.624L26.4013 109.664L26.536 109.847C26.5848 109.916 26.6352 109.986 26.6824 110.056C26.7295 110.125 26.7799 110.196 26.8271 110.268C26.8742 110.339 26.9213 110.41 26.9667 110.482L27.0357 110.59L27.1047 110.699C27.1501 110.772 27.1939 110.845 27.2376 110.919C27.2646 110.962 27.2898 111.006 27.315 111.05C27.3537 111.116 27.3924 111.183 27.4295 111.25L27.5456 111.463C27.5607 111.488 27.5742 111.514 27.5876 111.539L27.628 111.617L27.7088 111.772L27.7643 111.882L27.8249 112.002C27.8451 112.043 27.8653 112.084 27.8838 112.125C27.9023 112.165 27.9242 112.208 27.9427 112.248C27.9864 112.342 28.0302 112.437 28.0723 112.534C28.0941 112.581 28.116 112.629 28.1362 112.676C28.1564 112.724 28.1783 112.773 28.1985 112.82C28.2186 112.868 28.2388 112.916 28.2573 112.963L28.328 113.133L28.3735 113.246L28.4189 113.365C28.4408 113.421 28.461 113.477 28.4811 113.535C28.5013 113.593 28.5131 113.618 28.5283 113.661V113.671C28.54 113.705 28.5518 113.739 28.5653 113.774C28.5787 113.81 28.5872 113.841 28.5989 113.873C28.6107 113.905 28.6208 113.936 28.6309 113.968C28.641 114 28.6646 114.066 28.6797 114.114C28.6948 114.161 28.7117 114.212 28.7285 114.261C28.7638 114.373 28.7975 114.485 28.8312 114.601C28.8547 114.682 28.8783 114.762 28.9001 114.844V114.857L28.9203 114.932L28.9405 115.007C28.9674 115.107 28.9927 115.207 29.0179 115.307C29.0432 115.411 29.0684 115.514 29.092 115.618C29.6115 117.839 29.6602 120.146 29.235 122.388C29.2198 122.458 29.2064 122.529 29.1912 122.599L29.1458 122.804C29.1357 122.85 29.1239 122.896 29.1138 122.941C29.1138 122.941 29.1138 122.941 29.1138 122.952C29.1037 122.999 29.092 123.047 29.0802 123.094C29.0684 123.142 29.0684 123.142 29.0617 123.167C29.0549 123.193 29.0448 123.228 29.0381 123.259V123.279C29.0381 123.305 29.0263 123.328 29.0196 123.354C29.0201 123.36 29.0201 123.366 29.0196 123.372C29.0196 123.408 29.0011 123.444 28.991 123.478C28.991 123.478 28.991 123.486 28.991 123.49C28.9792 123.53 28.9691 123.571 28.9557 123.614L28.9439 123.656C28.9304 123.702 28.917 123.748 28.9018 123.793L28.8867 123.846C28.8766 123.875 28.8682 123.904 28.8581 123.931C28.848 123.958 28.8429 123.982 28.8345 124.007C28.8345 124.026 28.8227 124.045 28.816 124.065L28.7756 124.184C28.7655 124.216 28.7554 124.245 28.7436 124.277C28.7319 124.309 28.7319 124.313 28.7251 124.33C28.7049 124.387 28.6848 124.447 28.6629 124.499C28.6629 124.511 28.6629 124.523 28.6494 124.537C28.6242 124.605 28.5972 124.673 28.5703 124.742C28.5417 124.817 28.5114 124.89 28.4811 124.965L28.4256 125.095C28.4122 125.126 28.3987 125.156 28.3869 125.187C28.3751 125.217 28.3718 125.224 28.3634 125.241C28.3549 125.258 28.328 125.319 28.3112 125.357C28.2944 125.394 28.286 125.413 28.2725 125.441V125.455C28.2607 125.482 28.2472 125.511 28.2338 125.538L28.1783 125.655C28.1728 125.668 28.1666 125.679 28.1598 125.691C28.1396 125.735 28.116 125.781 28.0941 125.827C28.0504 125.912 28.0066 125.997 27.9612 126.081C27.946 126.112 27.9292 126.141 27.9124 126.173C27.8485 126.288 27.7845 126.402 27.7172 126.512C27.6499 126.623 27.586 126.733 27.517 126.842C27.49 126.884 27.4648 126.925 27.4379 126.964L27.4025 127.018V127.03L27.3336 127.132C27.3239 127.148 27.3132 127.164 27.3016 127.18L27.2191 127.298L27.1922 127.337V127.348C27.1735 127.377 27.1533 127.405 27.1316 127.432C27.1114 127.463 27.0896 127.492 27.066 127.522L27.0037 127.607L26.9634 127.66L26.9449 127.685L26.8792 127.77L26.8388 127.821L26.7951 127.877C26.7816 127.896 26.7665 127.913 26.7513 127.931C26.7444 127.942 26.7365 127.951 26.7278 127.96L26.6218 128.089C26.5393 128.189 26.4535 128.288 26.366 128.385C26.3324 128.422 26.2987 128.458 26.2634 128.493L26.1607 128.6C26.0833 128.68 26.0042 128.756 25.9251 128.831L25.8511 128.901L25.7787 128.967L25.6896 129.048C25.6105 129.118 25.5297 129.186 25.4489 129.252L25.3715 129.316L25.2672 129.4L25.1612 129.479L25.0569 129.557L24.9946 129.603L24.9492 129.635C24.8785 129.686 24.8062 129.736 24.7338 129.783C24.7018 129.805 24.6699 129.827 24.6362 129.848L24.6211 129.858C21.7369 131.725 18.0889 131.679 14.7538 130.625C13.6922 130.292 12.6553 129.884 11.6509 129.403C10.8398 129.028 10.0574 128.593 9.2783 128.152C9.26245 128.143 9.24398 128.14 9.22614 128.144C9.2083 128.147 9.19221 128.157 9.1807 128.171C7.90336 127.121 6.74433 125.932 5.72446 124.627C4.45571 123.026 3.48144 121.246 2.64514 119.384C1.28889 116.361 0.402113 113.189 0.222066 109.894C0.0706236 107.808 -0.12625 105.646 0.11774 103.487ZM74.0349 51.9812C74.8123 50.4977 75.0445 48.904 74.9621 47.2644C74.819 44.7185 74.1796 42.327 72.4582 40.3378C71.1121 38.7779 69.4092 38.228 67.7703 38.8934C66.7741 39.2956 66.0876 40.0492 65.5945 40.9844C64.9054 42.3009 64.592 43.7845 64.6892 45.2701C64.8222 48.2149 65.5222 50.9458 67.7383 53.064C69.8265 55.06 72.6854 54.5525 74.0349 51.9812ZM50.5698 67.065C52.2003 68.3311 54.8102 69.1204 58.1251 69.1306C61.4046 68.9337 64.834 67.5385 67.2234 64.11C67.9806 63.0254 67.814 62.0019 66.8784 61.3213C65.9698 60.6594 64.903 60.8478 64.1188 61.8407C62.0996 64.3866 59.4662 65.4916 56.2691 65.164C55.0285 65.0244 53.8387 64.5892 52.7977 63.8944C51.4027 62.9915 50.1744 63.4599 49.6931 65.0452C49.4929 65.7071 49.8328 66.493 50.5698 67.065ZM37.3775 51.7435C37.6737 53.7243 38.3266 55.5522 39.6172 57.1019C40.573 58.2458 41.6616 59.1963 43.2905 58.9485C44.9193 58.7007 46.0148 57.7333 46.6929 56.2464C47.2633 54.9955 47.4854 53.6733 47.4838 51.9845C47.3912 49.6406 46.7568 47.1592 45.0119 45.0681C42.9253 42.5697 39.8326 42.8616 38.2811 45.7368C37.2782 47.6157 37.0629 49.644 37.3775 51.7435Z" fill="white"/>
<path d="M33.4031 74.4567C33.5529 74.4176 33.7009 74.3803 33.8507 74.3463C33.7077 74.3803 33.5529 74.4159 33.4031 74.4567Z" fill="white"/>
<path d="M27.6904 77.4863C27.6853 77.4927 27.6808 77.4995 27.6769 77.5067L27.7324 77.4609H27.7038C27.7033 77.4648 27.7033 77.4688 27.7038 77.4727L27.6904 77.4863Z" fill="white"/>
<path d="M26.5074 78.5488C26.6572 78.4029 26.8086 78.2603 26.9651 78.1177L26.9213 78.1313L26.5848 78.4555L26.5074 78.5488Z" fill="white"/>
<path d="M29.3916 124.455L29.3546 124.554C32.1361 141.761 46.9403 154.895 64.7853 154.895C84.6107 154.895 100.679 138.682 100.679 118.685C100.679 98.6872 84.6073 82.4747 64.7819 82.4747C46.8209 82.4747 31.9409 95.778 29.299 113.148L29.3546 113.306C29.506 113.752 29.6406 114.207 29.755 114.664C30.2142 116.492 30.3806 118.383 30.2481 120.265C30.2211 120.645 30.1819 121.023 30.1303 121.4L30.0848 121.699C30.0764 121.753 30.0663 121.809 30.0579 121.869L30.0226 122.067L30.0024 122.174L29.9772 122.302C29.9772 122.324 29.9687 122.346 29.9637 122.366C29.9637 122.414 29.9452 122.459 29.9351 122.507L29.8897 122.714V122.736C29.8796 122.785 29.8678 122.834 29.856 122.884C29.8442 122.933 29.8274 123.004 29.8123 123.064C29.7971 123.123 29.7736 123.216 29.7534 123.291C29.7332 123.366 29.7231 123.405 29.7062 123.461V123.481C29.6961 123.518 29.6844 123.556 29.6743 123.595C29.6642 123.634 29.6457 123.695 29.6305 123.746L29.5649 123.956L29.5144 124.113C29.5149 124.122 29.5149 124.131 29.5144 124.14L29.4707 124.27C29.4713 124.275 29.4713 124.281 29.4707 124.286L29.3916 124.455Z" fill="white"/>
<path d="M29.4471 124.299C29.4477 124.294 29.4477 124.289 29.4471 124.284L29.4909 124.153C29.4914 124.144 29.4914 124.135 29.4909 124.126L29.5413 123.97L29.607 123.76C29.6221 123.709 29.6356 123.658 29.6507 123.608C29.6659 123.559 29.6726 123.532 29.6827 123.495V123.474C29.6995 123.418 29.7147 123.362 29.7298 123.305C29.7449 123.247 29.7702 123.154 29.7887 123.077C29.8072 123.001 29.819 122.957 29.8324 122.897C29.8459 122.838 29.856 122.799 29.8661 122.75V122.728L29.9115 122.52C29.9216 122.473 29.9317 122.427 29.9401 122.38C29.9401 122.359 29.9502 122.337 29.9536 122.315L29.9788 122.188L29.999 122.081L30.0344 121.882C30.0344 121.828 30.0529 121.772 30.0613 121.713L30.1067 121.414C30.1594 121.037 30.1987 120.659 30.2245 120.278C30.3571 118.397 30.1906 116.506 29.7315 114.677C29.6171 114.219 29.4824 113.764 29.331 113.319L29.2755 113.162C31.9442 95.7848 46.8242 82.4747 64.7853 82.4747C84.6107 82.4747 100.679 98.6872 100.679 118.685C100.679 138.682 84.6073 154.895 64.7819 154.895C46.937 154.895 32.1377 141.761 29.3512 124.554L29.3882 124.455L29.4471 124.299ZM42.7404 105.405C41.9293 104.528 40.8423 104.073 39.868 103.462C39.1512 103.012 38.2274 103.708 38.2038 104.59C38.1887 105.201 38.6464 105.509 39.0586 105.778C39.8293 106.276 40.6488 106.695 41.4497 107.146C42.0454 107.486 42.4105 107.09 42.7471 106.698C43.0836 106.306 43.1661 105.865 42.7336 105.398L42.7404 105.405ZM52.0036 96.1242C51.4609 95.116 50.842 94.1513 50.1526 93.2389C49.8329 92.8281 49.4307 92.6652 48.9343 92.8553C48.3942 93.064 48.1519 93.4833 48.162 94.1062C48.1454 94.3128 48.1968 94.5193 48.3084 94.6934C48.8948 95.649 49.5632 96.5509 50.3057 97.3887C50.7129 97.8249 51.1471 97.7163 51.5425 97.4142C51.9379 97.1121 52.335 96.7251 52.0036 96.1242ZM66.0153 89.1365C65.9951 88.5662 65.6788 88.1181 65.0175 88.0689C64.0432 87.9959 63.6444 88.1623 63.5031 88.9176C63.2428 90.2613 63.2274 91.6417 63.4576 92.991C63.572 93.6479 64.1711 93.9568 64.7752 93.9551C65.3793 93.9534 65.8975 93.6937 66.0994 93.0114C66.2088 92.6448 66.1651 92.2816 66.2004 91.7826C66.0938 90.9043 66.0321 90.0212 66.0153 89.1365ZM90.4463 103.801C90.0895 103.249 89.4266 103.087 88.7636 103.501C87.9004 104.044 87.0809 104.665 86.2564 105.264C86.145 105.335 86.056 105.437 85.9996 105.557C85.9433 105.677 85.9221 105.811 85.9384 105.943C85.9384 106.792 86.7275 107.377 87.441 107.026C88.334 106.586 89.2004 106.094 90.0357 105.551C90.1787 105.465 90.303 105.351 90.4012 105.216C90.4993 105.08 90.5694 104.926 90.6071 104.763C90.6448 104.599 90.6494 104.43 90.6206 104.265C90.5918 104.099 90.5302 103.942 90.4395 103.801H90.4463ZM93.3405 120.596C94.0742 120.37 94.5285 119.788 94.4427 119.1C94.3926 118.763 94.2213 118.455 93.9614 118.236C93.7016 118.017 93.371 117.902 93.0326 117.912C92.0364 117.912 91.0369 117.912 90.0407 117.912C89.2415 117.912 88.7754 118.32 88.6542 119.1C88.6139 119.43 88.6917 119.764 88.8737 120.042C89.0558 120.319 89.33 120.521 89.647 120.613C89.7583 120.662 89.8763 120.694 89.997 120.708C90.4833 120.718 90.9696 120.708 91.4559 120.708C92.0768 120.682 92.7095 120.789 93.3338 120.596H93.3405ZM86.3186 133.191C87.2475 133.86 88.1208 134.605 89.1792 135.07C89.6739 135.286 90.0307 135.128 90.3571 134.797C90.6835 134.466 90.8619 134.048 90.6852 133.529C90.3773 132.597 89.4939 132.341 88.8073 131.873C88.5129 131.672 88.1696 131.523 87.8718 131.312C87.4612 131.024 86.9968 130.914 86.5609 131.143C86.3405 131.261 86.1616 131.445 86.0489 131.669C85.9362 131.894 85.8952 132.148 85.9316 132.397C85.9075 132.553 85.931 132.712 85.9989 132.854C86.0669 132.996 86.176 133.114 86.3119 133.191H86.3186ZM77.2102 142.048C77.9489 143.126 78.4622 144.375 79.5374 145.196C80.0052 145.554 80.4696 145.427 80.8735 145.096C81.2773 144.765 81.5465 144.356 81.2756 143.75C80.7355 142.53 79.8268 141.615 78.8997 140.71C78.5732 140.391 78.1845 140.454 77.8126 140.625C77.365 140.831 77.1833 141.214 77.1396 141.681C77.1377 141.806 77.1594 141.931 77.2035 142.048H77.2102ZM77.7151 97.5058C78.0768 97.7401 78.4739 97.7672 78.8105 97.5058C79.8706 96.6844 80.5638 95.5658 81.0922 94.3574C81.3244 93.8278 81.0098 93.3543 80.5403 93.0505C80.1112 92.7721 79.6182 92.7483 79.2766 93.1353C78.473 94.0096 77.7935 94.9921 77.2574 96.0547C77.2017 96.2145 77.1644 96.3802 77.1463 96.5486C77.0857 97.017 77.3634 97.2852 77.7016 97.5058H77.7151ZM63.4122 147.304C63.4745 147.829 63.3028 148.555 63.6124 149.283C63.8934 149.942 64.2973 150.236 64.9586 150.103C65.5122 149.991 66.2744 149.535 66.1785 148.879C66.0002 147.683 66.1213 146.476 66.0103 145.283C65.9598 144.741 65.7192 144.236 65.0293 144.191C64.2031 144.141 63.7521 144.407 63.5148 145.13C63.4671 145.243 63.4354 145.362 63.4206 145.483C63.3937 146.025 63.3987 146.564 63.3987 147.304H63.4122ZM58.5492 116.908C59.2677 117.442 59.9846 117.98 60.7132 118.501C60.8753 118.607 61.0073 118.754 61.0958 118.928C61.1843 119.101 61.2265 119.294 61.218 119.489C61.2466 121.268 62.7862 122.862 64.5514 122.984C65.4606 123.031 66.3549 122.736 67.0606 122.156C67.7664 121.576 68.2334 120.752 68.3711 119.844C68.5982 118.264 68.2112 116.906 66.8567 115.957C66.4966 115.706 66.4393 115.397 66.4494 115.008C66.579 109.94 66.4747 104.872 66.4797 99.804C66.4797 99.0266 65.6384 98.1152 64.8795 98.0829C64.0264 98.049 63.2995 98.772 63.2927 99.7463C63.2742 102.304 63.2927 104.862 63.2927 107.421H63.2725C63.2725 109.881 63.2725 112.341 63.2725 114.801C63.2725 115.141 63.3331 115.523 62.968 115.725C62.5742 115.945 62.3437 115.601 62.0795 115.405C59.1079 113.223 56.1497 111.02 53.1612 108.864C52.0389 108.054 51.0108 108.431 50.5497 109.692C50.2923 110.4 50.6069 110.92 51.0966 111.315C52.086 112.113 53.1158 112.853 54.1389 113.615L58.5492 116.908ZM49.1884 145.432C49.4694 145.649 49.7353 145.5 49.9625 145.262C50.8391 144.366 51.4584 143.282 52.0927 142.218C52.4074 141.69 52.0927 141.067 51.4281 140.634C50.9485 140.322 50.6103 140.575 50.2906 140.924C49.4812 141.812 48.8653 142.839 48.2074 143.837C48.1192 144.02 48.0537 144.214 48.0122 144.414C48.2041 144.987 48.7846 145.116 49.1884 145.432ZM38.1971 133.804C38.1836 134.427 38.5336 134.809 38.9678 135.097C39.3161 135.332 39.6644 135.138 39.9774 134.928C40.738 134.446 41.5221 133.998 42.2608 133.483C43.1375 132.874 43.2435 132.392 42.7656 131.66C42.2877 130.929 41.9377 130.851 41.1956 131.341C40.3661 131.891 39.4574 132.321 38.7103 133C38.4562 133.246 38.1668 133.441 38.1971 133.804ZM36.0752 120.699C37.1202 120.745 38.1719 120.75 39.2168 120.699C40.0026 120.662 40.4603 119.949 40.4082 119.002C40.3711 118.323 39.9202 117.921 39.1293 117.902C38.9728 117.902 38.818 117.902 38.6615 117.902H36.1375C35.2372 117.902 34.8637 118.23 34.8334 119.014C34.7913 119.924 35.3046 120.674 36.0752 120.706V120.699Z" fill="white"/>
<path d="M91.4492 120.709C92.0768 120.682 92.7095 120.789 93.3338 120.596C94.0674 120.37 94.5217 119.788 94.4359 119.1C94.3858 118.763 94.2146 118.455 93.9547 118.236C93.6948 118.017 93.3643 117.902 93.0258 117.912C92.0297 117.912 91.0302 117.912 90.034 117.912C89.2347 117.912 88.7686 118.32 88.6475 119.1C88.6071 119.43 88.685 119.764 88.867 120.042C89.049 120.319 89.3233 120.521 89.6403 120.613C89.7516 120.662 89.8695 120.694 89.9903 120.708C90.4766 120.715 90.9629 120.709 91.4492 120.709Z" fill="white"/>
<path d="M90.4395 103.801C90.0827 103.249 89.4197 103.087 88.7568 103.501C87.8935 104.044 87.0741 104.665 86.2496 105.264C86.1382 105.335 86.0491 105.437 85.9928 105.557C85.9365 105.677 85.9153 105.811 85.9315 105.943C85.9315 106.792 86.7207 107.377 87.4342 107.026C88.3272 106.586 89.1936 106.094 90.0289 105.551C90.1724 105.466 90.2973 105.352 90.3962 105.217C90.495 105.082 90.5658 104.928 90.6041 104.764C90.6425 104.601 90.6477 104.431 90.6194 104.266C90.5911 104.1 90.5299 103.942 90.4395 103.801Z" fill="white"/>
<path d="M85.9366 132.4C85.9127 132.555 85.9358 132.713 86.0028 132.854C86.0697 132.996 86.1775 133.113 86.3118 133.191C87.2407 133.86 88.114 134.605 89.1724 135.07C89.6671 135.286 90.0238 135.128 90.3503 134.797C90.6767 134.466 90.8551 134.048 90.6784 133.529C90.3705 132.597 89.487 132.341 88.8005 131.873C88.506 131.672 88.1628 131.523 87.8649 131.312C87.4544 131.024 86.9899 130.914 86.5541 131.143C86.3352 131.263 86.1584 131.448 86.0478 131.673C85.9373 131.898 85.8984 132.152 85.9366 132.4Z" fill="white"/>
<path d="M77.1395 141.681C77.1377 141.806 77.1594 141.931 77.2035 142.048C77.9422 143.126 78.4554 144.375 79.5307 145.196C79.9984 145.554 80.4629 145.427 80.8667 145.096C81.2706 144.765 81.5398 144.356 81.2689 143.75C80.7287 142.53 79.8201 141.615 78.8929 140.71C78.5665 140.391 78.1778 140.454 77.8059 140.625C77.3583 140.831 77.1766 141.214 77.1395 141.681Z" fill="white"/>
<path d="M77.121 96.5486C77.0806 97.017 77.3583 97.2852 77.6965 97.5058C78.0347 97.7265 78.4554 97.7672 78.7919 97.5058C79.852 96.6844 80.5453 95.5658 81.0736 94.3574C81.3059 93.8278 80.9912 93.3543 80.5217 93.0505C80.0926 92.7721 79.5996 92.7483 79.258 93.1353C78.4544 94.0096 77.7749 94.9921 77.2388 96.0547C77.1808 96.2142 77.1413 96.3799 77.121 96.5486Z" fill="white"/>
<path d="M66.0876 93.0131C66.197 92.6465 66.1533 92.2833 66.1886 91.7843C66.0837 90.9054 66.0236 90.0216 66.0085 89.1365C65.9884 88.5662 65.672 88.1181 65.0107 88.0689C64.0364 87.9959 63.6376 88.1623 63.4963 88.9176C63.236 90.2613 63.2206 91.6417 63.4509 92.991C63.5653 93.6479 64.1643 93.9568 64.7684 93.9551C65.3725 93.9534 65.8857 93.6954 66.0876 93.0131Z" fill="white"/>
<path d="M63.4038 145.483C63.3937 146.025 63.4038 146.564 63.4038 147.304C63.466 147.829 63.2944 148.555 63.604 149.283C63.885 149.942 64.2889 150.235 64.9502 150.103C65.5038 149.991 66.266 149.535 66.1701 148.879C65.9917 147.683 66.1129 146.476 66.0018 145.283C65.9514 144.741 65.7107 144.236 65.0208 144.191C64.1946 144.141 63.7437 144.407 63.5064 145.13C63.4558 145.242 63.4212 145.361 63.4038 145.483Z" fill="white"/>
<path d="M51.0882 111.315C52.0776 112.113 53.1074 112.853 54.1305 113.615L58.5357 116.908C59.2543 117.442 59.9711 117.98 60.6997 118.501C60.8619 118.607 60.9938 118.754 61.0823 118.927C61.1709 119.101 61.213 119.294 61.2045 119.489C61.2331 121.268 62.7728 122.862 64.5379 122.984C65.4494 123.034 66.347 122.741 67.0556 122.16C67.7642 121.58 68.2332 120.754 68.3711 119.844C68.5982 118.264 68.2112 116.906 66.8566 115.957C66.4966 115.706 66.4393 115.397 66.4494 115.008C66.579 109.94 66.4747 104.872 66.4797 99.804C66.4797 99.0266 65.6384 98.1152 64.8795 98.0829C64.0264 98.049 63.2994 98.772 63.2927 99.7463C63.2742 102.304 63.2927 104.862 63.2927 107.421H63.2725C63.2725 109.881 63.2725 112.341 63.2725 114.801C63.2725 115.141 63.3331 115.523 62.968 115.725C62.5742 115.945 62.3437 115.601 62.0795 115.405C59.1079 113.223 56.1497 111.02 53.1612 108.864C52.0389 108.054 51.0108 108.431 50.5497 109.692C50.2838 110.4 50.5985 110.92 51.0882 111.315Z" fill="white"/>
<path d="M52.0036 96.1242C51.4609 95.116 50.842 94.1513 50.1526 93.2389C49.8329 92.8281 49.4307 92.6652 48.9343 92.8553C48.3942 93.064 48.1519 93.4833 48.162 94.1062C48.1454 94.3128 48.1968 94.5193 48.3084 94.6934C48.8948 95.649 49.5632 96.5509 50.3057 97.3887C50.7129 97.8249 51.1471 97.7163 51.5425 97.4142C51.9379 97.1121 52.335 96.7251 52.0036 96.1242Z" fill="white"/>
<path d="M48.2124 143.844C48.1242 144.027 48.0587 144.221 48.0172 144.421C48.204 144.987 48.7845 145.116 49.1951 145.439C49.4761 145.656 49.742 145.507 49.9691 145.269C50.8458 144.373 51.465 143.289 52.0994 142.224C52.4141 141.696 52.0994 141.074 51.4347 140.641C50.9552 140.328 50.617 140.581 50.2972 140.931C49.4862 141.819 48.8703 142.846 48.2124 143.844Z" fill="white"/>
<path d="M42.7403 106.688C43.097 106.272 43.166 105.865 42.7403 105.398C41.9293 104.521 40.8422 104.066 39.868 103.455C39.1511 103.005 38.2273 103.701 38.2038 104.584C38.1886 105.195 38.6463 105.502 39.0586 105.772C39.8293 106.269 40.6487 106.688 41.4497 107.14C42.0386 107.472 42.4038 107.08 42.7403 106.688Z" fill="white"/>
<path d="M38.1971 133.804C38.1836 134.427 38.5336 134.809 38.9678 135.097C39.3161 135.332 39.6644 135.138 39.9774 134.928C40.7379 134.446 41.5221 133.998 42.2608 133.483C43.1375 132.874 43.2435 132.392 42.7656 131.66C42.2877 130.929 41.9377 130.851 41.1956 131.341C40.3661 131.891 39.4574 132.321 38.7103 133C38.4562 133.246 38.1668 133.441 38.1971 133.804Z" fill="white"/>
<path d="M36.0752 120.706C37.1201 120.752 38.1718 120.757 39.2167 120.706C40.0026 120.669 40.4602 119.956 40.4081 119.009C40.3711 118.33 39.9201 117.928 39.1292 117.909C38.9727 117.909 38.8179 117.909 38.6615 117.909H36.1374C35.2372 117.909 34.8636 118.237 34.8333 119.021C34.7913 119.924 35.3045 120.674 36.0752 120.706Z" fill="white"/>
<path d="M99.4402 60.0569L99.8205 59.8345C99.8962 59.7904 99.9719 59.731 100.049 59.6852C99.8508 59.8023 99.6488 59.9194 99.4402 60.0569Z" fill="white"/>
<path d="M26.5849 78.4555L26.9214 78.1313L26.9652 78.1177C26.8087 78.2603 26.6572 78.4029 26.5075 78.5488L26.5849 78.4555ZM27.6904 77.4863V77.4761C27.6898 77.4722 27.6898 77.4682 27.6904 77.4642H27.719L27.6635 77.5101C27.6714 77.501 27.6804 77.493 27.6904 77.4863Z" fill="#3B82F6"/>
<path d="M33.4031 74.4567C33.5529 74.4176 33.7009 74.3803 33.8507 74.3463C33.7077 74.3803 33.5529 74.4159 33.4031 74.4567Z" fill="white"/>
<path d="M30.8353 93.7871L30.8454 93.8278L30.874 93.7973L30.8353 93.7871Z" fill="white"/>
<path d="M31.4192 93.1964L31.4276 93.2371L31.4596 93.2049L31.4192 93.1964Z" fill="white"/>
<path d="M107.638 45.338C107.62 45.2548 107.603 45.1682 107.59 45.0545C107.576 44.9408 107.569 44.8848 107.561 44.7965C107.578 44.8763 107.596 45.0749 107.638 45.338Z" fill="white"/>
<path d="M33.8506 74.3463C33.7008 74.3803 33.5528 74.4176 33.403 74.4567C33.5528 74.4159 33.7076 74.3803 33.8506 74.3463ZM33.8506 74.3463C33.7008 74.3803 33.5528 74.4176 33.403 74.4567C33.5528 74.4159 33.7076 74.3803 33.8506 74.3463ZM33.8506 74.3463C33.7008 74.3803 33.5528 74.4176 33.403 74.4567C33.5528 74.4159 33.7076 74.3803 33.8506 74.3463ZM33.8506 74.3463C33.7008 74.3803 33.5528 74.4176 33.403 74.4567C33.5528 74.4159 33.7076 74.3803 33.8506 74.3463ZM33.8506 74.3463C33.7008 74.3803 33.5528 74.4176 33.403 74.4567C33.5528 74.4159 33.7076 74.3803 33.8506 74.3463ZM33.8506 74.3463C33.7008 74.3803 33.5528 74.4176 33.403 74.4567C33.5528 74.4159 33.7076 74.3803 33.8506 74.3463ZM33.8506 74.3463C33.7008 74.3803 33.5528 74.4176 33.403 74.4567C33.5528 74.4159 33.7076 74.3803 33.8506 74.3463ZM33.8506 74.3463C33.7008 74.3803 33.5528 74.4176 33.403 74.4567C33.5528 74.4159 33.7076 74.3803 33.8506 74.3463ZM33.8506 74.3463C33.7008 74.3803 33.5528 74.4176 33.403 74.4567C33.5528 74.4159 33.7076 74.3803 33.8506 74.3463ZM33.8506 74.3463C33.7008 74.3803 33.5528 74.4176 33.403 74.4567C33.5528 74.4159 33.7076 74.3803 33.8506 74.3463ZM33.8506 74.3463C33.7008 74.3803 33.5528 74.4176 33.403 74.4567C33.5528 74.4159 33.7076 74.3803 33.8506 74.3463ZM33.8506 74.3463C33.7008 74.3803 33.5528 74.4176 33.403 74.4567C33.5528 74.4159 33.7076 74.3803 33.8506 74.3463ZM33.8506 74.3463C33.7008 74.3803 33.5528 74.4176 33.403 74.4567C33.5528 74.4159 33.7076 74.3803 33.8506 74.3463ZM33.8506 74.3463C33.7008 74.3803 33.5528 74.4176 33.403 74.4567C33.5528 74.4159 33.7076 74.3803 33.8506 74.3463ZM33.8506 74.3463C33.7008 74.3803 33.5528 74.4176 33.403 74.4567C33.5528 74.4159 33.7076 74.3803 33.8506 74.3463ZM33.8506 74.3463C33.7008 74.3803 33.5528 74.4176 33.403 74.4567C33.5528 74.4159 33.7076 74.3803 33.8506 74.3463ZM33.8506 74.3463C33.7008 74.3803 33.5528 74.4176 33.403 74.4567C33.5528 74.4159 33.7076 74.3803 33.8506 74.3463ZM33.8506 74.3463C33.7008 74.3803 33.5528 74.4176 33.403 74.4567C33.5528 74.4159 33.7076 74.3803 33.8506 74.3463Z" fill="white"/>
<path d="M21.7841 87.373C21.9302 86.4661 22.1623 85.5755 22.4773 84.7134C22.7043 84.0875 22.9707 83.4769 23.2749 82.8854C24.1112 81.2806 25.1981 79.8221 26.4939 78.5658C26.6437 78.4198 26.7951 78.2773 26.9516 78.1347L27.0728 78.0261C27.2668 77.8529 27.4631 77.686 27.6617 77.5254L27.7172 77.4795L27.7862 77.4252C29.3794 76.1387 31.1947 75.1605 33.1405 74.5398H33.1607C34.3816 74.1537 35.648 73.9334 36.9266 73.8847C37.2177 73.8745 37.5088 73.8728 37.7965 73.8847C40.8254 73.978 43.6153 75.1373 45.579 77.3811C45.9232 77.7742 46.236 78.1942 46.5145 78.6371C46.713 78.954 46.7931 79.3319 46.7404 79.703C46.6876 80.074 46.5056 80.414 46.2268 80.6619L39.3093 86.8248L39.39 86.9063C39.3942 86.9327 39.4004 86.9588 39.4085 86.9843C45.667 82.1344 53.1984 79.2428 61.0701 78.6677C68.9417 78.0927 76.8076 79.8595 83.6936 83.7493C83.6707 83.7249 83.6465 83.7016 83.6212 83.6797C83.3272 83.4348 83.0149 83.2129 82.6873 83.0161L77.121 78.7355C76.8238 78.5104 76.6161 78.1856 76.5352 77.8196C76.4544 77.4537 76.5058 77.0706 76.6801 76.7395C76.9247 76.2755 77.2061 75.8322 77.5215 75.4139C77.6325 75.2663 77.7469 75.122 77.858 74.9828C79.8183 72.6423 82.7159 71.393 85.876 71.259C89.2279 71.1181 92.8777 72.2315 96.031 74.6332C99.1844 77.0348 101.247 80.2716 102.03 83.5592C102.607 85.9812 102.489 88.4338 101.606 90.603C101.089 91.8769 100.315 93.0283 99.3325 93.984C99.0792 94.2287 98.7517 94.3804 98.4026 94.4149C98.0535 94.4494 97.703 94.3646 97.4075 94.1741L97.3082 94.1045L94.6933 92.1135L93.7611 91.4024L93.6517 91.3209L93.3152 91.068L93.2765 91.0392L93.0779 90.8864L92.6017 90.5232H92.5916C96.4991 94.4752 99.5593 99.1952 101.582 104.39C103.606 109.585 104.548 115.144 104.352 120.722C104.156 126.3 102.825 131.778 100.442 136.815C98.0594 141.852 94.6752 146.342 90.5 150.005C90.951 150.723 91.3935 151.444 91.8125 152.179C92.4284 153.263 93.1587 154.294 93.4447 155.545C93.7729 156.998 92.6034 158.528 91.1344 158.554C90.1618 158.571 89.4652 157.975 88.7786 157.401C87.7135 156.502 86.6921 155.55 85.6539 154.618C85.4553 154.44 85.2719 154.212 85.0818 154.014C78.806 157.885 71.6016 159.956 64.2451 160.002C56.8887 160.049 49.6592 158.069 43.3359 154.277C42.9489 154.088 42.5647 153.893 42.1833 153.691C41.6633 153.416 41.4227 153.471 41.0239 153.861C39.4856 155.405 37.8372 156.833 36.092 158.135C35.0824 158.883 33.6554 158.583 32.8949 157.58C32.1814 156.634 32.1191 155.653 32.6189 154.604C33.4602 152.851 34.517 151.223 35.4593 149.528C35.6578 149.171 35.7134 148.932 35.3802 148.64C33.361 146.871 31.7018 144.789 30.1773 142.601C28.1951 139.753 26.7514 136.628 25.5836 133.371C25.3732 132.828 25.1831 132.29 25.0216 131.762C25.0115 131.73 25.0014 131.699 24.993 131.667C24.9677 131.584 24.9442 131.497 24.9206 131.421C24.897 131.345 24.8886 131.307 24.8735 131.251C24.7978 130.971 24.7305 130.695 24.6749 130.421L24.6985 130.408L24.8348 130.326L24.9088 130.279C24.9341 130.264 24.9576 130.25 24.9812 130.233L25.0771 130.17C25.3856 129.967 25.6822 129.747 25.9655 129.51L26.053 129.437L26.0648 129.427L26.1792 129.327L26.2482 129.266L26.3694 129.153L26.4535 129.075C26.4922 129.04 26.5292 129.002 26.5663 128.965L26.6639 128.868L26.7076 128.824L26.7833 128.746L26.9213 128.598L26.9987 128.515C27.0223 128.486 27.0475 128.459 27.0711 128.432L27.1468 128.347L27.1569 128.335C27.2006 128.284 27.2444 128.232 27.2865 128.179C27.3285 128.127 27.3403 128.115 27.3672 128.082L27.4581 127.969L27.5574 127.841V127.83C27.591 127.787 27.623 127.743 27.655 127.701L27.7559 127.561L27.8518 127.424L27.9074 127.341L27.9965 127.208L28.0773 127.083C28.0958 127.056 28.1127 127.028 28.1295 127L28.1951 126.898L28.2641 126.782L28.3314 126.669L28.4139 126.523C28.498 126.377 28.5821 126.227 28.6562 126.075L28.7319 125.924C28.7824 125.82 28.8312 125.718 28.88 125.613L28.9506 125.455L28.986 125.377L29.0213 125.297L29.0819 125.153L29.092 125.128L29.124 125.051L29.1542 124.975C29.1761 124.92 29.198 124.866 29.2182 124.805C29.2384 124.744 29.2602 124.698 29.2804 124.645C29.2794 124.642 29.2794 124.637 29.2804 124.634L29.3023 124.572C32.136 141.761 46.9403 154.895 64.7852 154.895C84.6106 154.895 100.679 138.682 100.679 118.685C100.679 98.6871 84.6073 82.4746 64.7818 82.4746C46.8208 82.4746 31.9408 95.778 29.2989 113.148C28.798 111.705 28.0954 110.341 27.2124 109.098C26.9381 108.715 26.6453 108.341 26.3341 107.985C26.0615 107.671 25.7748 107.369 25.4742 107.079L25.5499 106.834C27.3419 101.213 30.3253 96.0526 34.2932 91.7113L34.2444 91.6451L34.2343 91.6315C34.204 91.5687 34.1737 91.4974 34.1451 91.4295L27.3016 97.5262C27.0658 97.7363 26.7725 97.8694 26.4603 97.9081L26.4232 97.9217L26.3913 97.9302H26.3778H26.3458L26.2516 97.9454H26.2095C26.1535 97.9501 26.0973 97.9501 26.0413 97.9454H26.0143C25.9967 97.9437 25.9792 97.9403 25.9622 97.9352H25.9252C25.8832 97.925 25.8421 97.9114 25.8023 97.8945L25.7704 97.8809L25.7367 97.8657C25.7064 97.8504 25.6778 97.8351 25.6475 97.8164C25.6172 97.7978 25.6038 97.7893 25.5836 97.7757L25.5129 97.7248C25.4333 97.6796 25.3578 97.6274 25.2874 97.5686C24.8853 97.2347 24.51 96.8692 24.1651 96.4756C23.0175 95.1571 22.2295 93.5603 21.8783 91.842C21.8278 91.5993 21.7841 91.3549 21.7487 91.1088C21.5747 89.8688 21.5866 88.6094 21.7841 87.373ZM33.8506 74.3463C33.7009 74.3803 33.5528 74.4159 33.403 74.4567C33.5528 74.4176 33.7076 74.3803 33.8506 74.3463ZM31.4292 93.2389L31.4612 93.2066L31.4191 93.1964L31.4292 93.2389ZM30.8453 93.8295L30.8756 93.799L30.8352 93.7888L30.8453 93.8295Z" fill="#3B82F6"/>
<path d="M50.5699 67.065C52.2004 68.3311 54.8103 69.1204 58.1251 69.1306C61.4047 68.9337 64.834 67.5385 67.2234 64.11C67.9807 63.0254 67.8141 62.002 66.8785 61.3213C65.9698 60.6594 64.903 60.8478 64.1189 61.8407C62.0997 64.3866 59.4663 65.4916 56.2691 65.164C55.0286 65.0244 53.8388 64.5892 52.7978 63.8944C51.4028 62.9915 50.1744 63.4599 49.6932 65.0452C49.493 65.7071 49.8329 66.493 50.5699 67.065Z" fill="#3B82F6"/>
<path d="M37.3775 51.7435C37.6737 53.7243 38.3266 55.5522 39.6172 57.1019C40.573 58.2458 41.6617 59.1963 43.2905 58.9485C44.9193 58.7007 46.0148 57.7333 46.6929 56.2464C47.2633 54.9955 47.4854 53.6734 47.4838 51.9846C47.3912 49.6406 46.7568 47.1592 45.0119 45.0681C42.9253 42.5697 39.8326 42.8616 38.2811 45.7368C37.2782 47.6157 37.0629 49.644 37.3775 51.7435Z" fill="#3B82F6"/>
<path d="M64.6892 45.2701C64.8222 48.2149 65.5222 50.9458 67.7383 53.064C69.8265 55.06 72.6854 54.5525 74.0349 51.9812C74.8123 50.4977 75.0445 48.904 74.9621 47.2644C74.819 44.7185 74.1796 42.327 72.4582 40.3378C71.1121 38.7779 69.4092 38.228 67.7702 38.8934C66.7741 39.2956 66.0876 40.0492 65.5945 40.9844C64.9054 42.3009 64.592 43.7845 64.6892 45.2701Z" fill="#3B82F6"/>
<path d="M39.1293 117.907H38.6615C38.818 117.9 38.9728 117.902 39.1293 117.907Z" fill="white"/>
<path d="M63.4458 92.9927C63.5602 93.6496 64.1593 93.9585 64.7634 93.9568C65.3674 93.9551 65.8857 93.6954 66.0876 93.0131C66.197 92.6465 66.1533 92.2833 66.1886 91.7843C66.0837 90.9054 66.0236 90.0216 66.0085 89.1365C65.9884 88.5662 65.672 88.1181 65.0107 88.0689C64.0364 87.9959 63.6376 88.1623 63.4963 88.9176C63.2342 90.2616 63.2171 91.6425 63.4458 92.9927Z" fill="white"/>
<path d="M89.6403 120.609C89.7516 120.658 89.8695 120.691 89.9903 120.704C90.4766 120.715 90.9629 120.704 91.4492 120.704C92.0768 120.677 92.7095 120.784 93.3338 120.591C94.0674 120.365 94.5217 119.783 94.4359 119.095C94.3858 118.758 94.2146 118.45 93.9547 118.231C93.6948 118.012 93.3643 117.897 93.0258 117.907C92.0297 117.907 91.0302 117.907 90.034 117.907C89.2347 117.907 88.7686 118.315 88.6475 119.095C88.6067 119.426 88.6843 119.76 88.8664 120.037C89.0485 120.315 89.3229 120.518 89.6403 120.609Z" fill="white"/>
<path d="M36.0752 120.706C37.1201 120.752 38.1718 120.757 39.2167 120.706C40.0026 120.669 40.4602 119.956 40.4081 119.009C40.3711 118.33 39.9201 117.928 39.1292 117.909C38.9727 117.909 38.8179 117.909 38.6615 117.909H36.1374C35.2372 117.909 34.8636 118.237 34.8333 119.021C34.7913 119.924 35.3045 120.674 36.0752 120.706Z" fill="white"/>
<path d="M63.3986 147.304C63.4609 147.829 63.2893 148.555 63.5989 149.283C63.8799 149.942 64.2837 150.235 64.945 150.103C65.4986 149.991 66.2609 149.535 66.165 148.879C65.9866 147.683 66.1078 146.476 65.9967 145.283C65.9462 144.741 65.7056 144.236 65.0157 144.191C64.1895 144.141 63.7385 144.407 63.5013 145.13C63.4535 145.243 63.4218 145.362 63.4071 145.483C63.3936 146.025 63.3986 146.564 63.3986 147.304Z" fill="white"/>
<path d="M86.3118 133.191C87.2407 133.86 88.114 134.605 89.1724 135.07C89.6671 135.286 90.0238 135.128 90.3503 134.797C90.6767 134.466 90.8551 134.048 90.6784 133.529C90.3705 132.597 89.487 132.341 88.8005 131.873C88.506 131.672 88.1628 131.523 87.8649 131.312C87.4544 131.024 86.9899 130.914 86.5541 131.143C86.3336 131.261 86.1548 131.445 86.0421 131.669C85.9294 131.894 85.8884 132.148 85.9248 132.397C85.9013 132.553 85.9258 132.713 85.995 132.855C86.0641 132.997 86.1747 133.115 86.3118 133.191Z" fill="white"/>
<path d="M77.1395 141.681C77.1377 141.806 77.1594 141.931 77.2035 142.048C77.9422 143.126 78.4554 144.375 79.5307 145.196C79.9984 145.554 80.4629 145.427 80.8667 145.096C81.2706 144.765 81.5398 144.356 81.2689 143.75C80.7287 142.53 79.8201 141.615 78.8929 140.71C78.5665 140.391 78.1778 140.454 77.8059 140.625C77.3583 140.831 77.1766 141.214 77.1395 141.681Z" fill="white"/>
<path d="M48.0105 144.421C48.1973 144.987 48.7778 145.116 49.1884 145.439C49.4694 145.656 49.7352 145.507 49.9624 145.269C50.8391 144.373 51.4583 143.289 52.0927 142.224C52.4073 141.696 52.0927 141.074 51.428 140.641C50.9485 140.328 50.6102 140.581 50.2905 140.931C49.4811 141.819 48.8653 142.846 48.2073 143.844C48.1186 144.027 48.0525 144.221 48.0105 144.421Z" fill="white"/>
<path d="M38.1971 133.804C38.1836 134.427 38.5336 134.809 38.9678 135.097C39.3161 135.332 39.6644 135.138 39.9774 134.928C40.7379 134.446 41.5221 133.998 42.2608 133.483C43.1375 132.874 43.2435 132.392 42.7656 131.66C42.2877 130.929 41.9377 130.851 41.1956 131.341C40.3661 131.891 39.4574 132.321 38.7103 133C38.4562 133.246 38.1668 133.441 38.1971 133.804Z" fill="white"/>
<path d="M77.7015 97.5058C78.0633 97.7401 78.4604 97.7672 78.7969 97.5058C79.857 96.6844 80.5503 95.5658 81.0787 94.3574C81.3109 93.8278 80.9962 93.3543 80.5267 93.0505C80.0976 92.7721 79.6046 92.7483 79.263 93.1353C78.4594 94.0096 77.7799 94.9921 77.2438 96.0547C77.1881 96.2145 77.1508 96.3802 77.1327 96.5486C77.0856 97.017 77.3633 97.2852 77.7015 97.5058Z" fill="white"/>
<path d="M48.3016 94.7036C48.888 95.6592 49.5564 96.561 50.2989 97.3989C50.7061 97.8351 51.1403 97.7265 51.5357 97.4244C51.9311 97.1222 52.335 96.7251 52.0035 96.1276C51.4608 95.1194 50.842 94.1547 50.1525 93.2423C49.8328 92.8315 49.4306 92.6686 48.9342 92.8587C48.3941 93.0674 48.1518 93.4867 48.1619 94.1096C48.1418 94.3177 48.1909 94.5267 48.3016 94.7036Z" fill="white"/>
<path d="M38.197 104.584C38.1819 105.195 38.6396 105.502 39.0518 105.772C39.8225 106.269 40.642 106.688 41.4429 107.14C42.0386 107.479 42.4037 107.084 42.7403 106.692C43.0768 106.299 43.166 105.868 42.7403 105.402C41.9292 104.524 40.8422 104.069 39.8679 103.458C39.1444 103.005 38.2206 103.701 38.197 104.584Z" fill="white"/>
<path d="M85.9383 105.94C85.9383 106.788 86.7275 107.374 87.441 107.023C88.334 106.583 89.2004 106.09 90.0357 105.548C90.1782 105.462 90.3021 105.348 90.4 105.213C90.4978 105.078 90.5677 104.924 90.6054 104.761C90.6431 104.598 90.6478 104.429 90.6193 104.264C90.5908 104.099 90.5297 103.942 90.4395 103.801C90.0828 103.249 89.4198 103.087 88.7568 103.501C87.8936 104.044 87.0742 104.665 86.2496 105.264C86.1401 105.336 86.0527 105.437 85.9977 105.557C85.9426 105.676 85.922 105.809 85.9383 105.94Z" fill="white"/>
<path d="M15.4859 28.7028L16.0647 26.4319C15.8572 27.1708 15.6642 27.9277 15.4859 28.7028Z" fill="white"/>
<path d="M14.6445 32.9019L14.7993 32.0278C14.7477 32.3186 14.6961 32.61 14.6445 32.9019Z" fill="white"/>
<path d="M102.035 67.8423C102.023 68.1835 102.049 68.525 102.111 68.8607C102.588 71.4694 105.2 73.2261 107.536 74.141C108.056 74.3463 108.586 74.5178 109.119 74.6739C109.23 74.7088 109.347 74.7206 109.463 74.7087C109.579 74.6967 109.691 74.6612 109.793 74.6043C109.895 74.5474 109.985 74.4703 110.056 74.3777C110.128 74.285 110.18 74.1786 110.21 74.065C110.24 73.9514 110.246 73.8329 110.23 73.7167C110.213 73.6004 110.173 73.4888 110.112 73.3885C110.051 73.2882 109.971 73.2014 109.876 73.1333C109.781 73.0651 109.674 73.017 109.56 72.9919C109.075 72.8646 108.592 72.7254 108.125 72.5557C106.765 72.0669 105.104 71.1979 104.18 69.9368C103.889 69.5491 103.679 69.1064 103.561 68.635C103.531 68.5131 103.51 68.3896 103.495 68.2649C103.48 68.1428 103.472 68.0198 103.472 67.8966C103.495 66.9954 103.945 66.1603 104.556 65.4865C104.62 65.4154 104.668 65.3308 104.697 65.2387C104.74 65.105 104.74 64.9612 104.699 64.8272C104.657 64.6931 104.575 64.5754 104.465 64.4902C104.32 64.3782 104.182 64.2678 104.049 64.1507C102.265 62.6232 101.764 60.8733 102.437 59.0402C102.736 58.2719 103.161 57.5599 103.694 56.9338C103.817 56.7828 103.945 56.6351 104.076 56.4892C104.244 56.3075 104.413 56.131 104.581 55.9562C104.675 55.8626 104.739 55.7432 104.767 55.6128C104.794 55.4825 104.783 55.3469 104.734 55.223C104.687 55.1042 104.638 54.9837 104.591 54.8632L104.582 54.8428C104.069 53.541 103.632 52.1271 103.847 50.7421C104.083 49.1925 105.441 48.2573 106.81 47.687C107.233 47.5173 107.662 47.3594 108.096 47.2203C108.84 46.9826 109.6 46.7892 110.368 46.6177C110.739 46.5329 111.113 46.448 111.487 46.3784L112.457 46.1883C112.527 46.1726 112.587 46.1307 112.627 46.0714C112.666 46.0121 112.682 45.9398 112.67 45.8692C112.659 45.7987 112.621 45.7353 112.564 45.6921C112.508 45.6489 112.437 45.629 112.367 45.6367L111.515 45.7657C110.289 45.9327 109.072 46.165 107.87 46.4616C106.73 46.7364 105.641 47.1949 104.645 47.8194C104.022 48.232 103.513 48.7965 103.165 49.4606C102.817 50.1247 102.64 50.8668 102.652 51.6179C102.636 52.9011 102.944 54.1079 103.346 55.296C103.108 55.5472 102.876 55.8051 102.656 56.0784C101.865 56.996 101.29 58.0814 100.973 59.254C100.527 61.0616 100.946 62.9117 102.528 64.5649C102.711 64.7583 102.901 64.94 103.098 65.1131C102.732 65.5873 102.448 66.1204 102.257 66.6899C102.131 67.062 102.057 67.4498 102.035 67.8423Z" fill="#93C5FD"/>
<path d="M33.4031 74.4567C33.5529 74.4176 33.7009 74.3803 33.8507 74.3463C33.7077 74.3803 33.5529 74.4159 33.4031 74.4567Z" fill="white"/>
<path d="M31.4192 93.1964L31.4276 93.2371L31.4596 93.2049L31.4192 93.1964Z" fill="white"/>
<path d="M30.8353 93.7871L30.8454 93.8278L30.874 93.7973L30.8353 93.7871Z" fill="white"/>
<path d="M9.16896 128.342C9.34564 128.449 9.52401 128.556 9.70405 128.66C10.8792 129.358 12.1042 129.968 13.369 130.484C14.4119 130.913 15.4909 131.247 16.593 131.482C17.2421 131.625 17.9006 131.721 18.5634 131.767C20.8923 131.937 22.967 131.441 24.6985 130.418L24.7221 130.404L24.8584 130.323L24.9324 130.275C24.9576 130.26 24.9812 130.247 25.0048 130.23L25.1007 130.167C25.4091 129.964 25.7058 129.744 25.9891 129.507L26.0766 129.434L26.0884 129.423L26.2028 129.323L26.2718 129.262L26.393 129.15L26.4771 129.072C26.5158 129.036 26.5528 128.999 26.5898 128.962L26.6874 128.865L26.7312 128.821L26.8069 128.743L26.9449 128.595L27.0223 128.512C27.0459 128.483 27.0711 128.456 27.0947 128.429L27.1704 128.344L27.1805 128.332C27.2242 128.281 27.268 128.228 27.31 128.176C27.3521 128.123 27.3639 128.111 27.3908 128.079L27.4817 127.965L27.581 127.838V127.826C27.6146 127.784 27.6466 127.74 27.6785 127.697L27.7795 127.558L27.8754 127.421L27.9309 127.337L28.0201 127.205L28.1009 127.079C28.1194 127.052 28.1362 127.025 28.1531 126.996L28.2187 126.894L28.2877 126.779L28.355 126.665L28.4374 126.519C28.5216 126.373 28.6057 126.224 28.6797 126.071L28.7555 125.92C28.8059 125.817 28.8547 125.715 28.9035 125.61L28.9742 125.452L29.0096 125.374L29.0449 125.294L29.1055 125.15L29.1156 125.124L29.1475 125.048L29.1778 124.971C29.1997 124.917 29.2216 124.863 29.2418 124.802C29.262 124.741 29.2838 124.695 29.304 124.642C29.303 124.638 29.303 124.634 29.304 124.63L29.3259 124.569L29.3629 124.471L29.4184 124.301C29.4191 124.296 29.4191 124.291 29.4184 124.286L29.4622 124.155C29.4627 124.146 29.4627 124.137 29.4622 124.128L29.5127 123.972L29.5783 123.761C29.5934 123.71 29.6069 123.659 29.622 123.61C29.6372 123.561 29.6439 123.534 29.654 123.496V123.476C29.6708 123.42 29.686 123.364 29.7011 123.306C29.7163 123.249 29.7415 123.155 29.76 123.079C29.7785 123.003 29.7903 122.958 29.8038 122.899C29.8172 122.84 29.8273 122.801 29.8374 122.751V122.729L29.8829 122.522C29.893 122.475 29.9031 122.429 29.9115 122.381C29.9115 122.361 29.9216 122.339 29.9249 122.317L29.9502 122.19L29.9704 122.083L30.0057 121.884C30.0057 121.83 30.0242 121.774 30.0326 121.714L30.0781 121.416C30.1308 121.039 30.17 120.66 30.1958 120.28C30.3284 118.398 30.162 116.508 29.7028 114.679C29.5884 114.221 29.4538 113.766 29.3023 113.321L29.2468 113.163C28.7459 111.72 28.0433 110.356 27.1603 109.114C26.886 108.73 26.5932 108.357 26.2819 108C26.0093 107.687 25.7227 107.385 25.4221 107.094C25.2975 106.973 25.1697 106.855 25.0401 106.737C24.9105 106.62 24.7692 106.501 24.6312 106.386C24.5767 106.341 24.5141 106.308 24.4468 106.288C24.3796 106.268 24.3091 106.261 24.2393 106.269C24.1696 106.276 24.1019 106.297 24.0402 106.331C23.9786 106.364 23.9241 106.41 23.8799 106.465C23.8357 106.52 23.8026 106.583 23.7827 106.651C23.7627 106.719 23.7561 106.79 23.7634 106.86C23.7707 106.931 23.7916 106.999 23.825 107.061C23.8584 107.123 23.9036 107.178 23.9581 107.223L24.1264 107.35L24.1516 107.37L24.1617 107.379L24.3115 107.505L24.3788 107.562L24.3973 107.578L24.5386 107.701C24.5824 107.739 24.6245 107.778 24.6682 107.819L24.6935 107.841L24.7035 107.851L24.8264 107.966L24.9088 108.046L24.9963 108.131L25.0838 108.217L25.1057 108.239L25.1713 108.307L25.2386 108.375L25.3194 108.462C25.348 108.489 25.3733 108.518 25.4002 108.547L25.4187 108.567L25.5298 108.688L25.6055 108.772L25.6526 108.827L25.7334 108.92L25.8091 109.007L25.868 109.078L25.9336 109.156L26.0177 109.26L26.1658 109.448C26.1718 109.455 26.1774 109.462 26.1826 109.47L26.3173 109.64L26.3459 109.679L26.4805 109.862C26.5293 109.932 26.5797 110.001 26.6269 110.071C26.674 110.14 26.7245 110.212 26.7716 110.283C26.8187 110.354 26.8658 110.426 26.9112 110.497L26.9802 110.606L27.0492 110.714C27.0946 110.787 27.1384 110.86 27.1821 110.935C27.2091 110.977 27.2343 111.021 27.2596 111.065C27.2983 111.132 27.337 111.198 27.374 111.266C27.411 111.334 27.4531 111.407 27.4901 111.478C27.5052 111.503 27.5187 111.529 27.5321 111.554L27.5725 111.632L27.6533 111.787L27.7088 111.897L27.7694 112.018C27.7896 112.058 27.8098 112.099 27.8283 112.14C27.8468 112.181 27.8687 112.223 27.8872 112.264C27.9309 112.357 27.9747 112.452 28.0168 112.549C28.0386 112.596 28.0605 112.644 28.0807 112.691C28.1009 112.739 28.1228 112.788 28.143 112.836C28.1632 112.883 28.1834 112.931 28.2019 112.978L28.2725 113.148L28.318 113.262L28.3634 113.381C28.3853 113.437 28.4055 113.493 28.4257 113.55C28.4458 113.608 28.4576 113.633 28.4728 113.676V113.686C28.4846 113.72 28.4963 113.754 28.5098 113.79C28.5233 113.825 28.5317 113.856 28.5434 113.888C28.5552 113.92 28.5653 113.951 28.5754 113.983C28.5855 114.015 28.6091 114.082 28.6242 114.129C28.6394 114.177 28.6579 114.228 28.673 114.277C28.7084 114.389 28.742 114.501 28.7757 114.616C28.7992 114.698 28.8228 114.777 28.8446 114.859V114.872L28.8648 114.947L28.885 115.022C28.912 115.122 28.9372 115.222 28.9624 115.322C28.9877 115.426 29.0129 115.529 29.0365 115.633C29.556 117.854 29.6047 120.162 29.1795 122.403C29.1644 122.473 29.1509 122.544 29.1358 122.614L29.0903 122.819C29.0802 122.865 29.0684 122.911 29.0583 122.957C29.0583 122.957 29.0583 122.957 29.0583 122.967C29.0483 123.014 29.0365 123.062 29.0247 123.109C29.0129 123.157 29.0129 123.157 29.0062 123.182C28.9995 123.208 28.9894 123.244 28.9826 123.274V123.294C28.9826 123.32 28.9708 123.344 28.9641 123.369C28.9646 123.375 28.9646 123.382 28.9641 123.388C28.9641 123.423 28.9456 123.459 28.9355 123.493C28.9355 123.493 28.9355 123.502 28.9355 123.505C28.9237 123.546 28.9136 123.586 28.9002 123.629L28.8884 123.671C28.8749 123.717 28.8615 123.763 28.8463 123.809L28.8312 123.861C28.8211 123.89 28.8127 123.919 28.8026 123.946C28.7925 123.973 28.7874 123.997 28.779 124.023C28.779 124.041 28.7672 124.06 28.7605 124.08L28.7201 124.199C28.71 124.231 28.6999 124.26 28.6882 124.292C28.6764 124.325 28.6764 124.328 28.6696 124.345C28.6495 124.403 28.6293 124.462 28.6074 124.515C28.6074 124.527 28.6074 124.539 28.5939 124.552C28.5687 124.62 28.5418 124.688 28.5148 124.758C28.4862 124.832 28.4559 124.905 28.4257 124.98L28.3701 125.111C28.3567 125.141 28.3432 125.172 28.3314 125.202C28.3196 125.233 28.3163 125.24 28.3079 125.257C28.2995 125.273 28.2725 125.335 28.2557 125.372C28.2389 125.409 28.2305 125.428 28.217 125.457V125.47C28.2052 125.498 28.1918 125.526 28.1783 125.554L28.1228 125.671C28.1173 125.683 28.1111 125.695 28.1043 125.706C28.0841 125.75 28.0605 125.796 28.0386 125.842C27.9949 125.927 27.9511 126.012 27.9057 126.097C27.8906 126.127 27.8737 126.156 27.8569 126.188C27.793 126.304 27.729 126.417 27.6617 126.528C27.5944 126.638 27.5305 126.748 27.4615 126.857C27.4346 126.899 27.4093 126.94 27.3824 126.979L27.3471 127.034V127.045L27.2781 127.147C27.2684 127.164 27.2577 127.18 27.2461 127.195L27.1636 127.314L27.1367 127.353V127.363C27.118 127.392 27.0978 127.421 27.0761 127.448C27.056 127.478 27.0341 127.507 27.0105 127.538L26.9483 127.623L26.9079 127.675L26.8894 127.701L26.8237 127.785L26.7833 127.836L26.7396 127.892C26.7261 127.911 26.711 127.928 26.6959 127.947C26.6889 127.957 26.681 127.967 26.6723 127.976L26.5663 128.105C26.4838 128.205 26.398 128.303 26.3105 128.4C26.2769 128.437 26.2432 128.473 26.2079 128.509L26.1052 128.615C26.0278 128.695 25.9487 128.772 25.8697 128.846L25.7956 128.916L25.7233 128.982L25.6341 129.064C25.555 129.133 25.4742 129.201 25.3935 129.267L25.316 129.332L25.2117 129.415L25.1057 129.495L25.0014 129.573L24.9391 129.619L24.8937 129.651C24.823 129.702 24.7507 129.751 24.6783 129.798C24.6463 129.821 24.6144 129.843 24.5807 129.863L24.5656 129.873C21.6814 131.74 18.0334 131.694 14.6983 130.64C13.6367 130.307 12.5998 129.899 11.5954 129.418C10.7843 129.043 10.0019 128.609 9.22281 128.167C9.20695 128.158 9.18849 128.155 9.17065 128.159C9.15281 128.162 9.13672 128.172 9.12521 128.186C9.12489 128.19 9.12489 128.194 9.12521 128.198C9.10901 128.206 9.09617 128.219 9.08898 128.236C9.0818 128.253 9.08075 128.271 9.08603 128.289C9.0913 128.306 9.10255 128.321 9.11775 128.331C9.13295 128.341 9.15111 128.345 9.16896 128.342Z" fill="#93C5FD"/>
<path d="M51.0882 111.315C52.0776 112.113 53.1074 112.853 54.1305 113.615L58.5357 116.908C59.2543 117.442 59.9711 117.98 60.6997 118.501C60.8619 118.607 60.9938 118.754 61.0823 118.927C61.1709 119.101 61.213 119.294 61.2045 119.489C61.2331 121.268 62.7728 122.862 64.5379 122.984C65.4494 123.034 66.347 122.741 67.0556 122.16C67.7642 121.58 68.2332 120.754 68.3711 119.844C68.5982 118.264 68.2112 116.906 66.8566 115.957C66.4966 115.706 66.4393 115.397 66.4494 115.008C66.579 109.94 66.4747 104.872 66.4797 99.804C66.4797 99.0266 65.6384 98.1152 64.8795 98.0829C64.0264 98.049 63.2994 98.772 63.2927 99.7463C63.2742 102.304 63.2927 104.862 63.2927 107.421H63.2725C63.2725 109.881 63.2725 112.341 63.2725 114.801C63.2725 115.141 63.3331 115.523 62.968 115.725C62.5742 115.945 62.3437 115.601 62.0795 115.405C59.1079 113.223 56.1497 111.02 53.1612 108.864C52.0389 108.054 51.0108 108.431 50.5497 109.692C50.2838 110.4 50.5985 110.92 51.0882 111.315Z" fill="#3B82F6"/>
<path d="M91.4492 120.709C92.0768 120.682 92.7095 120.789 93.3338 120.596C94.0674 120.37 94.5217 119.788 94.4359 119.1C94.3858 118.763 94.2146 118.455 93.9547 118.236C93.6948 118.017 93.3643 117.902 93.0258 117.912C92.0297 117.912 91.0302 117.912 90.034 117.912C89.2347 117.912 88.7686 118.32 88.6475 119.1C88.6071 119.43 88.685 119.764 88.867 120.042C89.049 120.319 89.3233 120.521 89.6403 120.613C89.7516 120.662 89.8695 120.694 89.9903 120.708C90.4766 120.715 90.9629 120.709 91.4492 120.709Z" fill="#93C5FD"/>
<path d="M90.4395 103.801C90.0827 103.249 89.4197 103.087 88.7568 103.501C87.8935 104.044 87.0741 104.665 86.2496 105.264C86.1382 105.335 86.0491 105.437 85.9928 105.557C85.9365 105.677 85.9153 105.811 85.9315 105.943C85.9315 106.792 86.7207 107.377 87.4342 107.026C88.3272 106.586 89.1936 106.094 90.0289 105.551C90.1724 105.466 90.2973 105.352 90.3962 105.217C90.495 105.082 90.5658 104.928 90.6041 104.764C90.6425 104.601 90.6477 104.431 90.6194 104.266C90.5911 104.1 90.5299 103.942 90.4395 103.801Z" fill="#93C5FD"/>
<path d="M85.9366 132.4C85.9127 132.555 85.9358 132.713 86.0028 132.854C86.0697 132.996 86.1775 133.113 86.3118 133.191C87.2407 133.86 88.114 134.605 89.1724 135.07C89.6671 135.286 90.0238 135.128 90.3503 134.797C90.6767 134.466 90.8551 134.048 90.6784 133.529C90.3705 132.597 89.487 132.341 88.8005 131.873C88.506 131.672 88.1628 131.523 87.8649 131.312C87.4544 131.024 86.9899 130.914 86.5541 131.143C86.3352 131.263 86.1584 131.448 86.0478 131.673C85.9373 131.898 85.8984 132.152 85.9366 132.4Z" fill="#93C5FD"/>
<path d="M77.1395 141.681C77.1377 141.806 77.1594 141.931 77.2035 142.048C77.9422 143.126 78.4554 144.375 79.5307 145.196C79.9984 145.554 80.4629 145.427 80.8667 145.096C81.2706 144.765 81.5398 144.356 81.2689 143.75C80.7287 142.53 79.8201 141.615 78.8929 140.71C78.5665 140.391 78.1778 140.454 77.8059 140.625C77.3583 140.831 77.1766 141.214 77.1395 141.681Z" fill="#93C5FD"/>
<path d="M77.121 96.5486C77.0806 97.017 77.3583 97.2852 77.6965 97.5058C78.0347 97.7265 78.4554 97.7672 78.7919 97.5058C79.852 96.6844 80.5453 95.5658 81.0736 94.3574C81.3059 93.8278 80.9912 93.3543 80.5217 93.0505C80.0926 92.7721 79.5996 92.7483 79.258 93.1353C78.4544 94.0096 77.7749 94.9921 77.2388 96.0547C77.1808 96.2142 77.1413 96.3799 77.121 96.5486Z" fill="#93C5FD"/>
<path d="M66.0876 93.0131C66.197 92.6465 66.1533 92.2833 66.1886 91.7843C66.0837 90.9054 66.0236 90.0216 66.0085 89.1365C65.9884 88.5662 65.672 88.1181 65.0107 88.0689C64.0364 87.9959 63.6376 88.1623 63.4963 88.9176C63.236 90.2613 63.2206 91.6417 63.4509 92.991C63.5653 93.6479 64.1643 93.9568 64.7684 93.9551C65.3725 93.9534 65.8857 93.6954 66.0876 93.0131Z" fill="#93C5FD"/>
<path d="M63.4038 145.483C63.3937 146.025 63.4038 146.564 63.4038 147.304C63.466 147.829 63.2944 148.555 63.604 149.283C63.885 149.942 64.2889 150.235 64.9502 150.103C65.5038 149.991 66.266 149.535 66.1701 148.879C65.9917 147.683 66.1129 146.476 66.0018 145.283C65.9514 144.741 65.7107 144.236 65.0208 144.191C64.1946 144.141 63.7437 144.407 63.5064 145.13C63.4558 145.242 63.4212 145.361 63.4038 145.483Z" fill="#93C5FD"/>
<path d="M52.0036 96.1242C51.4609 95.116 50.842 94.1513 50.1526 93.2389C49.8329 92.8281 49.4307 92.6652 48.9343 92.8553C48.3942 93.064 48.1519 93.4833 48.162 94.1062C48.1454 94.3128 48.1968 94.5193 48.3084 94.6934C48.8948 95.649 49.5632 96.5509 50.3057 97.3887C50.7129 97.8249 51.1471 97.7163 51.5425 97.4142C51.9379 97.1121 52.335 96.7251 52.0036 96.1242Z" fill="#93C5FD"/>
<path d="M48.2124 143.844C48.1242 144.027 48.0587 144.221 48.0172 144.421C48.204 144.987 48.7845 145.116 49.1951 145.439C49.4761 145.656 49.742 145.507 49.9691 145.269C50.8458 144.373 51.465 143.289 52.0994 142.224C52.4141 141.696 52.0994 141.074 51.4347 140.641C50.9552 140.328 50.617 140.581 50.2972 140.931C49.4862 141.819 48.8703 142.846 48.2124 143.844Z" fill="#93C5FD"/>
<path d="M42.7403 106.688C43.097 106.272 43.166 105.865 42.7403 105.398C41.9293 104.521 40.8422 104.066 39.868 103.455C39.1511 103.005 38.2273 103.701 38.2038 104.584C38.1886 105.195 38.6463 105.502 39.0586 105.772C39.8293 106.269 40.6487 106.688 41.4497 107.14C42.0386 107.472 42.4038 107.08 42.7403 106.688Z" fill="#93C5FD"/>
<path d="M38.1971 133.804C38.1836 134.427 38.5336 134.809 38.9678 135.097C39.3161 135.332 39.6644 135.138 39.9774 134.928C40.7379 134.446 41.5221 133.998 42.2608 133.483C43.1375 132.874 43.2435 132.392 42.7656 131.66C42.2877 130.929 41.9377 130.851 41.1956 131.341C40.3661 131.891 39.4574 132.321 38.7103 133C38.4562 133.246 38.1668 133.441 38.1971 133.804Z" fill="#93C5FD"/>
<path d="M36.0752 120.706C37.1201 120.752 38.1718 120.757 39.2167 120.706C40.0026 120.669 40.4602 119.956 40.4081 119.009C40.3711 118.33 39.9201 117.928 39.1292 117.909C38.9727 117.909 38.8179 117.909 38.6615 117.909H36.1374C35.2372 117.909 34.8636 118.237 34.8333 119.021C34.7913 119.924 35.3045 120.674 36.0752 120.706Z" fill="#93C5FD"/>
</g>
<defs>
<clipPath id="clip0_299_413">
<rect width="129" height="160" fill="white" transform="matrix(-1 0 0 1 129 0)"/>
</clipPath>
</defs>
</svg>
