<svg width="852" height="852" viewBox="0 0 852 852" fill="none" xmlns="http://www.w3.org/2000/svg">
<g clip-path="url(#clip0_225_447)">
<rect width="852" height="852" rx="200" fill="#3B82F6"/>
<g clip-path="url(#clip1_225_447)">
<path d="M924.728 758.158C909.903 698.155 887.762 640.208 862.468 583.931C849.546 555.214 835.554 527 821.405 498.866C807.892 472.198 796.395 444.553 787.011 416.163C758.697 330.129 751.092 312.738 726.742 249.254C704.091 193.953 657.412 148.593 600.469 129.926C548.945 113.039 490.178 118.781 443.617 146.592C376.764 186.51 342.591 263.1 312.664 335.036C308.331 345.456 302.385 357.263 291.326 359.453C279.749 361.729 269.304 351.891 263.429 341.621C253.021 323.127 250.155 301.32 255.43 280.759C259.363 265.794 267.48 252.184 271.703 237.281C275.927 222.379 275.36 204.452 264.2 193.725C253.039 182.997 229.806 186.935 227.502 202.255C223.42 172.584 216.428 138.55 190.001 124.546C170.284 114.086 144.817 119.206 127.309 133.06C109.802 146.915 99.3333 168.032 93.5525 189.613C81.8572 233.154 87.3627 279.491 97.7681 323.331C119.929 416.295 163.38 502.821 224.686 576.07L225.323 576.48L225.512 575.692C235.87 533.724 248.422 492.328 263.114 451.678C263.436 450.75 263.937 449.894 264.589 449.159C265.241 448.425 266.031 447.826 266.914 447.398C267.797 446.969 268.756 446.719 269.735 446.661C270.715 446.604 271.696 446.74 272.623 447.062C273.55 447.385 274.405 447.886 275.138 448.539C275.871 449.192 276.469 449.983 276.897 450.868C277.325 451.752 277.575 452.712 277.632 453.693C277.69 454.674 277.554 455.657 277.232 456.585C262.96 499.388 251.091 542.958 241.682 587.09L242.083 587.349C216.75 708.253 211.968 833.236 244.01 951.784L775.489 951.422H776.118C776.118 951.28 776.079 951.138 776.063 950.989C776.027 950.579 776.003 950.154 775.993 949.712C776.37 944.624 776.69 939.536 776.952 934.448C777.636 921.397 777.943 908.338 777.739 895.302C777.537 878.933 776.452 862.586 774.49 846.334C773.318 838.182 772.044 829.132 770.353 821.02C765.564 795.736 757.769 771.13 748.127 747.131C739.362 725.744 729.383 704.877 718.24 684.631C715.054 678.33 723.745 673.076 727.788 679.118C732.208 686.38 736.403 693.555 740.372 700.644C741.636 702.897 742.876 705.141 744.092 707.378C780.955 775.116 797.81 837.15 799.674 913.788C799.957 925.201 799.902 936.937 799.533 949.067L799.824 949.256L801.106 949.051C811.558 946.901 822.223 944.561 832.739 941.726C864.34 933.196 894.574 920.2 913.638 894.428C941.661 856.566 936.038 803.92 924.728 758.158ZM642.838 405.105C642.838 405.664 642.838 406.231 642.743 406.79C641.351 421.716 638.811 436.39 629.79 448.945C624.221 456.672 617.119 462.736 606.808 461.736C595.593 460.649 588.223 453.71 584.511 443.542C575.45 418.699 579.619 395.164 594.869 374.276C607.115 357.499 628.028 360.366 637.167 379.152C641.077 387.233 643.02 396.127 642.838 405.105ZM560.68 523.401C548.505 548.306 526.553 556.742 507.575 557.584C469.823 557.458 444.875 539.697 437.954 512.823C435.712 504.111 434.808 495.069 441.635 487.996C448.713 480.64 457.074 484.302 464.837 487.327C489.942 497.109 516.038 497.952 542.417 496.101C562.41 494.699 569.654 505.041 560.68 523.401ZM390.119 393.439C391.645 377.356 394.161 362.091 404.559 349.521C410.969 341.778 419.094 336.028 429.822 338.336C441.352 340.817 447.911 349.009 450.829 360.106C455.705 378.774 453.259 396.819 445.481 414.241C438.913 428.939 427.029 437.351 414.862 436.201C403.065 435.082 395.058 425.764 391.566 408.743C390.902 405.026 390.424 401.277 390.135 397.512C389.996 396.158 389.99 394.794 390.119 393.439Z" fill="white"/>
<path d="M241.681 587.096C225.125 665.68 217.434 746.027 222.939 826.162C225.709 867.474 232.457 908.422 243.089 948.436C243.392 949.547 243.551 950.694 243.561 951.846C243.605 955.274 242.387 958.598 240.139 961.184C237.891 963.77 234.771 965.436 231.375 965.865C227.978 966.293 224.543 965.454 221.725 963.508C218.907 961.561 216.903 958.644 216.096 955.312C186.084 830.328 195.002 700.635 225.299 576.455L225.487 575.668C235.845 533.699 248.397 492.304 263.09 451.653C263.412 450.725 263.913 449.869 264.565 449.135C265.217 448.4 266.007 447.802 266.89 447.373C267.773 446.945 268.731 446.694 269.711 446.637C270.69 446.579 271.672 446.715 272.599 447.038C273.526 447.36 274.38 447.862 275.114 448.515C275.847 449.168 276.445 449.959 276.873 450.843C277.301 451.727 277.55 452.687 277.608 453.668C277.665 454.649 277.529 455.632 277.208 456.56C262.942 499.374 251.081 542.954 241.681 587.096Z" fill="#93C5FD"/>
<path d="M799.516 949.081C799.516 949.16 799.516 949.239 799.516 949.318V949.444V950.35C798.533 965.315 777.887 965.394 776.149 951.413C776.149 951.271 776.11 951.129 776.094 950.98C776.057 950.57 776.034 950.145 776.023 949.704C776.401 944.616 776.721 939.527 776.983 934.439C777.667 921.388 777.974 908.329 777.769 895.293C777.567 878.924 776.483 862.578 774.521 846.326C773.349 838.173 772.075 829.123 770.384 821.011C765.594 795.727 757.8 771.121 748.157 747.122C739.392 725.735 729.414 704.868 718.27 684.622C715.085 678.321 723.776 673.068 727.819 679.109C732.239 686.371 736.433 693.546 740.403 700.635C741.666 702.888 742.906 705.133 744.123 707.37C780.986 775.107 797.841 837.142 799.705 913.779C799.933 925.216 799.886 936.952 799.516 949.081Z" fill="#93C5FD"/>
<path d="M445.48 414.24C438.913 428.938 427.028 437.35 414.861 436.2C403.064 435.081 395.057 425.763 391.565 408.742C390.901 405.025 390.423 401.276 390.134 397.511C390 396.157 390 394.793 390.134 393.438C391.659 377.355 394.176 362.09 404.574 349.52C410.984 341.777 419.108 336.027 429.836 338.335C441.366 340.816 447.926 349.008 450.844 360.105C455.704 378.773 453.258 396.817 445.48 414.24Z" fill="#3B82F6"/>
<path d="M642.837 405.104C642.837 405.663 642.837 406.23 642.743 406.789C641.35 421.715 638.81 436.389 629.789 448.944C624.22 456.671 617.118 462.735 606.807 461.735C595.592 460.648 588.222 453.709 584.51 443.541C575.449 418.698 579.618 395.163 594.868 374.275C607.114 357.498 628.027 360.365 637.166 379.151C641.076 387.232 643.019 396.126 642.837 405.104Z" fill="#3B82F6"/>
<path d="M560.679 523.4C548.504 548.305 526.552 556.741 507.574 557.583C469.822 557.457 444.874 539.696 437.953 512.822C435.711 504.11 434.807 495.068 441.634 487.995C448.712 480.639 457.073 484.301 464.836 487.326C489.941 497.108 516.037 497.951 542.416 496.1C562.409 494.698 569.653 505.04 560.679 523.4Z" fill="#3B82F6"/>
<path d="M775.622 178.853C771.288 179.121 767.93 176.963 765.964 173.024C760.175 161.415 751.948 151.632 743.297 142.172C739.537 138.061 739.065 133.508 742.093 129.161C745.239 124.616 749.911 123.088 755.244 125.222C757.363 126.016 759.329 127.17 761.056 128.633C772.022 138.53 780.394 150.971 785.438 164.864C788.379 172.725 783.692 178.924 775.622 178.853Z" fill="#EFF6FF"/>
<path d="M718.845 163.053C725.137 163.273 729.903 166.881 734.103 170.992C743.124 179.822 748.26 190.833 750.336 203.183C751.492 210.012 746.341 217.038 739.734 217.282C735.07 217.455 732.427 213.494 731.476 209.611C728.33 196.756 721.338 186.769 710.972 178.79C708.266 176.703 706.363 173.568 708.093 169.795C710.169 165.25 713.614 162.706 718.845 163.053Z" fill="#EFF6FF"/>
</g>
</g>
<defs>
<clipPath id="clip0_225_447">
<rect width="852" height="852" rx="200" fill="white"/>
</clipPath>
<clipPath id="clip1_225_447">
<rect width="847" height="847" fill="white" transform="translate(87 119)"/>
</clipPath>
</defs>
</svg>
